<svg width="391" height="353" viewBox="0 0 391 353" fill="none" xmlns="http://www.w3.org/2000/svg">
<path d="M71.8256 322.528H38.7036V322.778H71.8256V322.528Z" fill="#E6E6E6"/>
<path d="M28.2218 322.528H9.02881V322.778H28.2218V322.528Z" fill="#E6E6E6"/>
<path d="M157.554 326.208H138.362V326.458H157.554V326.208Z" fill="#E6E6E6"/>
<path d="M257.616 331.791H214.423V332.041H257.616V331.791Z" fill="#E6E6E6"/>
<path d="M205.52 331.791H199.187V332.041H205.52V331.791Z" fill="#E6E6E6"/>
<path d="M214.399 221.977H192.41V309.211H214.399V221.977Z" fill="#E0E0E0"/>
<path d="M210.223 309.212H214.399V297.332H205.844L210.223 309.212Z" fill="#FAFAFA"/>
<path d="M118.044 221.977H96.0552V309.211H118.044V221.977Z" fill="#E0E0E0"/>
<path d="M214.4 221.977H114.399V301.922H214.4V221.977Z" fill="#FAFAFA"/>
<path d="M210.773 225.907V247.058H118.025V225.907H210.773ZM211.159 225.521H117.638V247.445H211.159V225.521Z" fill="#E0E0E0"/>
<path d="M118.575 309.212H114.399V297.332H122.954L118.575 309.212Z" fill="#FAFAFA"/>
<path d="M162.187 236.482C162.187 237.703 163.177 238.694 164.399 238.694C165.62 238.694 166.611 237.704 166.611 236.482C166.611 235.261 165.621 234.27 164.399 234.27C163.178 234.271 162.187 235.261 162.187 236.482Z" fill="#E6E6E6"/>
<path d="M210.773 251.374V272.525H118.025V251.374H210.773ZM211.159 250.988H117.638V272.912H211.159V250.988Z" fill="#E0E0E0"/>
<path d="M162.187 261.949C162.187 263.17 163.177 264.161 164.399 264.161C165.62 264.161 166.611 263.171 166.611 261.949C166.611 260.727 165.621 259.737 164.399 259.737C163.178 259.738 162.187 260.728 162.187 261.949Z" fill="#E6E6E6"/>
<path d="M210.773 276.841V297.992H118.025V276.841H210.773ZM211.159 276.455H117.638V298.379H211.159V276.455Z" fill="#E0E0E0"/>
<path d="M162.187 287.417C162.187 288.638 163.177 289.629 164.399 289.629C165.62 289.629 166.611 288.639 166.611 287.417C166.611 286.195 165.621 285.205 164.399 285.205C163.178 285.205 162.187 286.195 162.187 287.417Z" fill="#E6E6E6"/>
<path d="M104.61 171.316H82.6211V309.212H104.61V171.316Z" fill="#E0E0E0"/>
<path d="M100.434 309.212H104.61V297.332H96.0552L100.434 309.212Z" fill="#FAFAFA"/>
<path d="M22.427 171.316H0.437988V309.212H22.427V171.316Z" fill="#E0E0E0"/>
<path d="M104.61 171.316H18.7832V301.922H104.61V171.316Z" fill="#FAFAFA"/>
<path d="M100.915 175.014V204.584H22.4779V175.014H100.915ZM101.37 174.559H22.0229V205.04H101.37V174.559Z" fill="#E0E0E0"/>
<path d="M100.915 208.178V286.614H63.5541V208.178H100.915ZM101.37 207.723H63.0981V287.071H101.37V207.723Z" fill="#E0E0E0"/>
<path d="M59.8389 208.178V286.614H22.4779V208.178H59.8389ZM60.2949 207.723H22.0229V287.071H60.2949V207.723Z" fill="#E0E0E0"/>
<path d="M22.9592 309.212H18.7832V297.332H27.3382L22.9592 309.212Z" fill="#FAFAFA"/>
<path d="M59.4849 189.799C59.4849 191.021 60.4749 192.011 61.6969 192.011C62.9179 192.011 63.9089 191.021 63.9089 189.799C63.9089 188.578 62.9189 187.587 61.6969 187.587C60.4749 187.588 59.4849 188.578 59.4849 189.799Z" fill="#E6E6E6"/>
<path d="M67.4028 245.526C67.4028 246.747 68.3928 247.738 69.6148 247.738C70.8368 247.738 71.8268 246.748 71.8268 245.526C71.8268 244.305 70.8368 243.314 69.6148 243.314C68.3928 243.314 67.4028 244.304 67.4028 245.526Z" fill="#E6E6E6"/>
<path d="M51.5659 245.526C51.5659 246.747 52.5559 247.738 53.7779 247.738C54.9989 247.738 55.9899 246.748 55.9899 245.526C55.9899 244.305 54.9999 243.314 53.7779 243.314C52.5569 243.314 51.5659 244.304 51.5659 245.526Z" fill="#E6E6E6"/>
<path d="M49.075 132.869H39.799C39.799 132.869 41.409 141.444 41.409 146.49C41.409 151.536 34.353 171.316 44.437 171.316C54.52 171.316 47.465 151.535 47.465 146.49C47.464 141.443 49.075 132.869 49.075 132.869Z" fill="#E0E0E0"/>
<path d="M13.8032 153.148V159.175C13.8032 165.852 19.2662 171.315 25.9442 171.315H31.9712C38.6482 171.315 44.1112 165.852 44.1112 159.175V153.148H13.8032Z" fill="#F5F5F5"/>
<path d="M142.667 209.265C142.667 216.257 150.498 221.978 160.069 221.978H168.708C178.28 221.978 186.111 216.257 186.111 209.265H142.667Z" fill="#E0E0E0"/>
<path d="M371.606 199.03C366.366 203.307 359.134 211.139 352.507 222.158C348.093 229.496 345.433 237.185 344.265 247.343C344.29 235.844 344.326 223.489 344.366 211.829C345.697 208.828 348.737 201.913 350.918 196.449C358.195 178.218 360.905 173.735 367.45 158.01C376.179 137.036 385.124 112.149 382.563 114.138C377.344 118.19 357.343 155.642 355.181 161.003C347.745 179.443 345.674 192.884 344.387 205.855C344.427 194.903 344.47 184.847 344.512 177.088C344.646 151.78 345.077 143.612 345.287 141.093C346.096 139.813 347.052 138.321 347.608 137.517C352.306 130.724 354.118 124.937 358.545 114.805C364.818 100.448 370.22 74.958 368.641 76.244C362.065 81.597 356.878 93.106 350.062 107.771C343.247 122.436 345.195 130.869 343.843 143.394C343.559 145.852 343.342 155.127 343.185 167.982C341.417 154.287 338.101 145.262 332.051 137.061C324.609 126.974 317.41 120.16 312.128 116.601C306.846 113.043 321.249 137.821 328.137 148.636C334.271 158.267 339.921 166.766 343.107 175.136C342.938 192.558 342.86 214.62 342.86 235.156C341.28 225.81 338.7 215.747 335.258 207.954C331.122 198.591 324.759 184.23 319.694 179.359C318.477 178.189 324.99 206.119 329.169 213.546C333.349 220.973 336.417 227.972 339.048 232.182C339.662 233.164 341.698 236.952 342.861 239.13C342.872 264.2 343 286.322 343.218 293.852H344.301C344.227 291.909 344.215 279.156 344.238 262.277C346.846 253.112 352.811 242.654 357.733 233.113C363.106 222.697 376.847 194.752 371.606 199.03Z" fill="#E0E0E0"/>
<path d="M359.44 309.212H328.097L325.731 278.488H361.806L359.44 309.212Z" fill="#F0F0F0"/>
<path d="M364.142 282.068H323.395L322.228 271.702H365.309L364.142 282.068Z" fill="#F5F5F5"/>
<path d="M71.26 0.496948H15.208V62.046H71.26V0.496948Z" fill="#E0E0E0"/>
<path d="M77.3311 0.496948H19.4331V62.046H77.3311V0.496948Z" fill="#F5F5F5"/>
<path d="M72.4795 57.1953L72.4795 5.34729L24.2825 5.34729L24.2825 57.1953L72.4795 57.1953Z" fill="white"/>
<path d="M60.7979 44.6293L60.7979 17.9153L35.9659 17.9153V44.6293H60.7979Z" fill="#F5F5F5"/>
<path d="M357.051 7.672H304.981V64.849H357.051V7.672Z" fill="#E0E0E0"/>
<path d="M362.691 7.672H308.906V64.849H362.691V7.672Z" fill="#F5F5F5"/>
<path d="M358.185 60.3435V12.1785L313.412 12.1785V60.3435L358.185 60.3435Z" fill="white"/>
<path d="M335.798 50.229C343.512 50.229 349.766 43.9753 349.766 36.261C349.766 28.5467 343.512 22.293 335.798 22.293C328.084 22.293 321.83 28.5467 321.83 36.261C321.83 43.9753 328.084 50.229 335.798 50.229Z" fill="#F5F5F5"/>
<path d="M129.489 37.1969H87.9092V82.8549H129.489V37.1969Z" fill="#E0E0E0"/>
<path d="M133.994 37.1969H91.0439V82.8549H133.994V37.1969Z" fill="#F5F5F5"/>
<path d="M130.396 79.2574V40.7954L94.643 40.7954V79.2574H130.396Z" fill="white"/>
<path d="M112.519 50.3029L102.741 67.2399H122.297L112.519 50.3029Z" fill="#F5F5F5"/>
<path d="M197 352.561C304.082 352.561 390.889 347.492 390.889 341.238C390.889 334.985 304.082 329.915 197 329.915C89.9179 329.915 3.11084 334.985 3.11084 341.238C3.11084 347.492 89.9179 352.561 197 352.561Z" fill="#F5F5F5"/>
<path d="M296.246 88.432L286.327 84.41C286.327 84.41 273.237 108.283 269.488 109.488C264.386 111.128 253.835 115.687 247.565 116.541C246.72 117.529 245.326 120.645 245.459 121.781C253.871 124.586 272.351 120.861 276.307 117.924C285.325 111.225 296.246 88.432 296.246 88.432Z" fill="#E58A7B"/>
<path d="M299.3 83.015C301.145 89.854 291.126 103.591 291.126 103.591L277.964 96.208C277.964 96.208 280.418 90.561 283.422 84.81C288.273 75.523 297.193 75.21 299.3 83.015Z" fill="#FF9228"/>
<path opacity="0.2" d="M299.3 83.015C301.145 89.854 291.126 103.591 291.126 103.591L277.964 96.208C277.964 96.208 280.418 90.561 283.422 84.81C288.273 75.523 297.193 75.21 299.3 83.015Z" fill="black"/>
<path opacity="0.2" d="M283.212 99.1481L288.381 102.046L289.285 86.1801C286.285 88.4921 284.157 95.4491 283.212 99.1481Z" fill="black"/>
<path d="M290.662 77.863C290.662 77.863 280.443 100.599 286.401 142.94C298.535 142.94 320.767 142.94 326.671 142.94C327.311 136.758 325.195 106.602 332.865 77.475C332.865 77.475 326.043 76.09 319.484 75.773C314.353 75.525 306.913 75.361 302.365 75.774C296.369 76.318 290.662 77.863 290.662 77.863Z" fill="#FF9228"/>
<path opacity="0.2" d="M290.662 77.863C290.662 77.863 280.443 100.599 286.401 142.94C298.535 142.94 320.767 142.94 326.671 142.94C327.311 136.758 325.195 106.602 332.865 77.475C332.865 77.475 326.043 76.09 319.484 75.773C314.353 75.525 306.913 75.361 302.365 75.774C296.369 76.318 290.662 77.863 290.662 77.863Z" fill="black"/>
<path d="M281.323 342.142C281.26 343.216 296.528 344.086 315.425 344.086C334.322 344.086 349.692 343.216 349.755 342.142C349.818 341.068 334.55 340.198 315.653 340.198C296.756 340.197 281.386 341.068 281.323 342.142Z" fill="#E8ECF1"/>
<path d="M309.141 315.158L301.975 317.919L308.12 333.868L315.286 331.107L309.141 315.158Z" fill="#E58A7B"/>
<path d="M340.051 334.454H332.522L329.76 317.018H337.289L340.051 334.454Z" fill="#E58A7B"/>
<path d="M332.038 333.582H340.497C340.805 333.582 341.059 333.796 341.108 334.096L342.203 340.788C342.317 341.482 341.733 342.139 341.022 342.127C338.072 342.076 336.647 341.903 332.928 341.903C330.64 341.903 325.911 342.141 322.75 342.141C319.659 342.141 319.36 339.016 320.671 338.733C326.546 337.464 328.834 335.714 330.789 334.045C331.141 333.744 331.588 333.582 332.038 333.582Z" fill="#342C21"/>
<path d="M306.972 330.946L314.993 328.614C315.293 328.527 315.602 328.656 315.735 328.925L318.707 334.921C319.015 335.542 318.651 336.322 317.955 336.512C315.05 337.305 313.097 337.801 309.46 338.858C306.947 339.588 304.391 340.778 301.908 341.57C300.189 342.118 296.152 342.14 294.061 342.14C290.97 342.14 290.281 338.881 291.606 338.732C294.959 338.356 295.409 338.53 297.26 337.602C300.32 336.067 302.687 334.796 305.336 332.021C305.798 331.539 306.339 331.13 306.972 330.946Z" fill="#342C21"/>
<path d="M248.833 116.469L240.548 112.983L237.137 122.161C237.137 122.161 241.918 123.028 247.378 122.161L248.833 116.469Z" fill="#E58A7B"/>
<path d="M234.391 112.758L234.172 118.865L237.137 122.161L240.548 112.983L234.391 112.758Z" fill="#E58A7B"/>
<path d="M309.168 315.14L302 317.906L305.173 326.126L312.341 323.36L309.168 315.14Z" fill="#CF6F64"/>
<path d="M337.291 317.023H329.759L331.187 326.01H338.719L337.291 317.023Z" fill="#CF6F64"/>
<path opacity="0.2" d="M285.123 131.487C285.267 133.296 285.442 135.145 285.657 137.046L315.602 127.325C320.278 125.927 324.347 122.988 327.122 118.971C327.235 116.299 327.389 113.494 327.615 110.565C327.718 109.137 327.841 107.677 327.975 106.198C328.119 104.657 328.283 103.084 328.468 101.502L285.123 131.487Z" fill="black"/>
<path d="M294.9 98.688L293.88 98.567C294.474 93.577 298.199 89.633 302.134 89.727L302.104 90.755C298.707 90.656 295.434 94.213 294.9 98.688Z" fill="white"/>
<path d="M300.228 107.922C300.172 107.922 300.116 107.921 300.059 107.92L300.089 106.892C303.528 107.018 306.759 103.433 307.293 98.958L308.313 99.08C307.727 103.999 304.12 107.922 300.228 107.922Z" fill="white"/>
<path d="M318.918 56.4969C317.515 62.0049 315.846 72.097 319.484 75.772C319.484 75.772 316.943 81.3589 306.708 81.3589C297.355 81.3589 302.365 75.772 302.365 75.772C308.593 74.305 308.702 69.748 307.883 65.468L318.918 56.4969Z" fill="#E58A7B"/>
<path d="M314.419 60.158L307.888 65.465C308.085 66.478 308.225 67.505 308.238 68.503C310.147 70.404 313.979 65.588 314.372 63.131C314.567 61.907 314.585 60.729 314.419 60.158Z" fill="#CF6F64"/>
<path d="M296.664 56.4291C297.621 58.1431 299.31 59.2101 300.906 59.5651C303.307 60.1001 304.514 57.8911 303.852 55.6681C303.256 53.6671 301.289 50.9781 298.876 51.4391C296.499 51.8941 295.569 54.4691 296.664 56.4291Z" fill="#CF6F64"/>
<path d="M300.626 38.8C296.886 40.514 295.568 55.371 300.27 57.568C304.972 59.764 307.71 35.555 300.626 38.8Z" fill="#342C21"/>
<path d="M320.059 48.208C319.164 55.666 319.017 60.055 315.026 63.883C309.022 69.641 300.016 66.226 298.673 58.781C297.464 52.08 299.131 41.009 306.606 38.041C313.97 35.117 320.954 40.75 320.059 48.208Z" fill="#E58A7B"/>
<path d="M307.774 42.665C313.306 41.25 317.378 40.286 315.925 44.904C313.989 51.056 311.667 57.016 314.782 57.294C316.676 57.463 325.077 53.898 324.01 50.294C323.081 47.154 326.986 46.307 327.706 44.706C330.299 38.94 322.89 39.689 324.208 36.2C325.492 32.803 318.239 27.062 314.22 29.867C307.715 34.408 296.535 34.343 302.413 26.895C306.622 21.561 299.112 22.656 299.112 22.656C299.112 22.656 303.648 25.347 296.013 29.507C287.919 33.915 295.328 45.849 307.774 42.665Z" fill="#342C21"/>
<path d="M322.946 56.4291C321.787 58.1431 319.974 59.2101 318.336 59.5651C315.872 60.1001 314.925 57.8911 315.847 55.6681C316.678 53.6671 318.96 50.9781 321.319 51.4391C323.642 51.8941 324.27 54.4691 322.946 56.4291Z" fill="#E58A7B"/>
<path d="M286.401 142.94C286.401 142.94 279.642 203.437 279.114 226.397C278.566 250.279 302.022 324.791 302.022 324.791L314.033 319.747C314.033 319.747 300.048 251.674 301.991 228.219C304.109 202.65 312.872 142.939 312.872 142.939H286.401V142.94Z" fill="#FF9228"/>
<path opacity="0.2" d="M303.199 159.551C297.814 170.731 301.442 192.835 304.36 205.938C305.47 196.689 306.785 186.65 308.039 177.36C307.916 163.076 306.806 152.05 303.199 159.551Z" fill="black"/>
<path d="M313.49 315.826C313.546 315.803 314.914 319.654 314.914 319.654L301.07 325.467L298.889 321.412L313.49 315.826Z" fill="#FF9228"/>
<path d="M300.686 142.94C300.686 142.94 305.857 200.478 309.284 222.034C313.037 245.639 327.779 324.27 327.779 324.27H341.569C341.569 324.27 333.306 247.545 331.745 224.174C330.051 198.808 326.67 142.94 326.67 142.94H300.686Z" fill="#FF9228"/>
<path d="M341.78 320.677C341.839 320.677 342.241 324.531 342.241 324.531H327.084L326.002 320.107L341.78 320.677Z" fill="#FF9228"/>
<path opacity="0.2" d="M336.497 316.122C336.432 316.122 336.377 316.073 336.37 316.008C336.295 315.31 328.844 246.041 327.442 225.043C325.921 202.256 322.862 151.731 322.831 151.223C322.827 151.152 322.881 151.091 322.951 151.087C322.954 151.087 322.957 151.087 322.959 151.087C323.026 151.087 323.084 151.14 323.088 151.208C323.118 151.715 326.177 202.24 327.699 225.025C329.1 246.019 336.55 315.283 336.625 315.98C336.633 316.051 336.582 316.114 336.512 316.121C336.506 316.122 336.501 316.122 336.497 316.122Z" fill="black"/>
<path d="M308.624 50.293C308.588 50.9 308.238 51.393 307.841 51.393C307.444 51.393 307.151 50.901 307.187 50.293C307.222 49.686 307.573 49.193 307.97 49.193C308.367 49.193 308.66 49.686 308.624 50.293Z" fill="#342C21"/>
<path d="M301.76 50.293C301.724 50.9 301.374 51.393 300.977 51.393C300.58 51.393 300.287 50.901 300.323 50.293C300.359 49.686 300.709 49.193 301.106 49.193C301.503 49.193 301.796 49.686 301.76 50.293Z" fill="#342C21"/>
<path d="M303.924 50.595C303.924 50.595 302.338 54.099 300.718 55.789C301.734 56.792 303.587 56.333 303.587 56.333L303.924 50.595Z" fill="#DF5753"/>
<path d="M304.099 58.881C304.001 58.881 303.925 58.801 303.931 58.703C303.937 58.605 304.022 58.525 304.12 58.525C306.786 58.525 308.139 56.663 308.153 56.644C308.213 56.562 308.325 56.538 308.403 56.592C308.482 56.646 308.499 56.756 308.44 56.839C308.38 56.921 306.956 58.881 304.099 58.881Z" fill="#342C21"/>
<path d="M309.845 48.446C309.742 48.486 309.626 48.48 309.53 48.419C308.218 47.593 306.995 48.147 306.983 48.154C306.815 48.24 306.592 48.165 306.517 47.987C306.442 47.809 306.53 47.596 306.712 47.511C306.777 47.48 308.308 46.785 309.936 47.81C310.099 47.913 310.139 48.132 310.027 48.3C309.981 48.368 309.916 48.418 309.845 48.446Z" fill="#342C21"/>
<path d="M299.106 46.4509C299.057 46.4369 299.009 46.4119 298.97 46.3739C298.83 46.2439 298.83 46.0189 298.97 45.8709C300.366 44.3959 301.984 44.6209 302.052 44.6309C302.242 44.6519 302.369 44.8409 302.328 45.0359C302.287 45.2299 302.099 45.3639 301.907 45.3359C301.853 45.3279 300.59 45.1669 299.475 46.3439C299.376 46.4499 299.231 46.4869 299.106 46.4509Z" fill="#342C21"/>
<path d="M336.73 87.317L326.327 84.548C326.327 84.548 316.127 109.656 312.524 111.295C307.621 113.526 295.207 121.242 289.931 124.963C289.638 126.207 289.868 129.523 290.532 130.426C299.503 128.796 316.762 122.161 320.361 118.788C328.567 111.099 336.73 87.317 336.73 87.317Z" fill="#E58A7B"/>
<path d="M329.471 334.897C328.898 334.897 328.368 334.799 328.044 334.514C327.787 334.287 327.682 333.969 327.731 333.571C327.767 333.274 327.932 333.133 328.066 333.067C328.915 332.641 331.264 334.131 331.529 334.303C331.587 334.342 331.615 334.413 331.6 334.484C331.584 334.554 331.528 334.611 331.457 334.627C330.926 334.753 330.167 334.897 329.471 334.897ZM328.444 333.339C328.351 333.339 328.272 333.353 328.21 333.384C328.161 333.409 328.102 333.455 328.086 333.593C328.051 333.877 328.117 334.089 328.29 334.241C328.681 334.588 329.661 334.634 330.955 334.376C330.133 333.884 329.021 333.339 328.444 333.339Z" fill="#FF9228"/>
<path d="M331.415 334.632C331.386 334.632 331.357 334.625 331.331 334.611C330.576 334.187 329.167 332.538 329.376 331.698C329.413 331.546 329.541 331.283 329.971 331.231C330.252 331.196 330.501 331.274 330.717 331.459C331.55 332.174 331.602 334.347 331.604 334.439C331.606 334.504 331.571 334.567 331.514 334.602C331.483 334.622 331.449 334.632 331.415 334.632ZM330.075 331.58C330.049 331.58 330.022 331.583 329.994 331.586C329.761 331.614 329.734 331.721 329.723 331.766C329.599 332.262 330.486 333.509 331.226 334.097C331.175 333.462 331.009 332.195 330.476 331.737C330.353 331.631 330.222 331.58 330.075 331.58Z" fill="#FF9228"/>
<path d="M302.917 333.653C302.181 333.831 301.479 333.884 301.031 333.641C300.746 333.487 300.582 333.229 300.544 332.878C300.521 332.668 300.592 332.485 300.747 332.348C301.553 331.631 304.815 332.402 305.185 332.492C305.257 332.51 305.308 332.572 305.311 332.648C305.314 332.724 305.27 332.795 305.199 332.828C304.594 333.102 303.734 333.455 302.917 333.653ZM301.291 332.465C301.154 332.498 301.046 332.545 300.975 332.608C300.912 332.664 300.889 332.728 300.899 332.82C300.925 333.058 301.029 333.224 301.215 333.326C301.746 333.615 302.979 333.386 304.566 332.722C303.451 332.488 301.993 332.294 301.291 332.465Z" fill="#FF9228"/>
<path d="M305.166 332.838C305.141 332.844 305.116 332.844 305.091 332.841C304.122 332.661 302.052 331.511 302.033 330.65C302.028 330.449 302.123 330.173 302.597 330.009C302.941 329.88 303.295 329.906 303.627 330.069C304.714 330.605 305.282 332.525 305.306 332.606C305.323 332.666 305.307 332.732 305.263 332.781C305.236 332.81 305.202 332.829 305.166 332.838ZM302.801 330.312C302.767 330.32 302.732 330.332 302.696 330.343C302.386 330.452 302.389 330.579 302.389 330.621C302.401 331.137 303.838 332.087 304.853 332.407C304.651 331.855 304.165 330.741 303.453 330.39C303.239 330.284 303.024 330.258 302.801 330.312Z" fill="#FF9228"/>
<path d="M290.778 124.372L280.35 129.172L279.14 132.114L282.994 134.707C282.994 134.707 290.186 133.924 292.235 129.303L290.778 124.372Z" fill="#E58A7B"/>
<path d="M291.222 130.596C290.57 126.722 289.296 124.955 289.284 124.938L290.928 123.705C290.992 123.79 292.503 125.83 293.249 130.255L291.222 130.596Z" fill="#342C21"/>
<path d="M292.998 125.791C293.336 126.628 292.793 127.636 291.784 128.044C290.775 128.452 289.684 128.104 289.346 127.267C289.008 126.43 289.551 125.422 290.56 125.014C291.568 124.607 292.66 124.954 292.998 125.791Z" fill="#342C21"/>
<path d="M273.304 133.048L274.689 134.451L284.046 130.449L280.35 129.173L273.304 133.048Z" fill="#E58A7B"/>
<path opacity="0.2" d="M313.49 315.826C313.546 315.803 314.914 319.654 314.914 319.654L301.07 325.467L298.889 321.412L313.49 315.826Z" fill="black"/>
<path opacity="0.2" d="M341.78 320.677C341.839 320.677 342.241 324.531 342.241 324.531H327.084L326.002 320.107L341.78 320.677Z" fill="black"/>
<path d="M339.441 84.4389C342.192 93.3059 331.481 105.419 331.481 105.419L316.633 99.3589C316.633 99.3589 318.725 92.9169 322.706 84.2859C327.232 74.4769 336.664 75.4899 339.441 84.4389Z" fill="#FF9228"/>
<path opacity="0.2" d="M339.441 84.4389C342.192 93.3059 331.481 105.419 331.481 105.419L316.633 99.3589C316.633 99.3589 318.725 92.9169 322.706 84.2859C327.232 74.4769 336.664 75.4899 339.441 84.4389Z" fill="black"/>
<path d="M272.613 0.19397H154.614L143.629 245.913H261.628L272.613 0.19397Z" fill="#FF9228"/>
<path opacity="0.56" d="M269.09 3.56592H151.091L140.107 249.285H258.106L269.09 3.56592Z" fill="#FAFAFA"/>
<path opacity="0.07" d="M265.567 6.93799H147.569L136.584 252.657H254.583L265.567 6.93799Z" fill="#FF9228"/>
<path d="M252.136 114.106H151.419L150.578 132.912H251.296L252.136 114.106Z" fill="white"/>
<path d="M206.815 100.39H152.032L151.656 108.804H206.438L206.815 100.39Z" fill="#FF9228"/>
<path d="M249.868 164.849H149.15L148.309 183.655H249.027L249.868 164.849Z" fill="white"/>
<path opacity="0.47" d="M231.398 209.036H163.669L162.662 231.575H230.39L231.398 209.036Z" fill="#FF9228"/>
<path d="M226.868 235.066H159.14C159.108 235.066 159.077 235.052 159.054 235.029C159.032 235.006 159.02 234.974 159.022 234.942L160.03 212.403C160.032 212.339 160.085 212.289 160.148 212.289H227.876C227.908 212.289 227.939 212.303 227.962 212.326C227.984 212.349 227.996 212.381 227.994 212.413L226.986 234.952C226.984 235.016 226.931 235.066 226.868 235.066ZM159.264 234.828H226.754L227.75 212.527H160.26L159.264 234.828Z" fill="white"/>
<path d="M194.978 151.134H149.763L149.387 159.548H194.601L194.978 151.134Z" fill="#FF9228"/>
<path d="M230.106 53.379C229.854 59.01 227.813 64.21 224.541 68.434C219.6 74.836 211.861 78.998 203.342 78.998C194.823 78.998 187.466 74.836 183.098 68.434C180.204 64.21 178.628 59.011 178.88 53.379C179.513 39.229 191.493 27.761 205.633 27.761C219.783 27.76 230.738 39.229 230.106 53.379Z" fill="white"/>
<path d="M232.515 33.1229C232.448 34.6189 231.906 36.0009 231.036 37.1229C229.723 38.8239 227.667 39.9299 225.403 39.9299C223.139 39.9299 221.185 38.8239 220.024 37.1229C219.255 36.0009 218.836 34.6189 218.903 33.1229C219.071 29.3629 222.255 26.3159 226.012 26.3159C229.772 26.3159 232.683 29.3629 232.515 33.1229Z" fill="#FF9228"/>
<path d="M162.265 123.509C162.191 125.173 160.781 126.522 159.117 126.522C157.453 126.522 156.164 125.173 156.238 123.509C156.312 121.845 157.722 120.496 159.386 120.496C161.051 120.495 162.34 121.845 162.265 123.509Z" fill="#342C21"/>
<path d="M175.752 123.509C175.678 125.173 174.268 126.522 172.604 126.522C170.94 126.522 169.651 125.173 169.725 123.509C169.799 121.845 171.209 120.496 172.873 120.496C174.537 120.496 175.827 121.845 175.752 123.509Z" fill="#342C21"/>
<path d="M189.24 123.509C189.166 125.173 187.756 126.522 186.092 126.522C184.428 126.522 183.139 125.173 183.213 123.509C183.287 121.845 184.697 120.496 186.361 120.496C188.025 120.495 189.314 121.845 189.24 123.509Z" fill="#342C21"/>
<path d="M159.997 174.252C159.923 175.916 158.513 177.265 156.849 177.265C155.185 177.265 153.896 175.916 153.97 174.252C154.044 172.588 155.454 171.238 157.118 171.238C158.782 171.239 160.071 172.588 159.997 174.252Z" fill="#342C21"/>
<path d="M173.484 174.252C173.41 175.916 172 177.265 170.336 177.265C168.672 177.265 167.383 175.916 167.457 174.252C167.531 172.588 168.941 171.238 170.605 171.238C172.27 171.239 173.558 172.588 173.484 174.252Z" fill="#342C21"/>
<path d="M186.971 174.252C186.897 175.916 185.487 177.265 183.823 177.265C182.159 177.265 180.87 175.916 180.944 174.252C181.018 172.588 182.428 171.238 184.092 171.238C185.756 171.238 187.046 172.588 186.971 174.252Z" fill="#342C21"/>
<path d="M200.459 174.252C200.385 175.916 198.975 177.265 197.311 177.265C195.647 177.265 194.358 175.916 194.432 174.252C194.506 172.588 195.916 171.238 197.58 171.238C199.244 171.239 200.533 172.588 200.459 174.252Z" fill="#342C21"/>
<path d="M213.946 174.252C213.872 175.916 212.462 177.265 210.798 177.265C209.134 177.265 207.845 175.916 207.919 174.252C207.993 172.588 209.403 171.238 211.067 171.238C212.731 171.239 214.02 172.588 213.946 174.252Z" fill="#342C21"/>
<path d="M215.236 44.816C214.98 50.538 210.134 55.177 204.411 55.177C198.689 55.177 194.257 50.538 194.513 44.816C194.769 39.093 199.615 34.455 205.338 34.455C211.06 34.455 215.492 39.094 215.236 44.816Z" fill="#FF9228"/>
<path d="M224.541 68.433C219.6 74.835 211.861 78.997 203.342 78.997C194.823 78.997 187.466 74.835 183.098 68.433C187.959 63.593 195.653 60.449 204.172 60.449C212.7 60.449 220.113 63.593 224.541 68.433Z" fill="#FF9228"/>
<path opacity="0.1" d="M215.236 44.816C214.98 50.538 210.134 55.177 204.411 55.177C198.689 55.177 194.257 50.538 194.513 44.816C194.769 39.093 199.615 34.455 205.338 34.455C211.06 34.455 215.492 39.094 215.236 44.816Z" fill="white"/>
<path opacity="0.1" d="M224.541 68.433C219.6 74.835 211.861 78.997 203.342 78.997C194.823 78.997 187.466 74.835 183.098 68.433C187.959 63.593 195.653 60.449 204.172 60.449C212.7 60.449 220.113 63.593 224.541 68.433Z" fill="white"/>
<path d="M77.4067 137.443C76.4597 139.52 75.4627 141.805 74.5877 144.034C73.7057 146.284 72.8257 148.536 72.0587 150.82C70.5687 155.388 69.1717 159.998 68.4837 164.621L68.2557 166.093C68.2377 166.27 68.2507 166.522 68.3287 166.838C68.4747 167.473 68.8707 168.323 69.4277 169.157C70.5537 170.844 72.1497 172.552 73.8707 174.138C75.5877 175.749 77.4527 177.29 79.3907 178.753C81.3097 180.229 83.3337 181.674 85.3137 183.028L83.4497 186.537C78.6917 184.457 74.2607 181.97 69.9687 178.849C67.8587 177.241 65.7747 175.51 63.9287 173.17C63.0187 171.99 62.1237 170.657 61.5377 168.897C61.2537 168.019 61.0557 167.026 61.0547 165.952C61.0617 165.705 61.0747 165.358 61.0917 165.192L61.1407 164.695L61.2407 163.701C61.7847 158.4 62.9587 153.305 64.5057 148.363C65.2857 145.895 66.1177 143.452 67.0677 141.055C68.0377 138.642 68.9947 136.326 70.2077 133.897L77.4067 137.443Z" fill="#E58A7B"/>
<path d="M83.9139 182.432L90.9799 178.847L89.1549 186.613C89.1549 186.613 84.3029 187.968 82.0459 185.614L83.9139 182.432Z" fill="#E58A7B"/>
<path d="M97.4508 180.122L95.5708 186.542L89.1538 186.614L90.9798 178.847L97.4508 180.122Z" fill="#E58A7B"/>
<path d="M107.432 100.001C107.432 100.001 108.045 102.255 109.017 103.954C108.182 104.734 107.432 104.463 107.432 104.463V100.001Z" fill="#DF5753"/>
<path d="M107.223 100.06C107.636 100.06 107.972 99.5469 107.972 98.9139C107.972 98.281 107.636 97.7679 107.223 97.7679C106.809 97.7679 106.474 98.281 106.474 98.9139C106.474 99.5469 106.809 100.06 107.223 100.06Z" fill="#342C21"/>
<path d="M107.04 97.803L108.56 97.365C108.56 97.365 107.78 98.553 107.04 97.803Z" fill="#342C21"/>
<path d="M87.8969 107.336C88.8099 111.991 89.7209 120.521 86.4629 123.627C86.4629 123.627 87.7359 128.349 96.3859 128.349C105.898 128.349 100.932 123.627 100.932 123.627C95.7409 122.387 95.8749 118.536 96.7789 114.919L87.8969 107.336Z" fill="#E58A7B"/>
<path d="M85.3724 96.742C85.8494 104.514 85.8854 107.813 89.8114 111.802C95.7154 117.802 105.156 115.516 107.011 107.759C108.68 100.776 107.619 89.24 100.012 86.147C92.5164 83.1 84.8944 88.97 85.3724 96.742Z" fill="#E58A7B"/>
<path d="M86.1385 87.948C82.2415 89.369 77.0425 88.312 79.0825 100.341C81.2425 113.078 77.9175 117.268 77.9175 117.268C77.9175 117.268 92.7095 120.419 107.809 117.08C107.809 117.08 103.199 109.018 104.493 103.135C106.143 95.632 104.835 92.859 104.835 92.859C104.835 92.859 91.6185 85.95 86.1385 87.948Z" fill="#342C21"/>
<path d="M102.64 100.792C102.624 102.332 103.164 103.883 103.864 104.96C104.917 106.581 106.167 105.921 106.48 104.238C106.762 102.724 106.553 100.056 105.204 99.021C103.876 98.003 102.659 99.032 102.64 100.792Z" fill="#E58A7B"/>
<path d="M82.7535 89.309C81.6285 86.164 86.9725 81.327 98.2705 83.339C109.569 85.351 110.065 94.747 110.065 94.747L107.779 92.034L107.882 94.891L96.2705 97.122L82.7535 89.309Z" fill="#342C21"/>
<path d="M83.7117 124.156C83.5557 123.195 84.2017 122.29 85.1617 122.132C88.6797 121.551 96.6757 120.375 100.701 120.932C103.691 121.346 104.482 123.092 104.608 124.52C104.702 125.579 103.826 126.472 102.764 126.424L85.3747 125.638C84.5397 125.6 83.8447 124.982 83.7117 124.156Z" fill="#FF9228"/>
<path opacity="0.6" d="M83.7117 124.156C83.5557 123.195 84.2017 122.29 85.1617 122.132C88.6797 121.551 96.6757 120.375 100.701 120.932C103.691 121.346 104.482 123.092 104.608 124.52C104.702 125.579 103.826 126.472 102.764 126.424L85.3747 125.638C84.5397 125.6 83.8447 124.982 83.7117 124.156Z" fill="black"/>
<path d="M93.7598 298.862L100.205 303.336L110.997 288.71L104.552 284.236L93.7598 298.862Z" fill="#E58A7B"/>
<path d="M78.7148 298.566L85.5329 302.449L95.0838 286.98L88.2668 283.098L78.7148 298.566Z" fill="#E58A7B"/>
<path d="M110.991 288.713L105.43 296.253L98.9834 291.777L104.544 284.237L110.991 288.713Z" fill="#CF6F64"/>
<path d="M88.2625 283.101L95.0824 286.985L90.1555 294.957L83.3354 291.073L88.2625 283.101Z" fill="#CF6F64"/>
<path d="M99.1975 172.988C99.1975 172.988 124.378 204.723 119.654 235.07C115.838 259.582 93.7405 292.773 93.7405 292.773L83.3505 287.609C83.3505 287.609 94.6395 265.551 102.053 242.168C105.162 232.362 103.837 221.559 98.0245 213.071C85.2695 194.441 64.8345 205.526 78.5805 172.989L99.1975 172.988Z" fill="#FF9228"/>
<path opacity="0.6" d="M99.1975 172.988C99.1975 172.988 124.378 204.723 119.654 235.07C115.838 259.582 93.7405 292.773 93.7405 292.773L83.3505 287.609C83.3505 287.609 94.6395 265.551 102.053 242.168C105.162 232.362 103.837 221.559 98.0245 213.071C85.2695 194.441 64.8345 205.526 78.5805 172.989L99.1975 172.988Z" fill="black"/>
<path opacity="0.4" d="M111.549 193.38L107.891 189.742C107.891 190.03 114.982 233.796 116.975 246.096C118.177 242.325 119.102 238.605 119.657 235.07C121.969 220.211 117.108 205.013 111.549 193.38Z" fill="black"/>
<path d="M110.444 172.988C110.444 172.988 140.763 212.868 141.616 236.783C142.331 256.821 108.591 295.528 108.591 295.528L98.7957 289.191C98.7957 289.191 118.525 261.674 123.492 239.18C121.598 216.915 80.9497 172.987 80.9497 172.987H110.444V172.988Z" fill="#FF9228"/>
<path opacity="0.6" d="M110.444 172.988C110.444 172.988 140.763 212.868 141.616 236.783C142.331 256.821 108.591 295.528 108.591 295.528L98.7957 289.191C98.7957 289.191 118.525 261.674 123.492 239.18C121.598 216.915 80.9497 172.987 80.9497 172.987H110.444V172.988Z" fill="black"/>
<path d="M72.9325 125.41C69.6855 126.176 66.5825 137.963 66.5825 137.963L79.2455 146.416C79.2455 146.416 83.4655 137.1 81.9925 133.019C80.4575 128.769 77.0325 124.443 72.9325 125.41Z" fill="#FF9228"/>
<path opacity="0.2" d="M75.4109 132.994L74.5259 143.263L79.2399 146.418C79.2399 146.418 81.4489 141.537 82.1069 137.283L75.4109 132.994Z" fill="black"/>
<path d="M114.193 125.637C114.193 125.637 117.93 126.953 110.444 172.988C97.7996 172.988 84.7326 172.988 78.5806 172.988C79.1156 160.02 79.1306 152.023 72.9326 125.41C72.9326 125.41 79.6086 123.958 86.4626 123.627C91.8246 123.369 96.2176 123.197 100.932 123.628C107.146 124.195 114.193 125.637 114.193 125.637Z" fill="#FF9228"/>
<path d="M117.429 132.947C118.151 134.942 118.915 137.1 119.71 139.172C120.473 141.275 121.265 143.374 122.082 145.464L124.534 151.745L125.154 153.315L125.465 154.1L125.621 154.492C125.648 154.562 125.643 154.556 125.633 154.549C125.59 154.53 125.553 154.332 124.933 153.925C124.629 153.736 124.119 153.554 123.627 153.544C123.132 153.526 122.74 153.647 122.515 153.745C122.064 153.96 122.057 154.053 122.067 154.038C122.096 154.023 122.189 153.934 122.291 153.811C122.728 153.286 123.256 152.381 123.719 151.481C124.192 150.564 124.639 149.584 125.084 148.59C125.969 146.597 126.774 144.517 127.593 142.434C128.403 140.345 129.166 138.225 129.922 136.099L132.198 129.717L136.051 130.688C135.289 135.253 134.303 139.724 133.128 144.211C132.554 146.459 131.89 148.688 131.131 150.938C130.753 152.065 130.33 153.189 129.844 154.335C129.339 155.49 128.838 156.629 127.944 157.952C127.709 158.287 127.443 158.641 127.072 159.031C126.68 159.415 126.227 159.879 125.25 160.318C124.764 160.527 124.088 160.712 123.308 160.681C122.531 160.659 121.743 160.383 121.198 160.045C120.09 159.337 119.707 158.663 119.379 158.157C119.227 157.903 119.097 157.641 119.007 157.452L118.817 157.064L118.437 156.288L117.681 154.735C116.693 152.654 115.725 150.562 114.808 148.447C113.9 146.327 113.015 144.195 112.157 142.047C111.336 139.866 110.524 137.753 109.801 135.433L117.429 132.947Z" fill="#E58A7B"/>
<path d="M114.193 125.637C118.023 126.549 122.326 137.865 122.326 137.865L110.944 147.564C110.944 147.564 103.567 135.225 105.06 131.151C106.614 126.908 109.19 124.445 114.193 125.637Z" fill="#FF9228"/>
<path d="M133.976 126.189L137.971 122.848L140.75 127.177L138.703 130.792C138.703 130.792 135.443 133.776 132.557 132.258C131.625 130.145 132.204 127.671 133.976 126.189Z" fill="#E58A7B"/>
<path d="M145.222 122.858L144.923 123.947L138.594 125.01L137.97 122.848L145.222 122.858Z" fill="#E58A7B"/>
<path d="M109.402 296.053L97.9829 288.667L100.028 285.111L112.861 293L109.402 296.053Z" fill="#FF9228"/>
<path d="M89.9826 301.926C89.0746 301.926 87.8796 301.35 87.1556 300.948C87.0906 300.912 87.0536 300.841 87.0616 300.766C87.0686 300.693 87.1196 300.631 87.1896 300.607C87.4976 300.51 90.2066 299.68 90.9736 300.324C91.0946 300.426 91.2296 300.614 91.1866 300.927C91.1306 301.342 90.9406 301.635 90.6226 301.793C90.4386 301.885 90.2206 301.926 89.9826 301.926ZM87.7336 300.835C88.9756 301.467 89.9756 301.7 90.4566 301.461C90.6616 301.359 90.7796 301.168 90.8196 300.877C90.8406 300.72 90.7856 300.651 90.7346 300.609C90.3316 300.27 88.8296 300.534 87.7336 300.835Z" fill="#342C21"/>
<path d="M87.2466 300.97C87.1966 300.97 87.1486 300.95 87.1136 300.914C87.0676 300.866 87.0506 300.798 87.0686 300.734C87.0946 300.642 87.7186 298.47 88.7456 297.975C89.0196 297.844 89.2976 297.837 89.5696 297.95C90.0016 298.132 90.0446 298.448 90.0296 298.619C89.9596 299.518 88.1266 300.76 87.2906 300.964C87.2766 300.968 87.2616 300.97 87.2466 300.97ZM89.1846 298.243C89.0926 298.243 88.9996 298.266 88.9056 298.311C88.2936 298.606 87.7796 299.778 87.5336 300.491C88.4136 300.121 89.6146 299.139 89.6576 298.591C89.6646 298.502 89.6446 298.386 89.4236 298.294C89.3446 298.26 89.2646 298.243 89.1846 298.243Z" fill="#342C21"/>
<path d="M104.268 306.247C103.142 306.247 101.572 304.8 100.713 303.911C100.658 303.854 100.645 303.769 100.68 303.698C100.716 303.628 100.806 303.588 100.87 303.597C101.266 303.648 104.744 304.118 105.235 305.1C105.329 305.29 105.321 305.492 105.212 305.685C105.028 306.009 104.761 306.195 104.42 306.238C104.371 306.244 104.32 306.247 104.268 306.247ZM101.371 304.045C102.635 305.273 103.739 305.953 104.374 305.868C104.596 305.84 104.764 305.721 104.889 305.501C104.937 305.417 104.941 305.343 104.902 305.266C104.635 304.732 102.778 304.271 101.371 304.045Z" fill="#342C21"/>
<path d="M101.481 304.014C101.224 304.014 100.994 303.998 100.813 303.964C100.749 303.952 100.695 303.907 100.672 303.846C100.65 303.784 100.661 303.714 100.703 303.663C100.76 303.594 102.113 301.963 103.391 301.851C103.791 301.82 104.13 301.926 104.42 302.174C104.813 302.511 104.786 302.811 104.694 303.003C104.377 303.669 102.649 304.014 101.481 304.014ZM101.223 303.639C102.34 303.701 104.126 303.33 104.359 302.843C104.379 302.802 104.438 302.678 104.179 302.457C103.963 302.272 103.713 302.195 103.424 302.221C102.585 302.295 101.648 303.185 101.223 303.639Z" fill="#342C21"/>
<path d="M87.5205 299.918L79.0385 297.52C78.7295 297.433 78.4185 297.576 78.2905 297.865L75.4275 304.302C75.1305 304.97 75.5425 305.798 76.2585 305.987C79.2295 306.772 80.7035 307.001 84.4335 308.056C86.7285 308.705 90.0135 309.891 93.1825 310.786C96.2815 311.662 97.4055 308.596 96.1665 307.939C90.6095 304.994 90.1715 302.975 88.6515 300.738C88.3775 300.335 87.9725 300.046 87.5205 299.918Z" fill="#FF9228"/>
<path d="M100.944 302.743L93.7036 297.716C93.4396 297.533 93.0996 297.568 92.8836 297.799L88.0816 302.955C87.5836 303.49 87.7046 304.407 88.3196 304.818C90.8736 306.527 92.1936 307.223 95.3776 309.434C97.3366 310.794 101.247 313.81 103.952 315.688C106.598 317.525 108.658 314.991 107.7 313.967C103.404 309.375 102.456 306.497 101.747 303.886C101.618 303.416 101.329 303.01 100.944 302.743Z" fill="#FF9228"/>
<path d="M95.0746 293.436L82.0176 286.947L83.3696 283.414L97.3056 290.245L95.0746 293.436Z" fill="#FF9228"/>
<path d="M78.1038 171.118L76.9988 173.97C76.8868 174.191 77.1488 174.417 77.5178 174.417H110.601C110.888 174.417 111.126 174.276 111.144 174.096L111.431 171.244C111.451 171.046 111.202 170.879 110.888 170.879H78.6218C78.3858 170.879 78.1758 170.976 78.1038 171.118Z" fill="#FF9228"/>
<path opacity="0.4" d="M78.1038 171.118L76.9988 173.97C76.8868 174.191 77.1488 174.417 77.5178 174.417H110.601C110.888 174.417 111.126 174.276 111.144 174.096L111.431 171.244C111.451 171.046 111.202 170.879 110.888 170.879H78.6218C78.3858 170.879 78.1758 170.976 78.1038 171.118Z" fill="white"/>
<path d="M83.3067 174.726H82.4426C82.2706 174.726 82.1396 174.637 82.1516 174.529L82.5567 170.824C82.5687 170.716 82.7186 170.627 82.8916 170.627H83.7556C83.9276 170.627 84.0586 170.716 84.0466 170.824L83.6416 174.529C83.6296 174.638 83.4787 174.726 83.3067 174.726Z" fill="#FF9228"/>
<path d="M103.714 174.726H102.85C102.678 174.726 102.547 174.637 102.559 174.529L102.964 170.824C102.976 170.716 103.126 170.627 103.299 170.627H104.163C104.335 170.627 104.466 170.716 104.454 170.824L104.049 174.529C104.037 174.638 103.886 174.726 103.714 174.726Z" fill="#FF9228"/>
<path d="M82.5459 344.087C97.3422 344.087 109.337 343.217 109.337 342.143C109.337 341.069 97.3422 340.199 82.5459 340.199C67.7496 340.199 55.7549 341.069 55.7549 342.143C55.7549 343.217 67.7496 344.087 82.5459 344.087Z" fill="#F5F5F5"/>
<path d="M98.8729 339.4C94.1329 338.024 88.9159 336.251 85.6879 334.366C85.5979 334.314 85.5029 334.276 85.4119 334.228V312.799H94.9459C96.5229 312.799 97.8009 311.521 97.8009 309.944C97.8009 308.368 96.5229 307.09 94.9459 307.09H85.4119V209.267H79.7029V307.09H70.1689C68.5929 307.09 67.3149 308.368 67.3149 309.944C67.3149 311.521 68.5929 312.799 70.1689 312.799H79.7029V334.227C79.6119 334.275 79.5169 334.312 79.4269 334.365C76.1989 336.25 70.9819 338.023 66.2419 339.399C64.6869 339.85 65.0149 342.141 66.6339 342.141H82.5569H98.4799C100.1 342.142 100.428 339.851 98.8729 339.4Z" fill="#E0E0E0"/>
<path d="M100.34 220.247H64.7747C61.9257 220.247 59.5947 217.916 59.5947 215.067V204.494C59.5947 201.645 61.9257 199.314 64.7747 199.314H100.34C103.189 199.314 105.52 201.645 105.52 204.494V215.067C105.52 217.916 103.189 220.247 100.34 220.247Z" fill="#FF9228"/>
<path d="M64.4478 220.247V222.067C64.4478 223.567 66.0808 224.795 68.0758 224.795H97.0388C99.0338 224.795 100.667 223.568 100.667 222.067V220.247H64.4478Z" fill="#FF9228"/>
<path opacity="0.3" d="M64.4478 220.247V222.067C64.4478 223.567 66.0808 224.795 68.0758 224.795H97.0388C99.0338 224.795 100.667 223.568 100.667 222.067V220.247H64.4478Z" fill="white"/>
</svg>
