<svg width="500" height="374" viewBox="0 0 500 374" fill="none" xmlns="http://www.w3.org/2000/svg">
<path d="M449.901 344.494H416.779V344.744H449.901V344.494Z" fill="#EBEBEB"/>
<path d="M331.22 347.208H322.527V347.458H331.22V347.208Z" fill="#EBEBEB"/>
<path d="M415.778 335.208H396.586V335.458H415.778V335.208Z" fill="#EBEBEB"/>
<path d="M95.652 336.888H52.459V337.138H95.652V336.888Z" fill="#EBEBEB"/>
<path d="M110.889 336.888H104.556V337.138H110.889V336.888Z" fill="#EBEBEB"/>
<path d="M225.147 341.111H131.471V341.361H225.147V341.111Z" fill="#EBEBEB"/>
<path d="M500 328.398H0V328.648H500V328.398Z" fill="#EBEBEB"/>
<path d="M75.6549 94.004H166.348C177.966 94.004 180.77 77.737 169.796 73.92C169.656 73.871 169.515 73.824 169.373 73.778C181.51 63.665 154.878 42.343 125.951 71.865C128.205 62.022 102.494 65.578 94.6269 79.009C91.8329 70.19 67.3119 85.51 75.6549 94.004Z" fill="#E6E6E6"/>
<path d="M318.231 53.453H372.607C372.607 53.453 385.359 48.65 383.71 35.931C382.061 23.211 362.809 33.81 362.809 33.81C362.809 33.81 368.645 16.063 350.001 21.098C331.358 26.133 329.541 43.728 329.541 43.728C329.541 43.728 305.055 39.452 318.231 53.453Z" fill="#EBEBEB"/>
<path d="M368.189 89.232H404.089C404.089 89.232 412.508 86.061 411.419 77.664C410.33 69.266 397.62 76.263 397.62 76.263C397.62 76.263 401.473 64.546 389.164 67.871C376.856 71.195 375.656 82.811 375.656 82.811C375.656 82.811 359.49 79.989 368.189 89.232Z" fill="#EBEBEB"/>
<path d="M361.29 271.214L361.188 260.592L361.184 259.948L361.092 250.484L361.088 249.878L361.002 240.876L360.992 240.29L360.914 231.718L360.906 231.163L360.828 222.984L360.823 222.463L360.744 214.646L360.743 214.149L360.67 206.681L360.665 206.198L360.608 200.019C360.302 200.208 359.956 200.374 359.573 200.496L359.612 205.715L352.994 205.748L358.326 200.862C357.814 200.962 357.25 201.039 356.664 201.061L352.263 205.078L352.339 200.363C351.944 200.197 351.59 199.997 351.308 199.764L351.195 206.242L351.193 206.725L351.066 214.193L351.058 214.701L350.915 222.496L350.912 223.028L350.774 231.196L350.765 231.751L350.612 240.323L350.606 240.909L350.454 249.89L350.44 250.506L350.271 259.959L350.26 260.603L350.078 271.215L349.157 317.021L361.924 317.171L361.29 271.214ZM359.962 269.228L352.274 260.921H359.91L359.962 269.228ZM359.84 259.931L352.226 259.941L359.784 252.005L359.84 259.931ZM359.922 248.26L352.605 240.76L359.877 240.739L359.922 248.26ZM359.833 239.731L352.586 239.752L359.793 232.536L359.833 239.731ZM359.778 229.804L352.803 222.993L359.737 222.972L359.778 229.804ZM359.726 221.929L352.805 221.961L359.674 215.383L359.726 221.929ZM359.61 206.777L359.647 213.006L352.98 206.81L359.61 206.777ZM352.093 208.199L358.759 214.422L352.001 214.444L352.093 208.199ZM351.987 215.501L358.751 215.469L351.894 222.014L351.987 215.501ZM351.845 224.606L358.82 231.428L351.755 231.449L351.845 224.606ZM351.754 232.473L358.844 232.452L351.65 239.628L351.754 232.473ZM351.615 242.401L358.939 249.928L351.508 249.938L351.615 242.401ZM351.535 250.938L358.991 250.928L351.431 258.831L351.535 250.938ZM351.492 261.395L359.183 269.743H351.371L351.492 261.395Z" fill="#EBEBEB"/>
<path d="M360.534 198.945L360.016 198.956L359.655 198.623L356.604 201.417C357.19 201.395 357.753 201.317 358.265 201.218L359.506 200.077L359.511 200.852C359.893 200.73 360.239 200.564 360.545 200.376L360.534 198.945ZM351.273 199.001L351.253 200.122C351.534 200.355 351.888 200.554 352.282 200.72L352.304 199.001H351.273Z" fill="#EBEBEB"/>
<path d="M362.032 198.111C362.117 198.645 361.925 199.167 361.496 199.633L361.139 199.966C360.965 200.11 360.757 200.254 360.543 200.376C360.237 200.564 359.891 200.731 359.509 200.852C359.12 201.007 358.705 201.129 358.263 201.217C357.751 201.317 357.188 201.394 356.602 201.416C356.533 201.427 356.454 201.427 356.387 201.427L355.848 201.438C354.465 201.416 353.229 201.15 352.281 200.719C351.887 200.553 351.533 200.353 351.252 200.121C351.222 200.099 351.193 200.077 351.163 200.055L350.831 199.733C350.421 199.289 350.248 198.778 350.345 198.255L351.105 194L349.094 194.034L356.089 190.48L363.376 193.799L361.331 193.833L362.032 198.111Z" fill="#EBEBEB"/>
<path d="M394.118 203.452L394.388 317.02H402.631H450.53H458.773L459.135 203.452H394.118Z" fill="#EBEBEB"/>
<path d="M406.688 189L406.719 214.323H411.821H441.468H446.57L446.623 189H406.688Z" fill="#EBEBEB"/>
<path d="M406.643 214.323H398.223L398.207 206.735H406.633L406.643 214.323Z" fill="#FAFAFA"/>
<path d="M422.795 206.735H414.373V214.323H422.795V206.735Z" fill="#FAFAFA"/>
<path d="M438.953 206.735H430.53V214.323H438.953V206.735Z" fill="#FAFAFA"/>
<path d="M455.099 214.323H446.68L446.696 206.735H455.122L455.099 214.323Z" fill="#F0F0F0"/>
<path d="M406.532 228.147H398.307L398.292 220.746H406.522L406.532 228.147Z" fill="#F0F0F0"/>
<path d="M422.661 220.746H414.434V228.147H422.661V220.746Z" fill="#F0F0F0"/>
<path d="M438.795 220.746H430.568V228.147H438.795V220.746Z" fill="#FAFAFA"/>
<path d="M454.919 228.147H446.694L446.71 220.746H454.94L454.919 228.147Z" fill="#FAFAFA"/>
<path d="M406.464 241.634H398.428L398.414 234.412H406.453L406.464 241.634Z" fill="#F0F0F0"/>
<path d="M422.574 234.412H414.536V241.634H422.574V234.412Z" fill="#FAFAFA"/>
<path d="M438.689 234.412H430.651V241.634H438.689V234.412Z" fill="#FAFAFA"/>
<path d="M422.749 195.715H414.164V203.451H422.749V195.715Z" fill="#FAFAFA"/>
<path d="M438.911 195.715H430.326V203.451H438.911V195.715Z" fill="#F0F0F0"/>
<path d="M454.794 241.634H446.758L446.775 234.412H454.814L454.794 241.634Z" fill="#F0F0F0"/>
<path d="M406.437 254.797H398.587L398.574 247.749H406.426L406.437 254.797Z" fill="#FAFAFA"/>
<path d="M422.532 247.749H414.681V254.797H422.532V247.749Z" fill="#F0F0F0"/>
<path d="M438.629 254.797H430.778L430.785 247.749H438.638L438.629 254.797Z" fill="#F0F0F0"/>
<path d="M454.724 254.797H446.874L446.891 247.749H454.744L454.724 254.797Z" fill="#FAFAFA"/>
<path d="M406.791 269.597H398.042L398.023 261.755H406.781L406.791 269.597Z" fill="#F0F0F0"/>
<path d="M422.854 269.597H414.105L414.097 261.755H422.855L422.854 269.597Z" fill="#FAFAFA"/>
<path d="M438.917 269.597H430.168L430.171 261.755H438.929L438.917 269.597Z" fill="#FAFAFA"/>
<path d="M454.98 269.597H446.231L446.245 261.755H455.004L454.98 269.597Z" fill="#F0F0F0"/>
<path d="M406.838 282.1H398.29L398.274 274.441H406.829L406.838 282.1Z" fill="#F0F0F0"/>
<path d="M422.897 274.441H414.345V282.1H422.897V274.441Z" fill="#FAFAFA"/>
<path d="M438.96 274.441H430.408V282.1H438.96V274.441Z" fill="#F0F0F0"/>
<path d="M455.011 282.1H446.463L446.479 274.441H455.035L455.011 282.1Z" fill="#FAFAFA"/>
<path d="M406.659 296.166H398.322L398.306 288.711H406.648L406.659 296.166Z" fill="#FAFAFA"/>
<path d="M422.687 288.711H414.348V296.166H422.687V288.711Z" fill="#FAFAFA"/>
<path d="M438.72 288.711H430.381V296.166H438.72V288.711Z" fill="#F0F0F0"/>
<path d="M454.743 296.166H446.406L446.422 288.711H454.764L454.743 296.166Z" fill="#F0F0F0"/>
<path d="M406.66 308.96H398.522L398.508 301.688H406.65L406.66 308.96Z" fill="#F0F0F0"/>
<path d="M454.713 308.96H446.576L446.592 301.688H454.734L454.713 308.96Z" fill="#FAFAFA"/>
<path d="M438.762 301.688H414.46L414.507 303.516H415.179L415.19 317.02H417.619L417.612 303.516H435.646L435.627 317.02H438.056L438.079 303.516H438.811L438.762 301.688Z" fill="#F5F5F5"/>
<path d="M426.734 317.02H417.73L417.725 303.516H426.742L426.734 317.02Z" fill="#E6E6E6"/>
<path d="M435.518 317.02H426.514L426.519 303.516H435.536L435.518 317.02Z" fill="#EBEBEB"/>
<path d="M394.211 239.581L394.394 317.02H384.058H323.997H313.661L312.921 239.581H394.211Z" fill="#F5F5F5"/>
<path d="M378.76 256.794H388.839L388.811 247.749H378.727L378.76 256.794Z" fill="#E6E6E6"/>
<path d="M358.65 256.794H368.728L368.685 247.749H358.601L358.65 256.794Z" fill="#E6E6E6"/>
<path d="M338.54 256.794H348.618L348.559 247.749H338.475L338.54 256.794Z" fill="#E6E6E6"/>
<path d="M318.43 256.794H328.508L328.433 247.749H318.349L318.43 256.794Z" fill="#E6E6E6"/>
<path d="M378.378 274.441H389.238L389.211 264.709H378.338L378.378 274.441Z" fill="#E6E6E6"/>
<path d="M358.306 274.441H369.166L369.122 264.709H358.249L358.306 274.441Z" fill="#E6E6E6"/>
<path d="M338.234 274.441H349.094L349.033 264.709H338.16L338.234 274.441Z" fill="#E6E6E6"/>
<path d="M318.162 274.441H329.021L328.944 264.709H318.071L318.162 274.441Z" fill="#E6E6E6"/>
<path d="M378.661 290.585H389.203L389.177 281.148H378.625L378.661 290.585Z" fill="#E6E6E6"/>
<path d="M358.608 290.585H369.15L369.107 281.148H358.555L358.608 290.585Z" fill="#E6E6E6"/>
<path d="M338.555 290.585H349.097L349.037 281.148H338.485L338.555 290.585Z" fill="#E6E6E6"/>
<path d="M318.502 290.585H329.043L328.967 281.148H318.415L318.502 290.585Z" fill="#E6E6E6"/>
<path d="M378.888 307.152H389.112L389.086 298.013H378.854L378.888 307.152Z" fill="#E6E6E6"/>
<path d="M318.811 307.152H329.036L328.961 298.013H318.729L318.811 307.152Z" fill="#E6E6E6"/>
<path d="M338.085 298.013H369.706L369.717 300.772H367.696L367.776 317.02H364.853L364.769 300.772H343.07L343.181 317.02H340.258L340.143 300.772H338.107L338.085 298.013Z" fill="#F5F5F5"/>
<path d="M354.087 317.02H364.923L364.841 300.772H353.992L354.087 317.02Z" fill="#E6E6E6"/>
<path d="M343.109 317.02H353.945L353.847 300.772H342.997L343.109 317.02Z" fill="#EBEBEB"/>
<path d="M152.096 173.295C152.096 172.08 152.096 170.865 152.096 169.649C152.096 169.089 151.226 169.088 151.226 169.649C151.226 170.983 151.226 172.317 151.226 173.651C151.226 173.904 151.426 174.062 151.661 174.086C153.034 174.224 154.037 175.931 152.897 177.071C151.804 178.164 150.06 177.304 149.912 175.835C149.856 175.283 148.986 175.278 149.042 175.835C149.26 177.996 151.788 179.429 153.512 177.686C155.112 176.07 154.014 173.779 152.096 173.295Z" fill="#EBEBEB"/>
<path d="M88.002 147.123V155.025L79.69 146.713L79.28 147.123H78.7V156.425V157.005V165.727V166.307V175.029V175.609V184.331V184.911V193.633V194.213V202.935V203.515V212.237V212.817V222.119H89.162V212.817V212.237V203.515V202.935V194.213V193.633V184.911V184.331V175.609V175.029V166.307V165.727V157.005V156.425V147.123H88.002ZM79.859 204.335L87.181 211.657H79.859V204.335ZM79.859 185.731L87.181 193.053H79.859V185.731ZM79.859 167.127L87.181 174.449H79.859V167.127ZM79.859 148.523L87.181 155.845H79.859V148.523ZM87.182 157.005L79.86 164.327V157.005H87.182ZM88.002 157.825V165.147H80.68L88.002 157.825ZM87.182 175.609L79.86 182.931V175.609H87.182ZM88.002 176.429V183.751H80.68L88.002 176.429ZM87.182 194.213L79.86 201.535V194.213H87.182ZM88.002 195.033V202.355H80.68L88.002 195.033ZM87.182 212.817L79.86 220.139V212.817H87.182ZM80.679 220.96L88.001 213.638V220.96H80.679ZM88.002 210.837L80.68 203.515H88.002V210.837ZM88.002 192.233L80.68 184.911H88.002V192.233ZM88.002 173.629L80.68 166.307H88.002V173.629Z" fill="#F0F0F0"/>
<path d="M79.863 122.421V129.398V129.978V136.954H81.023V131.377L87.01 137.363L87.42 136.953H88V129.977V129.397V122.42H79.863V122.421ZM86.019 123.581L81.022 128.578V123.581H86.019ZM86.839 135.554L81.842 130.557H86.839V135.554ZM81.842 129.397L86.839 124.4V129.397H81.842Z" fill="#F0F0F0"/>
<path d="M60.766 147.123H46.813V161.076H60.766V147.123Z" fill="#E6E6E6"/>
<path d="M151.847 167.249H151.074V140.425L86.1029 118.88H81.8049L47.0159 140.475L46.6089 139.818L81.5849 118.107H86.2279L86.2879 118.127L151.847 139.867V167.249Z" fill="#E6E6E6"/>
<path d="M143.904 147.726H144.701L152.861 139.566H144.485H143.905H137.509H136.929H130.532H129.952H123.556H122.976H116.579H115.999H109.603H109.023H102.626H102.046H95.6499H95.0699H88.6729H88.0929H81.6959H81.1159H74.7189H74.1389H67.7419H67.1619H60.7649H60.1849H53.7879H53.2079H46.2319V147.702H53.2079H53.7879H60.1849H60.7649H67.1619H67.7419H74.1389H74.7189H81.1159H81.6959H88.0929H88.6729H95.0699H95.6499H102.046H102.626H109.023H109.603H115.999H116.579H122.976H123.556H129.952H130.532H136.929H137.509H143.905L143.904 147.726ZM145.064 140.726H150.061L145.064 145.723V140.726ZM47.3929 146.543V141.546L52.3899 146.543H47.3929ZM53.2089 145.723L48.2119 140.726H53.2089V145.723ZM54.3689 140.726H59.3659L54.3689 145.723V140.726ZM60.1859 146.543H55.1889L60.1859 141.546V146.543ZM61.3459 146.543V141.546L66.3429 146.543H61.3459ZM67.1619 145.723L62.1649 140.726H67.1619V145.723ZM68.3219 140.726H73.3189L68.3219 145.723V140.726ZM74.1389 146.543H69.1419L74.1389 141.546V146.543ZM75.2989 146.543V141.546L80.2959 146.543H75.2989ZM81.1149 145.723L76.1179 140.726H81.1149V145.723ZM82.2749 140.726H87.2719L82.2749 145.723V140.726ZM88.0919 146.543H83.0949L88.0919 141.546V146.543ZM89.2519 146.543V141.546L94.2489 146.543H89.2519ZM95.0679 145.723L90.0709 140.726H95.0679V145.723ZM96.2279 140.726H101.225L96.2279 145.723V140.726ZM102.045 146.543H97.0479L102.045 141.546V146.543ZM103.205 146.543V141.546L108.202 146.543H103.205ZM109.022 145.723L104.025 140.726H109.022V145.723ZM110.181 140.726H115.178L110.181 145.723V140.726ZM115.998 146.543H111.001L115.998 141.546V146.543ZM117.158 146.543V141.546L122.155 146.543H117.158ZM122.975 145.723L117.978 140.726H122.975V145.723ZM124.134 140.726H129.131L124.134 145.723V140.726ZM129.951 146.543H124.954L129.951 141.546V146.543ZM131.111 140.726H136.108L131.111 145.723V140.726ZM136.928 146.543H131.931L136.928 141.546V146.543ZM138.088 146.543V141.546L143.085 146.543H138.088ZM138.908 140.726H143.905V145.723L138.908 140.726Z" fill="#F0F0F0"/>
<path d="M94.319 150.291H72.863L73.648 141.262C73.86 138.824 75.901 136.953 78.348 136.953H88.57C90.965 136.953 92.98 138.748 93.256 141.127L94.319 150.291Z" fill="#F0F0F0"/>
<path d="M80.443 140.703H76.323V144.823H80.443V140.703Z" fill="#FAFAFA"/>
<path d="M85.652 140.703H81.532V144.823H85.652V140.703Z" fill="#FAFAFA"/>
<path d="M90.86 140.703H86.74V144.823H90.86V140.703Z" fill="#FAFAFA"/>
<path d="M86.7399 120.191C86.7399 121.743 85.4819 123.001 83.9299 123.001C82.3779 123.001 81.1199 121.743 81.1199 120.191C81.1199 118.639 82.3779 117.382 83.9299 117.382C85.4819 117.381 86.7399 118.639 86.7399 120.191Z" fill="#E6E6E6"/>
<path d="M151.66 172.049C150.334 172.049 149.26 170.975 149.26 169.649V167.249H154.06V169.649C154.061 170.975 152.986 172.049 151.66 172.049Z" fill="#E6E6E6"/>
<path d="M38.04 203.452L39.903 317.02H48.146H96.045H104.288L103.057 203.452H38.04Z" fill="#F5F5F5"/>
<path d="M42.1011 206.735L42.3251 220.556L42.3861 224.353L42.4471 228.147H50.8821L50.8241 224.353L50.7651 220.556L50.5531 206.735H42.1011Z" fill="#E6E6E6"/>
<path d="M58.2629 206.735L58.4669 220.556L58.5229 224.353L58.5789 228.147H67.0129L66.9599 224.353L66.9079 220.556L66.7149 206.735H58.2629Z" fill="#E6E6E6"/>
<path d="M74.4241 206.735L74.6091 220.556L74.6591 224.353L74.7101 228.147H83.1451L83.0971 224.353L83.0491 220.556L82.8761 206.735H74.4241Z" fill="#E6E6E6"/>
<path d="M90.5859 206.735L90.7509 220.556L90.8209 226.422L90.8409 228.147H99.2759L99.2569 226.422L99.1919 220.556L99.0379 206.735H90.5859Z" fill="#E6E6E6"/>
<path d="M42.613 234.412L42.835 248.216L42.896 252.008L42.958 255.797H51.404L51.347 252.008L51.289 248.216L51.078 234.412H42.613Z" fill="#E6E6E6"/>
<path d="M58.729 234.412L58.932 248.216L59.011 253.562L59.044 255.797H67.49L67.459 253.562L67.385 248.216L67.194 234.412H58.729Z" fill="#E6E6E6"/>
<path d="M74.845 234.412L75.029 248.216L75.079 252.008L75.129 255.797H83.576L83.529 252.008L83.482 248.216L83.31 234.412H74.845Z" fill="#E6E6E6"/>
<path d="M90.9609 234.412L91.1249 248.216L91.1699 252.008L91.2149 255.797H99.6619L99.6209 252.008L99.5789 248.216L99.4269 234.412H90.9609Z" fill="#E6E6E6"/>
<path d="M43.093 261.755L43.314 275.5L43.375 279.276L43.436 283.049H51.869L51.812 279.276L51.754 275.5L51.545 261.755H43.093Z" fill="#E6E6E6"/>
<path d="M59.167 261.755L59.369 275.5L59.425 279.276L59.48 283.049H67.913L67.861 279.276L67.809 275.5L67.619 261.755H59.167Z" fill="#E6E6E6"/>
<path d="M75.241 261.755L75.424 275.5L75.474 279.276L75.524 283.049H83.957L83.911 279.276L83.864 275.5L83.693 261.755H75.241Z" fill="#E6E6E6"/>
<path d="M91.3159 261.755L91.4789 275.5L91.5409 280.716L91.5679 283.049H100.002L99.9759 280.716L99.9189 275.5L99.7679 261.755H91.3159Z" fill="#E6E6E6"/>
<path d="M96.0051 288.711H91.8342H84.0182H75.6752H67.8592H59.5172H43.3582L43.4792 296.166H59.6262H67.9632H75.7732H84.1102H91.9212H96.0891H100.257L100.176 288.711H96.0051Z" fill="#E6E6E6"/>
<path d="M84.013 301.688H59.711L59.687 303.516H60.418L60.62 317.02H63.049L62.851 303.516H80.885L81.057 317.02H83.485L83.318 303.516H83.991L84.013 301.688Z" fill="#FAFAFA"/>
<path d="M72.1622 317.02H63.1582L62.9622 303.516H71.9792L72.1622 317.02Z" fill="#E6E6E6"/>
<path d="M80.9461 317.02H71.9421L71.7561 303.516H80.7731L80.9461 317.02Z" fill="#E6E6E6"/>
<path d="M164.378 209.999L165.11 317.02H157.343H112.209H104.442L103.11 209.999H164.378Z" fill="#E6E6E6"/>
<path d="M142.737 290.585H146.048H160.895L160.92 294.011L160.945 297.435L161.037 309.862H153.352L153.25 297.09H145.746H142.795H138.47L138.411 290.585H142.737Z" fill="#F0F0F0"/>
<path d="M113.445 290.585H116.404H130.501L130.568 297.09H115.982L116.126 309.862H108.443L108.295 297.435L108.236 292.48L108.214 290.585H113.445Z" fill="#F0F0F0"/>
<path d="M124.178 302.603H145.089L145.106 304.427H145.336L145.443 317.02H143.177L143.067 304.427H126.25L126.383 317.02H124.118L123.982 304.427H124.196L124.178 302.603Z" fill="#F5F5F5"/>
<path d="M134.691 317.02H143.089L142.977 304.427H134.569L134.691 317.02Z" fill="#EBEBEB"/>
<path d="M126.47 317.02H134.867L134.747 304.427H126.339L126.47 317.02Z" fill="#E0E0E0"/>
<path d="M137.307 214.323H160.621L160.764 234.413H137.497L137.307 214.323Z" fill="#F0F0F0"/>
<path d="M107.086 214.323H130.4L130.595 234.413H107.329L107.086 214.323Z" fill="#F0F0F0"/>
<path d="M137.957 239.581H160.27L160.416 258.784H138.131L137.957 239.581Z" fill="#F0F0F0"/>
<path d="M107.787 239.581H130.1L130.296 258.784H108.012L107.787 239.581Z" fill="#F0F0F0"/>
<path d="M138.186 265.69H160.626L160.769 284.943H138.361L138.186 265.69Z" fill="#F0F0F0"/>
<path d="M108.106 265.69H130.546L130.74 284.943H108.332L108.106 265.69Z" fill="#F0F0F0"/>
<path d="M134.019 97.811C113.558 108.451 97.652 126.297 85.135 145.667C67.346 173.195 55.335 206.194 60.416 238.573C65.497 270.953 91.301 301.325 123.974 303.913C165.831 307.228 199.902 267.631 241.662 263.267C257.569 261.605 273.502 265.214 289.463 266.233C336.674 269.247 384.792 247.955 414.313 210.989C433.647 186.779 445.191 154.839 439.142 124.452C432.855 92.871 407.898 66.798 378.034 54.756C348.169 42.714 314.177 43.562 283.223 52.435C254.554 60.653 231.682 76.401 205.989 90.547C195.621 96.255 183.86 88.589 172.277 88.442C159.026 88.274 145.751 91.71 134.019 97.811Z" fill="#FF9228"/>
<path opacity="0.9" d="M134.019 97.811C113.558 108.451 97.652 126.297 85.135 145.667C67.346 173.195 55.335 206.194 60.416 238.573C65.497 270.953 91.301 301.325 123.974 303.913C165.831 307.228 199.902 267.631 241.662 263.267C257.569 261.605 273.502 265.214 289.463 266.233C336.674 269.247 384.792 247.955 414.313 210.989C433.647 186.779 445.191 154.839 439.142 124.452C432.855 92.871 407.898 66.798 378.034 54.756C348.169 42.714 314.177 43.562 283.223 52.435C254.554 60.653 231.682 76.401 205.989 90.547C195.621 96.255 183.86 88.589 172.277 88.442C159.026 88.274 145.751 91.71 134.019 97.811Z" fill="white"/>
<path d="M250 373.016C357.082 373.016 443.889 367.947 443.889 361.693C443.889 355.439 357.082 350.37 250 350.37C142.918 350.37 56.1111 355.439 56.1111 361.693C56.1111 367.947 142.918 373.016 250 373.016Z" fill="#F5F5F5"/>
<path d="M160.832 30.619L164.557 35.438H335.418L339.176 30.619H160.832Z" fill="#FF9228"/>
<g opacity="0.4">
<path d="M160.832 30.619L164.557 35.438H335.418L339.176 30.619H160.832Z" fill="black"/>
</g>
<path d="M335.463 24.407H164.209V327.988H335.463V24.407Z" fill="#FF9228"/>
<g opacity="0.4">
<path d="M335.463 24.407H164.209V327.988H335.463V24.407Z" fill="white"/>
</g>
<g opacity="0.8">
<path d="M171.153 31.881C171.35 33.854 169.976 35.446 168.085 35.446C166.194 35.446 164.488 33.854 164.273 31.881C164.058 29.898 165.429 28.284 167.338 28.284C169.247 28.284 170.955 29.898 171.153 31.881Z" fill="#F0F0F0"/>
<path d="M177.457 31.881C177.638 33.854 176.252 35.446 174.361 35.446C172.47 35.446 170.776 33.854 170.578 31.881C170.378 29.898 171.763 28.284 173.671 28.284C175.579 28.284 177.274 29.898 177.457 31.881Z" fill="#F0F0F0"/>
<path d="M183.76 31.881C183.926 33.854 182.526 35.446 180.635 35.446C178.744 35.446 177.063 33.854 176.88 31.881C176.696 29.898 178.094 28.284 180.002 28.284C181.911 28.284 183.594 29.898 183.76 31.881Z" fill="#F0F0F0"/>
<path d="M190.064 31.881C190.214 33.854 188.802 35.446 186.911 35.446C185.02 35.446 183.352 33.854 183.185 31.881C183.017 29.898 184.427 28.284 186.336 28.284C188.244 28.284 189.913 29.898 190.064 31.881Z" fill="#F0F0F0"/>
<path d="M196.368 31.881C196.502 33.854 195.077 35.446 193.186 35.446C191.295 35.446 189.639 33.854 189.488 31.881C189.336 29.898 190.759 28.284 192.667 28.284C194.576 28.284 196.233 29.898 196.368 31.881Z" fill="#F0F0F0"/>
<path d="M202.672 31.881C202.79 33.854 201.353 35.446 199.462 35.446C197.571 35.446 195.928 33.854 195.793 31.881C195.657 29.898 197.092 28.284 199.001 28.284C200.908 28.284 202.552 29.898 202.672 31.881Z" fill="#F0F0F0"/>
<path d="M208.975 31.881C209.078 33.854 207.628 35.446 205.737 35.446C203.846 35.446 202.216 33.854 202.096 31.881C201.975 29.898 203.424 28.284 205.333 28.284C207.241 28.284 208.872 29.898 208.975 31.881Z" fill="#F0F0F0"/>
<path d="M215.279 31.881C215.366 33.854 213.903 35.446 212.012 35.446C210.121 35.446 208.504 33.854 208.399 31.881C208.294 29.898 209.756 28.284 211.664 28.284C213.573 28.284 215.191 29.898 215.279 31.881Z" fill="#F0F0F0"/>
<path d="M221.583 31.881C221.654 33.854 220.179 35.446 218.288 35.446C216.397 35.446 214.792 33.854 214.704 31.881C214.615 29.898 216.09 28.284 217.998 28.284C219.906 28.284 221.511 29.898 221.583 31.881Z" fill="#F0F0F0"/>
<path d="M227.886 31.881C227.942 33.854 226.453 35.446 224.562 35.446C222.671 35.446 221.079 33.854 221.006 31.881C220.933 29.898 222.42 28.284 224.329 28.284C226.238 28.284 227.83 29.898 227.886 31.881Z" fill="#F0F0F0"/>
<path d="M234.19 31.881C234.23 33.854 232.729 35.446 230.838 35.446C228.947 35.446 227.368 33.854 227.311 31.881C227.254 29.898 228.754 28.284 230.662 28.284C232.57 28.284 234.15 29.898 234.19 31.881Z" fill="#F0F0F0"/>
<path d="M240.494 31.881C240.518 33.854 239.005 35.446 237.114 35.446C235.223 35.446 233.656 33.854 233.615 31.881C233.573 29.898 235.086 28.284 236.995 28.284C238.903 28.284 240.469 29.898 240.494 31.881Z" fill="#F0F0F0"/>
<path d="M246.797 31.881C246.805 33.854 245.279 35.446 243.388 35.446C241.497 35.446 239.943 33.854 239.917 31.881C239.891 29.898 241.417 28.284 243.326 28.284C245.235 28.284 246.789 29.898 246.797 31.881Z" fill="#F0F0F0"/>
<path d="M253.101 31.881C253.094 33.854 251.555 35.446 249.663 35.446C247.772 35.446 246.231 33.854 246.221 31.881C246.211 29.898 247.75 28.284 249.658 28.284C251.567 28.284 253.109 29.898 253.101 31.881Z" fill="#F0F0F0"/>
<path d="M259.405 31.881C259.382 33.854 257.83 35.446 255.939 35.446C254.048 35.446 252.519 33.854 252.525 31.881C252.531 29.898 254.083 28.284 255.991 28.284C257.9 28.284 259.428 29.898 259.405 31.881Z" fill="#F0F0F0"/>
<path d="M265.708 31.881C265.669 33.854 264.105 35.446 262.214 35.446C260.323 35.446 258.807 33.854 258.829 31.881C258.851 29.898 260.415 28.284 262.324 28.284C264.232 28.284 265.747 29.898 265.708 31.881Z" fill="#F0F0F0"/>
<path d="M272.012 31.881C271.958 33.854 270.381 35.446 268.489 35.446C266.598 35.446 265.095 33.854 265.132 31.881C265.169 29.898 266.747 28.284 268.655 28.284C270.564 28.284 272.067 29.898 272.012 31.881Z" fill="#F0F0F0"/>
<path d="M278.316 31.881C278.246 33.854 276.656 35.446 274.765 35.446C272.874 35.446 271.383 33.854 271.436 31.881C271.489 29.898 273.08 28.284 274.988 28.284C276.897 28.284 278.386 29.898 278.316 31.881Z" fill="#F0F0F0"/>
<path d="M284.62 31.881C284.534 33.854 282.932 35.446 281.041 35.446C279.15 35.446 277.672 33.854 277.741 31.881C277.81 29.898 279.413 28.284 281.322 28.284C283.229 28.284 284.706 29.898 284.62 31.881Z" fill="#F0F0F0"/>
<path d="M290.923 31.881C290.821 33.854 289.206 35.446 287.315 35.446C285.424 35.446 283.959 33.854 284.043 31.881C284.128 29.898 285.744 28.284 287.652 28.284C289.561 28.284 291.025 29.898 290.923 31.881Z" fill="#F0F0F0"/>
<path d="M297.227 31.881C297.11 33.854 295.482 35.446 293.591 35.446C291.7 35.446 290.247 33.854 290.348 31.881C290.449 29.898 292.077 28.284 293.986 28.284C295.894 28.284 297.345 29.898 297.227 31.881Z" fill="#F0F0F0"/>
<path d="M303.531 31.881C303.398 33.854 301.758 35.446 299.866 35.446C297.974 35.446 296.535 33.854 296.651 31.881C296.767 29.898 298.409 28.284 300.318 28.284C302.226 28.284 303.664 29.898 303.531 31.881Z" fill="#F0F0F0"/>
<path d="M309.834 31.881C309.685 33.854 308.032 35.446 306.141 35.446C304.25 35.446 302.823 33.854 302.954 31.881C303.086 29.898 304.741 28.284 306.649 28.284C308.559 28.284 309.984 29.898 309.834 31.881Z" fill="#F0F0F0"/>
<path d="M316.138 31.881C315.974 33.854 314.308 35.446 312.416 35.446C310.525 35.446 309.111 33.854 309.258 31.881C309.406 29.898 311.074 28.284 312.982 28.284C314.891 28.284 316.303 29.898 316.138 31.881Z" fill="#F0F0F0"/>
<path d="M322.442 31.881C322.262 33.854 320.583 35.446 318.692 35.446C316.801 35.446 315.399 33.854 315.562 31.881C315.726 29.898 317.406 28.284 319.315 28.284C321.223 28.284 322.623 29.898 322.442 31.881Z" fill="#F0F0F0"/>
<path d="M328.746 31.881C328.55 33.854 326.859 35.446 324.968 35.446C323.077 35.446 321.688 33.854 321.867 31.881C322.047 29.898 323.74 28.284 325.648 28.284C327.556 28.284 328.942 29.898 328.746 31.881Z" fill="#F0F0F0"/>
<path d="M335.049 31.881C334.837 33.854 333.134 35.446 331.242 35.446C329.351 35.446 327.975 33.854 328.169 31.881C328.364 29.898 330.071 28.284 331.979 28.284C333.888 28.284 335.262 29.898 335.049 31.881Z" fill="#F0F0F0"/>
</g>
<path d="M160.819 25.741H339.186L339.176 30.619H160.832L160.819 25.741Z" fill="#FF9228"/>
<path d="M160.806 20.861L164.532 25.74H335.439L339.197 20.861H160.806Z" fill="#FF9228"/>
<g opacity="0.4">
<path d="M160.806 20.861L164.532 25.74H335.439L339.197 20.861H160.806Z" fill="black"/>
</g>
<path d="M160.793 15.964H339.207L339.197 20.861H160.806L160.793 15.964Z" fill="#FF9228"/>
<path d="M164.519 20.861H335.449L335.439 25.74H164.532L164.519 20.861Z" fill="#FF9228"/>
<g opacity="0.8">
<path d="M164.519 20.861H335.449L335.439 25.74H164.532L164.519 20.861Z" fill="white"/>
</g>
<g opacity="0.7">
<path d="M335.501 121.813H164.256V123.963H335.501V121.813Z" fill="white"/>
</g>
<g opacity="0.8">
<path d="M335.495 228.517H164.613V230.657H335.495V228.517Z" fill="white"/>
</g>
<path d="M220.922 44.786H199.754V67.653H220.922V44.786Z" fill="#FF9228"/>
<path d="M261.579 44.786H240.411V67.653H261.579V44.786Z" fill="#FF9228"/>
<path d="M302.237 44.786H281.069V67.653H302.237V44.786Z" fill="#FF9228"/>
<path d="M220.922 79.028H199.754V101.895H220.922V79.028Z" fill="#FF9228"/>
<path d="M261.579 79.028H240.411V101.895H261.579V79.028Z" fill="#FF9228"/>
<path d="M302.237 79.028H281.069V101.895H302.237V79.028Z" fill="#FF9228"/>
<path d="M220.922 244.987H199.754V267.854H220.922V244.987Z" fill="#FF9228"/>
<path d="M261.579 244.987H240.411V267.854H261.579V244.987Z" fill="#FF9228"/>
<path d="M302.237 244.987H281.069V267.854H302.237V244.987Z" fill="#FF9228"/>
<path d="M198.242 293.135H177.074V316.002H198.242V293.135Z" fill="#FF9228"/>
<path d="M322.621 293.135H301.453V316.002H322.621V293.135Z" fill="#FF9228"/>
<path d="M220.922 141.978H199.754V164.845H220.922V141.978Z" fill="#FF9228"/>
<path d="M261.579 141.978H240.411V164.845H261.579V141.978Z" fill="#FF9228"/>
<path d="M302.237 141.978H281.069V164.845H302.237V141.978Z" fill="#FF9228"/>
<path d="M220.922 176.221H199.754V199.088H220.922V176.221Z" fill="#FF9228"/>
<path d="M261.579 176.221H240.411V199.088H261.579V176.221Z" fill="#FF9228"/>
<path d="M302.237 176.221H281.069V199.088H302.237V176.221Z" fill="#FF9228"/>
<g opacity="0.8">
<path d="M225.347 295.819H247.256L247.171 318.567H225.197L225.347 295.819Z" fill="white"/>
</g>
<g opacity="0.8">
<path d="M251.486 295.819H274.304L273.222 318.567H251.248L251.486 295.819Z" fill="white"/>
</g>
<path d="M277.793 323.152H219.98L219.745 318.567H278.007L277.793 323.152Z" fill="#FF9228"/>
<g opacity="0.1">
<path d="M277.793 323.152H219.98L219.745 318.567H278.007L277.793 323.152Z" fill="white"/>
</g>
<path d="M280.121 327.988H217.935L217.686 323.478H280.352L280.121 327.988Z" fill="#FF9228"/>
<g opacity="0.4">
<path d="M282.179 287.762H215.715L215.431 282.607H282.442L282.179 287.762Z" fill="white"/>
</g>
<path d="M215.715 287.762L225.347 295.819H274.304L282.179 287.762H215.715Z" fill="#263238"/>
<path d="M220.223 291.533L223.62 318.568H226.321L225.234 291.533C223.677 290.716 221.707 290.716 220.223 291.533Z" fill="#FF9228"/>
<path d="M278.616 291.533L275.288 318.568H272.587L273.605 291.533C275.091 290.529 277.215 290.529 278.616 291.533Z" fill="#FF9228"/>
<path d="M193.445 8.54301C193.445 4.12301 196.827 0.989014 201.435 0.989014C204.112 0.989014 206.27 1.96402 207.681 3.72802L205.066 6.09402C204.153 4.99402 203.032 4.39201 201.642 4.39201C199.256 4.39201 197.596 6.05202 197.596 8.54202C197.596 11.032 199.256 12.692 201.642 12.692C203.033 12.692 204.153 12.09 205.066 10.99L207.681 13.356C206.27 15.12 204.112 16.095 201.435 16.095C196.827 16.097 193.445 12.964 193.445 8.54301Z" fill="#263238"/>
<path d="M208.445 8.54301C208.445 4.18501 211.869 0.989014 216.518 0.989014C221.166 0.989014 224.59 4.18501 224.59 8.54301C224.59 12.901 221.166 16.097 216.518 16.097C211.869 16.097 208.445 12.901 208.445 8.54301ZM220.439 8.54301C220.439 6.03201 218.716 4.39302 216.517 4.39302C214.317 4.39302 212.595 6.03201 212.595 8.54301C212.595 11.054 214.317 12.693 216.517 12.693C218.717 12.694 220.439 11.055 220.439 8.54301Z" fill="#263238"/>
<path d="M239.858 15.807L239.816 8.10803L236.081 14.376H234.255L230.541 8.31603V15.807H226.743V1.28003H230.126L235.23 9.66403L240.21 1.28003H243.593L243.635 15.806L239.858 15.807Z" fill="#263238"/>
<path d="M259.63 6.65503C259.63 9.95403 257.14 12.008 253.176 12.008H250.644V15.806H246.535V1.28003H253.176C257.14 1.28003 259.63 3.33503 259.63 6.65503ZM255.48 6.65503C255.48 5.30603 254.629 4.51703 252.928 4.51703H250.645V8.77103H252.928C254.629 8.77103 255.48 7.98303 255.48 6.65503Z" fill="#263238"/>
<path d="M270.625 12.984H264.482L263.341 15.806H259.149L265.561 1.28003H269.608L276.041 15.806H271.766L270.625 12.984ZM269.422 9.95503L267.554 5.30703L265.687 9.95503H269.422Z" fill="#263238"/>
<path d="M291.02 1.28003V15.806H287.638L281.225 8.06603V15.806H277.199V1.28003H280.582L286.994 9.02003V1.28003H291.02Z" fill="#263238"/>
<path d="M301.703 10.598V15.807H297.595V10.536L292.054 1.28101H296.391L299.836 7.05001L303.28 1.28101H307.264L301.703 10.598Z" fill="#263238"/>
<path d="M362.184 177.126C356.806 184.373 354.732 187.697 352.647 189.755C350.384 191.989 327.204 190.285 324.404 189.11C322.255 188.208 323.737 185.428 324.75 185.568C328.565 186.096 342.907 183.585 347.159 181.728C347.905 181.401 355.174 172.573 355.174 172.573L362.184 177.126Z" fill="#FFB573"/>
<path d="M353.357 172.342C357.903 164.011 366.854 157.896 369.56 157.552C373.459 157.046 374.77 157.817 373.627 160.954C371.688 166.276 368.117 171.883 363.088 178.664L353.357 172.342Z" fill="#FF9228"/>
<g opacity="0.1">
<path d="M353.357 172.342C357.903 164.011 366.854 157.896 369.56 157.552C373.459 157.046 374.77 157.817 373.627 160.954C371.688 166.276 368.117 171.883 363.088 178.664L353.357 172.342Z" fill="black"/>
</g>
<path d="M369.56 157.551C371.795 156.748 372.728 156.452 376.261 155.537C380.411 154.54 384.623 153.846 388.866 153.459C391.552 153.156 394.199 153.063 396.309 153.048C396.561 153.047 396.813 153.075 397.06 153.13C398.965 153.558 400.198 155.519 399.814 157.513C395.641 179.559 395.442 189.34 396.043 200.695L370.664 201.601C370.014 201.624 369.447 201.139 369.315 200.463C368.193 194.739 364.677 182.025 364.677 182.025C361.508 178.984 360.983 175.218 360.667 173.039C360.494 171.848 363.155 170.563 366.037 164.258C366.037 164.258 368.256 158.028 369.56 157.551Z" fill="#FF9228"/>
<path d="M385.602 201.064L376.348 201.401C374.967 190.418 375.233 180.687 375.71 169.751C378.685 180.732 381.506 190.322 385.602 201.064Z" fill="#263238"/>
<path d="M388.282 285.655C388.051 285.148 387.819 284.62 387.596 284.082C377.616 260.233 369.983 212.033 369.983 212.033L387.785 202.954C387.785 202.954 392.853 245.326 399.786 272.896C400.85 277.099 401.94 280.942 403.069 284.226L390.922 289.809L388.282 285.655Z" fill="#FFB573"/>
<g opacity="0.8">
<path d="M388.282 285.655C388.051 285.148 387.819 284.62 387.596 284.082C377.616 260.233 369.983 212.033 369.983 212.033L387.785 202.954C387.785 202.954 392.853 245.326 399.786 272.896C400.85 277.099 401.94 280.942 403.069 284.226L390.922 289.809L388.282 285.655Z" fill="#263238"/>
</g>
<path d="M371.306 205.776C371.306 205.776 363.167 262.773 365.094 286.093C367.128 310.659 374.391 352.731 374.391 352.731L380.396 352.322C380.396 352.322 383.983 320.656 378.91 286.441C392.659 251.052 394.199 206.68 394.199 206.68L371.306 205.776Z" fill="#FFB573"/>
<path opacity="0.8" d="M371.306 205.776C371.306 205.776 363.167 262.773 365.094 286.093C367.128 310.659 374.391 352.731 374.391 352.731L380.396 352.322C380.396 352.322 383.983 320.656 378.91 286.441C392.659 251.052 394.199 206.68 394.199 206.68L371.306 205.776Z" fill="#263238"/>
<path d="M381.165 354.198C381.584 354.986 381.816 355.871 381.842 356.775C382.001 360.072 382.233 368.836 382.233 368.836L381.507 368.885C381.507 368.885 381.066 364.589 380.57 362.438C380.075 360.289 379.742 362.14 378.64 364.487C377.537 366.836 374.451 369.245 369.75 369.687C364.235 370.202 361.986 370.095 363.504 368.554C365.021 367.015 368.622 365.844 368.622 365.844C368.622 365.844 373.419 357.624 373.142 352.09C372.842 346.18 379.665 351.731 380.99 350.903C381.455 350.975 380.9 353.718 381.165 354.198Z" fill="#263238"/>
<path d="M400.191 274.976C396.695 275.734 393.604 278.298 384.427 279.221C384.246 279.233 384.065 279.254 383.876 279.267C383.491 279.31 383.09 279.337 382.672 279.357C380.205 279.492 366.125 278.832 363.508 277.303C365.781 253.849 370.25 204.023 370.25 204.023L381.012 202.715L394.879 202.293C394.879 202.293 410.176 218.095 406.66 232.429C401.4 253.879 404.033 257.21 400.191 274.976Z" fill="#263238"/>
<path d="M395.914 189.438C395.187 188.587 394.699 187.68 394.872 186.598C394.872 186.598 394.845 185.022 394.817 182.623C394.735 175.601 394.677 161.608 395.412 159.756C397.01 155.743 399.747 153.569 401.182 155.914C402.858 158.653 402.98 179.439 402.98 179.439C402.587 193.185 397.555 191.356 395.914 189.438Z" fill="#FFB573"/>
<path d="M392.584 152.646L391.745 154.162C388.504 160.043 381.002 167.608 378.067 168.353C377.381 166.761 376.329 165.36 375 164.266C373.43 165.04 372.244 166.435 371.72 168.124C369.205 164.04 369.427 158.882 370.063 156.327C371.54 155.879 373.116 155.424 374.62 155.051C378.772 154.084 382.984 153.407 387.228 153.026C389.084 152.777 390.926 152.659 392.584 152.646Z" fill="#FF9228"/>
<path opacity="0.8" d="M392.584 152.646L391.745 154.162C388.504 160.043 381.002 167.608 378.067 168.353C377.381 166.761 376.678 164.014 376.678 164.014C375.108 164.788 373.955 167.002 373.432 168.692C370.915 164.607 369.427 158.883 370.063 156.328C371.54 155.88 373.116 155.425 374.62 155.052C378.772 154.085 382.984 153.408 387.228 153.027C389.084 152.777 390.926 152.659 392.584 152.646Z" fill="white"/>
<path d="M373.276 181.258L369.802 176.543L366.692 182.703C366.692 182.703 369.869 184.478 372.506 183.881L373.276 181.258Z" fill="#FFB573"/>
<path d="M364.285 175.086L362.805 180.067L366.687 182.672L369.802 176.543L364.285 175.086Z" fill="#FFB573"/>
<path d="M396.022 203.614L383.167 203.959L382.091 203.985L379.313 204.055L378.246 204.088L370.702 204.285C370.468 204.261 370.261 204.172 370.251 204.022L369.955 201.602C369.929 201.438 370.136 201.289 370.399 201.279L377.86 200.984L378.756 200.947L382.441 200.807L383.314 200.771L395.69 200.284C395.859 200.265 396.027 200.332 396.138 200.475L396.444 203.22C396.542 203.404 396.323 203.602 396.022 203.614Z" fill="#FF9228"/>
<path opacity="0.2" d="M396.022 203.614L383.167 203.959L382.091 203.985L379.313 204.055L378.246 204.088L370.702 204.285C370.468 204.261 370.261 204.172 370.251 204.022L369.955 201.602C369.929 201.438 370.136 201.289 370.399 201.279L377.86 200.984L378.756 200.947L382.441 200.807L383.314 200.771L395.69 200.284C395.859 200.265 396.027 200.332 396.138 200.475L396.444 203.22C396.542 203.404 396.323 203.602 396.022 203.614Z" fill="white"/>
<path d="M374.257 204.512L375.082 204.5C375.25 204.518 375.369 204.403 375.363 204.292L374.902 200.864C374.912 200.765 374.742 200.673 374.573 200.673L373.748 200.694C373.58 200.676 373.461 200.791 373.468 200.893L373.927 204.33C373.978 204.436 374.086 204.521 374.257 204.512Z" fill="#263238"/>
<path d="M388.579 204.305L389.361 204.285C389.521 204.302 389.633 204.193 389.625 204.097L389.164 200.651C389.173 200.557 389.004 200.469 388.85 200.479L388.069 200.499C387.909 200.482 387.798 200.582 387.805 200.687L388.266 204.116C388.28 204.229 388.417 204.305 388.579 204.305Z" fill="#263238"/>
<path d="M392.841 219.112L390.858 218.403L399.761 191.771C401.176 187.537 400.639 183.504 395.392 181.65C390.485 179.917 386.623 182.39 385.193 186.61L376.201 213.16L374.226 212.454L383.229 185.915C384.893 181.009 388.092 177.679 395.81 180.404C403.542 183.134 403.374 187.543 401.731 192.468L392.841 219.112Z" fill="#FF9228"/>
<path d="M397.868 235.539L358.879 221.528L367.723 195.706C368.59 193.176 371.3 191.841 373.778 192.721L402.197 202.821C405.407 203.962 407.132 207.543 406.046 210.825L397.868 235.539Z" fill="#FF9228"/>
<path opacity="0.4" d="M393.548 233.986L363.165 223.068C360.798 222.217 359.555 219.555 360.388 217.124L367.724 195.706C368.591 193.176 371.301 191.841 373.779 192.721L402.198 202.821C405.408 203.962 407.133 207.543 406.047 210.825L399.338 231.097C398.526 233.549 395.933 234.844 393.548 233.986Z" fill="white"/>
<g opacity="0.3">
<path d="M392.841 219.112L391.273 220.482L390.858 218.403L399.761 191.771C401.176 187.537 400.639 183.504 395.392 181.65C390.485 179.917 386.623 182.39 385.193 186.61L376.201 213.16L374.584 214.509L374.226 212.454L383.229 185.915C384.893 181.009 388.092 177.679 395.81 180.404C403.542 183.134 403.374 187.543 401.731 192.468L392.841 219.112Z" fill="white"/>
</g>
<path d="M380.238 203.083L376.985 201.924L377.403 200.694L380.655 201.852L380.238 203.083Z" fill="#FF9228"/>
<path d="M377.536 211.065L374.277 209.901L374.697 208.665L377.954 209.828L377.536 211.065Z" fill="#FF9228"/>
<path d="M396.95 209.039L393.685 207.875L394.098 206.64L397.362 207.803L396.95 209.039Z" fill="#FF9228"/>
<path d="M394.279 217.049L391.008 215.88L391.423 214.639L394.693 215.807L394.279 217.049Z" fill="#FF9228"/>
<path d="M390.499 207.526L383.516 205.037L384.405 202.403L391.383 204.888L390.499 207.526Z" fill="white"/>
<path d="M398.917 190.673C395.793 192.469 383.129 190.439 372.42 183.997C371.915 183.693 371.389 183.735 371.226 183.612C370.563 183.118 372.258 181.994 373.257 181.475C373.807 181.189 397.441 184.176 399.071 184.403C400.887 189.217 399.222 189.158 398.917 190.673Z" fill="#FFB573"/>
<path d="M388.827 287.588C390.555 292.496 396.323 294.656 400.355 291.611C400.522 291.485 400.681 291.353 400.831 291.214C418.327 275.014 440.585 251.403 440.585 251.403L436.836 246.65C436.836 246.65 419.176 256.347 399.786 272.896C395.756 276.333 391.642 280.078 387.596 284.081L387.597 284.091L388.827 287.588Z" fill="#FFB573"/>
<path opacity="0.8" d="M388.827 287.588C390.555 292.496 396.323 294.656 400.355 291.611C400.522 291.485 400.681 291.353 400.831 291.214C418.327 275.014 440.585 251.403 440.585 251.403L436.836 246.65C436.836 246.65 419.176 256.347 399.786 272.896C395.756 276.333 391.642 280.078 387.596 284.081L387.597 284.091L388.827 287.588Z" fill="#263238"/>
<path d="M434.571 247.226C434.821 246.417 435.26 245.687 435.848 245.1C437.947 242.914 443.625 237.274 443.625 237.274L444.139 237.781C444.139 237.781 441.579 240.785 440.476 242.497C439.372 244.212 440.828 243.299 443.123 242.651C445.417 242.003 449.067 242.791 452.493 246.011C456.518 249.799 457.953 251.545 455.919 251.381C453.886 251.218 450.702 249.265 450.702 249.265C450.702 249.265 442.028 250.86 438.506 254.57C434.73 258.556 433.911 249.902 432.471 249.433C432.212 249.041 434.425 247.727 434.571 247.226Z" fill="#263238"/>
<path d="M374.509 151.921C376.393 154.16 377.852 156.867 375.347 160.174C374.817 160.873 374.489 161.73 374.529 162.61C374.592 164.021 375.493 165.337 379.848 162.321C386.148 157.963 385.291 153.593 385.291 153.593C381.769 152.774 379.209 145.625 378.129 141.522L374.509 151.921Z" fill="#FFB573"/>
<path opacity="0.2" d="M378.187 147.79C378.814 149.531 377.139 152.491 375.798 153.714C375.426 153.076 374.997 152.474 374.515 151.917L376.658 145.76C377.3 146.324 377.821 147.015 378.187 147.79Z" fill="black"/>
<path d="M359.475 132.832C357.798 139.358 360.301 146.523 364.914 151.443C369.574 146.334 378.38 147.409 383.28 142.564C386.558 139.324 387.162 133.878 385.134 129.741C382.946 125.277 376.509 120.98 371.432 121.683C365.735 122.473 360.889 127.331 359.475 132.832Z" fill="#263238"/>
<path d="M378.888 130.609C376.033 126.42 370.337 125.344 366.153 128.2C360.239 132.186 361.342 142.181 363.977 147.845C366.881 154.173 375.346 154.427 379.302 148.226C381.95 144.099 381.387 141.275 380.407 134.574C380.215 133.151 379.695 131.793 378.888 130.609Z" fill="#FFB573"/>
<path d="M367.323 144.613C366.697 144.918 365.97 144.933 365.333 144.653C365.91 143.43 366.316 142.133 366.539 140.801L367.323 144.613Z" fill="#ED893E"/>
<path d="M372.453 144.031C372.486 143.947 372.445 143.852 372.362 143.819C372.279 143.786 372.185 143.827 372.152 143.911C371.556 145.171 370.394 146.065 369.03 146.315C368.947 146.338 368.895 146.42 368.909 146.506C368.91 146.509 368.91 146.512 368.911 146.514C368.929 146.597 369.01 146.649 369.092 146.631C369.35 146.583 369.603 146.514 369.849 146.425C371 146.009 371.938 145.147 372.453 144.031Z" fill="#263238"/>
<path d="M367.702 125.154C367.178 126.001 366.827 126.95 366.711 127.948C374.521 129.753 380.285 137.931 382.495 145.719C384.61 142.942 388.754 139.542 390.356 136.201C392.153 132.454 389.758 128.16 386.157 126.098C383.691 124.686 378.977 123.066 376.259 122.188C373.068 121.157 369.469 122.294 367.702 125.154Z" fill="#263238"/>
<path d="M383.35 138.612C383.106 137.41 381.939 136.633 380.743 136.875C379.095 137.241 378.492 139.548 378.591 141.025C378.725 142.658 379.997 143.785 381.399 142.768C382.447 141.987 383.146 140.822 383.345 139.526C383.41 139.225 383.412 138.914 383.35 138.612Z" fill="#FFB573"/>
<path d="M370.483 137.948C370.658 138.601 370.451 139.226 370.019 139.346C369.587 139.466 369.107 139.026 368.937 138.361C368.767 137.696 368.969 137.084 369.393 136.967C369.816 136.851 370.304 137.288 370.483 137.948Z" fill="#263238"/>
<path d="M364.522 140.087C364.696 140.74 364.488 141.366 364.064 141.483C363.64 141.6 363.152 141.162 362.975 140.5C362.798 139.838 363.01 139.221 363.433 139.105C363.856 138.988 364.352 139.421 364.522 140.087Z" fill="#263238"/>
<path d="M363.63 139.09L361.94 139.061C361.94 139.061 363.073 140.072 363.63 139.09Z" fill="#263238"/>
<path d="M371.736 134.987C371.787 134.959 371.831 134.92 371.864 134.873C371.963 134.719 371.92 134.514 371.767 134.415C371.765 134.414 371.763 134.413 371.761 134.412C370.723 133.702 369.405 133.545 368.228 133.991C368.066 134.07 367.994 134.263 368.064 134.43C368.138 134.593 368.328 134.668 368.493 134.598C369.47 134.246 370.556 134.386 371.412 134.974C371.51 135.034 371.633 135.039 371.736 134.987Z" fill="#263238"/>
<path d="M361.686 138.568C361.73 138.53 361.764 138.482 361.786 138.428C362.15 137.455 362.955 136.714 363.951 136.435C364.13 136.402 364.249 136.229 364.217 136.049C364.217 136.047 364.216 136.045 364.216 136.045C364.176 135.865 364.001 135.751 363.821 135.786C362.605 136.11 361.617 137.002 361.167 138.184C361.092 138.351 361.166 138.547 361.332 138.622C361.451 138.674 361.589 138.653 361.686 138.568Z" fill="#263238"/>
<path d="M369.589 136.953L367.9 136.924C367.9 136.924 369.035 137.933 369.589 136.953Z" fill="#263238"/>
<path d="M360.772 142.264C361.538 146.367 364.872 152.039 368.425 154.216C366.032 156.03 361.747 153.977 359.225 152.37C356.706 150.765 355.155 147.887 354.716 144.919C354.278 141.956 354.857 138.914 355.896 136.108C357.607 131.488 360.859 127.814 364.685 124.744C365.452 124.129 366.753 123.635 367.253 124.479C367.596 125.059 367.203 125.785 366.821 126.342C363.126 131.724 360.227 135.476 360.772 142.264Z" fill="#263238"/>
<path d="M379.334 149.771C379.314 149.771 379.294 149.768 379.274 149.764C379.14 149.731 379.058 149.595 379.091 149.461C381.76 138.666 370.188 130.427 366.577 128.16C366.46 128.086 366.425 127.932 366.498 127.815C366.573 127.698 366.728 127.664 366.843 127.736C370.525 130.049 382.326 138.46 379.576 149.581C379.548 149.695 379.446 149.771 379.334 149.771Z" fill="#263238"/>
<path d="M381.362 141.949L381.142 145.765L382.159 146.601L382.658 145.431L381.362 141.949Z" fill="#FF9228"/>
<path d="M398.207 153.395C396.586 153.007 394.841 153.448 393.691 154.656C392.425 155.987 391.631 157.848 391.392 159.711C391.024 162.594 391.745 165.506 392.531 168.317C393.318 171.133 394.185 173.993 394.107 176.923C397.17 175.245 401.619 171.902 405.9 171.482C405.309 164.666 404.521 160.131 403.198 157.875C402.439 156.58 401.654 155.255 400.49 154.317C399.973 153.899 399.06 153.6 398.207 153.395Z" fill="#FF9228"/>
<g opacity="0.1">
<path d="M398.207 153.395C396.586 153.007 394.841 153.448 393.691 154.656C392.425 155.987 391.631 157.848 391.392 159.711C391.024 162.594 391.745 165.506 392.531 168.317C393.318 171.133 394.185 173.993 394.107 176.923C397.17 175.245 401.619 171.902 405.9 171.482C405.309 164.666 404.521 160.131 403.198 157.875C402.439 156.58 401.654 155.255 400.49 154.317C399.973 153.899 399.06 153.6 398.207 153.395Z" fill="white"/>
</g>
<path d="M325.331 185.501C325.331 185.501 317.781 186.749 317.685 187.09C317.589 187.431 317.622 191.679 317.622 191.679L324.404 189.111L325.331 185.501Z" fill="#FFB573"/>
<path d="M317.622 191.679L311.244 185.668L314.094 184.841L318.824 187.407L317.622 191.679Z" fill="#FFB573"/>
<path d="M125.011 344.179L132.138 343.79L132.766 360.675L125.638 361.065L125.011 344.179Z" fill="#F7978D"/>
<path d="M134.524 359.15C136.736 360.525 139.947 361.724 145.801 362.312C147.095 362.444 147.524 365.415 144.509 365.74C141.494 366.065 136.246 366.541 134.071 366.779C130.524 367.161 129.202 367.476 126.398 367.827C125.7 367.896 125.078 367.389 125.005 366.692L124.702 360.272C124.683 359.989 124.895 359.743 125.178 359.721L133.24 358.84C133.69 358.802 134.141 358.91 134.524 359.15Z" fill="#263238"/>
<path opacity="0.2" d="M125.33 352.887L132.466 352.5L132.136 343.799L125.009 344.188L125.33 352.887Z" fill="black"/>
<path d="M137.989 359.75C138.188 359.485 138.23 359.133 138.099 358.829C138.036 358.617 137.865 358.455 137.651 358.404C136.741 358.155 134.862 359.759 134.651 359.95C134.609 359.997 134.595 360.062 134.615 360.122C134.636 360.187 134.691 360.235 134.758 360.247C135.4 360.333 136.05 360.347 136.695 360.289C137.178 360.276 137.639 360.084 137.989 359.75ZM135.189 359.951C135.953 359.376 137.091 358.597 137.58 358.738C137.684 358.766 137.764 358.848 137.79 358.952C137.89 359.15 137.869 359.387 137.736 359.564C137.438 359.945 136.502 360.086 135.186 359.968L135.189 359.951Z" fill="#FF9228"/>
<path d="M134.88 360.206C135.554 359.697 136.453 358.084 136.208 357.323C136.115 357.041 135.842 356.859 135.546 356.881C135.281 356.871 135.026 356.984 134.858 357.189C134.211 357.968 134.636 360.022 134.619 360.104C134.628 360.159 134.665 360.206 134.715 360.228L134.796 360.245L134.88 360.206ZM135.511 357.224C135.758 357.22 135.874 357.339 135.855 357.429C135.835 358.298 135.481 359.127 134.865 359.741C134.691 358.96 134.768 358.143 135.085 357.408C135.171 357.3 135.298 357.235 135.435 357.227L135.511 357.224Z" fill="#FF9228"/>
<path d="M68.6628 336.688L75.7308 338.185L70.5798 354.177L63.5208 352.683L68.6628 336.688Z" fill="#F7978D"/>
<path d="M72.4948 354.186C74.1528 356.171 77.5728 358.614 82.9538 360.99C84.1528 361.527 83.6228 364.475 80.6588 363.847C77.6938 363.219 71.8308 361.742 69.6798 361.287C66.1908 360.548 64.8368 360.432 62.0688 359.902C61.3808 359.751 60.9458 359.071 61.0968 358.384L62.8068 352.182C62.8798 351.909 63.1578 351.745 63.4328 351.814L71.3688 353.494C71.8088 353.594 72.2048 353.838 72.4948 354.186Z" fill="#263238"/>
<path opacity="0.2" d="M66.0098 344.937L73.0698 346.432L75.7298 338.194L68.6608 336.697L66.0098 344.937Z" fill="black"/>
<path d="M113.547 186.986C113.547 186.986 121.072 252.062 121.645 276.388C122.171 298.796 121.798 348.39 121.798 348.39L134.768 347.784C134.768 347.784 140.175 301.706 141.726 279.124C143.147 258.451 138.719 192.315 138.719 192.315L113.547 186.986Z" fill="#FF9228"/>
<path opacity="0.2" d="M116.638 212.666C117.804 226.131 119.379 243.454 120.819 257.944C123.793 249.559 125.619 228.464 122.06 215.529C119.909 207.661 117.956 209.393 116.638 212.666Z" fill="black"/>
<path d="M119.673 345.797L136.441 344.521L135.67 350.034L121.56 351.202L119.673 345.797Z" fill="#263238"/>
<path d="M98.8318 189.508C98.8318 189.508 86.6918 249.398 82.4958 273.365C78.6328 295.448 63.4668 342.274 63.4668 342.274L76.4008 345.012C76.4008 345.012 97.8388 297.644 103.782 275.775C109.21 255.799 122.802 194.583 122.802 194.583L98.8318 189.508Z" fill="#FF9228"/>
<path d="M63.1509 337.882L80.5319 340.759L78.7149 345.502L62.9429 342.163L63.1509 337.882Z" fill="#263238"/>
<path d="M74.9648 355.19C75.2428 354.996 75.3928 354.665 75.3548 354.328C75.3638 354.108 75.2578 353.899 75.0748 353.778C74.2868 353.262 71.9918 354.202 71.7328 354.308C71.6768 354.342 71.6398 354.401 71.6328 354.466C71.6328 354.532 71.6718 354.593 71.7328 354.619C72.3168 354.901 72.9288 355.119 73.5588 355.27C74.0218 355.414 74.5208 355.385 74.9648 355.19ZM72.2848 354.463C73.2088 354.111 74.5108 353.763 74.8918 354.061C74.9798 354.124 75.0288 354.227 75.0228 354.334C75.0488 354.551 74.9568 354.766 74.7808 354.897C74.3778 355.152 73.4388 354.991 72.2338 354.481L72.2848 354.463Z" fill="#FF9228"/>
<path d="M71.8918 354.625C72.6668 354.355 74.0448 353.107 74.0468 352.295C74.0448 351.999 73.8428 351.743 73.5558 351.672C73.3068 351.583 73.0308 351.615 72.8098 351.76C71.9508 352.296 71.6938 354.357 71.6748 354.447C71.6648 354.501 71.6858 354.557 71.7288 354.591C71.7538 354.605 71.7818 354.611 71.8098 354.608C71.8358 354.622 71.8638 354.628 71.8918 354.625ZM73.4548 351.972C73.6908 352.06 73.7408 352.184 73.7198 352.283C73.7208 352.812 72.7788 353.784 72.0548 354.169C72.1298 353.373 72.4578 352.622 72.9908 352.025C73.1068 351.95 73.2488 351.925 73.3828 351.957L73.4548 351.972Z" fill="#FF9228"/>
<path d="M75.1349 202.87C76.8239 201.188 77.0659 199.348 78.1109 197.399C78.8239 196.069 77.1799 196.586 78.8219 196.761C79.4099 196.824 80.0329 197.166 80.5769 197.374C81.9999 197.919 83.3729 198.599 84.8089 199.11C86.0419 199.549 88.2539 199.346 89.2979 199.957C91.0019 200.954 89.3659 205.361 89.0139 206.783C88.5889 208.504 91.2149 209.4 91.6439 207.664C92.2569 205.185 93.8409 200.758 91.9269 198.429C90.7409 196.985 88.9109 197.275 87.2649 196.953C84.1609 196.346 80.9789 193.512 77.7139 193.849C76.6049 193.964 75.9639 194.453 75.5059 195.458C74.9869 196.599 75.2919 197.867 74.6119 199.066C74.2619 199.683 73.8099 200.28 73.3069 200.781C72.0479 202.038 73.8689 204.131 75.1349 202.87Z" fill="#FF9228"/>
<g opacity="0.3">
<path d="M75.1349 202.87C76.8239 201.188 77.0659 199.348 78.1109 197.399C78.8239 196.069 77.1799 196.586 78.8219 196.761C79.4099 196.824 80.0329 197.166 80.5769 197.374C81.9999 197.919 83.3729 198.599 84.8089 199.11C86.0419 199.549 88.2539 199.346 89.2979 199.957C91.0019 200.954 89.3659 205.361 89.0139 206.783C88.5889 208.504 91.2149 209.4 91.6439 207.664C92.2569 205.185 93.8409 200.758 91.9269 198.429C90.7409 196.985 88.9109 197.275 87.2649 196.953C84.1609 196.346 80.9789 193.512 77.7139 193.849C76.6049 193.964 75.9639 194.453 75.5059 195.458C74.9869 196.599 75.2919 197.867 74.6119 199.066C74.2619 199.683 73.8099 200.28 73.3069 200.781C72.0479 202.038 73.8689 204.131 75.1349 202.87Z" fill="black"/>
</g>
<path d="M92.2589 246.942L46.7089 231.679C43.7839 230.699 42.2079 227.533 43.1879 224.608L52.1539 197.85C52.7229 196.152 54.5599 195.237 56.2579 195.806L106.252 212.558C107.95 213.127 108.865 214.964 108.296 216.662L99.3299 243.42C98.3489 246.345 95.1839 247.922 92.2589 246.942Z" fill="#FF9228"/>
<path opacity="0.3" d="M92.2589 246.942L46.7089 231.679C43.7839 230.699 42.2079 227.533 43.1879 224.608L52.1539 197.85C52.7229 196.152 54.5599 195.237 56.2579 195.806L106.252 212.558C107.95 213.127 108.865 214.964 108.296 216.662L99.3299 243.42C98.3489 246.345 95.1839 247.922 92.2589 246.942Z" fill="white"/>
<path d="M78.4043 216.45L70.5369 238.933L71.4798 239.263L79.3472 216.78L78.4043 216.45Z" fill="#FF9228"/>
<g opacity="0.3">
<path d="M78.4043 216.45L70.5369 238.933L71.4798 239.263L79.3472 216.78L78.4043 216.45Z" fill="black"/>
</g>
<path opacity="0.2" d="M105.372 215.817L54.9139 198.909C53.3439 198.383 51.6458 199.229 51.1198 200.799L50.7709 201.842C49.2899 206.263 51.6728 211.048 56.0928 212.529L96.2258 225.977C100.647 227.458 105.432 225.075 106.913 220.655L107.263 219.612C107.788 218.041 106.942 216.342 105.372 215.817Z" fill="black"/>
<path d="M106.484 212.636L56.0259 195.728C54.4569 195.202 52.7579 196.048 52.2319 197.618L51.8819 198.661C50.4009 203.082 52.7839 207.867 57.2049 209.348L97.3379 222.796C101.759 224.277 106.544 221.894 108.025 217.474L108.375 216.431C108.899 214.861 108.053 213.162 106.484 212.636Z" fill="#FF9228"/>
<path d="M106.484 212.636L56.0259 195.728C54.4569 195.202 52.7579 196.048 52.2319 197.618L51.8819 198.661C50.4009 203.082 52.7839 207.867 57.2049 209.348L97.3379 222.796C101.759 224.277 106.544 221.894 108.025 217.474L108.375 216.431C108.899 214.861 108.053 213.162 106.484 212.636Z" fill="#FF9228"/>
<path opacity="0.5" d="M106.484 212.636L56.0259 195.728C54.4569 195.202 52.7579 196.048 52.2319 197.618L51.8819 198.661C50.4009 203.082 52.7839 207.867 57.2049 209.348L97.3379 222.796C101.759 224.277 106.544 221.894 108.025 217.474L108.375 216.431C108.899 214.861 108.053 213.162 106.484 212.636Z" fill="white"/>
<path d="M62.38 218.301L60.707 217.741C59.686 217.399 59.136 216.294 59.478 215.273L62.021 207.683C62.363 206.662 63.468 206.112 64.488 206.454L66.161 207.015C67.182 207.357 67.732 208.462 67.39 209.482L64.847 217.072C64.505 218.093 63.4 218.643 62.38 218.301Z" fill="#FF9228"/>
<path d="M89.5548 227.407L87.8818 226.847C86.8608 226.505 86.3108 225.4 86.6528 224.38L89.1958 216.79C89.5378 215.769 90.6428 215.219 91.6628 215.561L93.3358 216.122C94.3568 216.464 94.9068 217.569 94.5648 218.589L92.0218 226.178C91.6798 227.199 90.5758 227.749 89.5548 227.407Z" fill="#FF9228"/>
<path d="M62.38 218.301L60.707 217.741C59.686 217.399 59.136 216.294 59.478 215.273L62.021 207.683C62.363 206.662 63.468 206.112 64.488 206.454L66.161 207.015C67.182 207.357 67.732 208.462 67.39 209.482L64.847 217.072C64.505 218.093 63.4 218.643 62.38 218.301Z" fill="white"/>
<path d="M89.5548 227.407L87.8818 226.847C86.8608 226.505 86.3108 225.4 86.6528 224.38L89.1958 216.79C89.5378 215.769 90.6428 215.219 91.6628 215.561L93.3358 216.122C94.3568 216.464 94.9068 217.569 94.5648 218.589L92.0218 226.178C91.6798 227.199 90.5758 227.749 89.5548 227.407Z" fill="white"/>
<path d="M147.862 138.298C148.31 139.186 148.879 140.247 149.4 141.224C149.921 142.201 150.503 143.2 151.071 144.178C152.217 146.126 153.386 148.052 154.632 149.874C155.831 151.641 157.127 153.341 158.515 154.965C159.634 156.331 160.957 157.516 162.437 158.478L162.641 158.604C162.703 158.617 162.641 158.604 162.685 158.613L162.729 158.622C162.729 158.622 162.826 158.643 162.976 158.674C163.534 158.664 164.083 158.535 164.587 158.296C166.306 157.48 167.895 156.415 169.304 155.136C170.978 153.715 172.553 152.182 174.019 150.547C174.777 149.712 175.543 148.878 176.271 148.009C176.999 147.14 177.747 146.219 178.396 145.416L178.522 145.258C179.72 143.476 182.136 143.003 183.918 144.202C185.695 145.397 186.171 147.804 184.982 149.586C182.507 154.115 179.483 158.321 175.978 162.109C174.002 164.234 171.716 166.047 169.197 167.487C167.586 168.388 165.819 168.978 163.989 169.224C162.882 169.355 161.761 169.32 160.664 169.119C160.088 169.017 159.521 168.866 158.971 168.668C158.697 168.61 158.39 168.453 158.18 168.353L157.583 168.079C154.887 166.682 152.443 164.843 150.353 162.639C148.48 160.753 146.751 158.729 145.181 156.584C143.637 154.514 142.21 152.414 140.877 150.261C140.181 149.192 139.556 148.137 138.937 147.011C138.318 145.884 137.727 144.846 137.097 143.597C135.592 140.628 136.779 137.001 139.748 135.496C142.717 133.991 146.344 135.178 147.849 138.147L147.862 138.298Z" fill="#263238"/>
<path d="M181.734 148.419L187.402 150.476L187.006 143.855C187.006 143.855 181.113 141.769 180.33 144.904L180.328 146.351C180.316 147.267 180.878 148.093 181.734 148.419Z" fill="#F7978D"/>
<path d="M193.23 148.907L194.427 143.25L187.006 143.855L187.402 150.476L193.23 148.907Z" fill="#F7978D"/>
<path opacity="0.3" d="M149.544 161.497C148.875 160.732 148.242 159.975 147.622 159.201C145.688 156.722 143.941 154.101 142.397 151.362C140.881 148.696 139.514 145.947 138.304 143.129C138.133 142.734 137.972 142.332 137.812 141.929C140.849 140.117 147.29 141.008 149.381 149.421C150.218 153.398 150.274 157.499 149.544 161.497Z" fill="black"/>
<path d="M136.55 197.493L98.8318 189.508C99.2738 186.079 102.348 175.265 104.755 161.175C106.252 151.455 107.117 141.648 107.344 131.815C107.345 131.787 107.346 131.759 107.348 131.731C107.492 129.184 109.674 127.236 112.221 127.38L112.302 127.397C114.65 127.545 117.579 127.806 120.41 128.264C125.821 129.093 131.18 130.227 136.462 131.662C138.202 132.228 139.904 132.904 141.558 133.685C143.922 134.707 145.536 136.941 145.765 139.505C146.427 147.757 146.11 163.886 136.55 197.493Z" fill="white"/>
<path d="M131.79 137.1L130.71 139.26C130.51 139.66 130.19 139.89 129.88 139.86L128.01 139.7C127.74 139.69 127.52 139.46 127.42 139.11L126.66 136.52L129.46 134.78L131.79 137.1Z" fill="#FF9228"/>
<path d="M120.004 127.592C117.027 127.113 113.931 126.835 111.453 126.679L111.372 126.662C111.323 126.659 111.275 126.657 111.226 126.655C108.549 126.566 106.306 128.663 106.216 131.341C105.986 138.45 105.43 150.978 103.497 162.297C99.8339 188.594 96.2009 193.821 96.2009 193.821L113.033 197C118.117 173.117 122.041 140.498 121.629 127.813L120.004 127.592Z" fill="#263238"/>
<path opacity="0.3" d="M104.067 158.669C105.287 150.183 105.821 141.418 106.088 135.025C106.166 134.937 106.252 134.857 106.346 134.787C108.465 132.988 113.727 137.303 112.294 145.367C110.936 153.031 107.211 157.644 104.067 158.669Z" fill="black"/>
<path d="M139.388 202.963L129.225 200.244C135.606 155.49 137.096 143.598 135.665 131.058C138.182 131.72 140.661 132.516 143.093 133.443C145.68 134.697 147.419 137.216 147.675 140.079C148.531 147.098 143.212 165.014 139.388 202.963Z" fill="#263238"/>
<path d="M127.682 184.512C128.74 183.982 130.028 184.41 130.559 185.468C130.56 185.47 130.561 185.472 130.562 185.474C131.096 186.536 130.667 187.83 129.605 188.364C128.543 188.898 127.249 188.469 126.715 187.407C126.181 186.345 126.61 185.051 127.672 184.517C127.675 184.515 127.679 184.514 127.682 184.512Z" fill="#263238"/>
<path d="M126.411 187.6C125.777 186.365 126.264 184.851 127.499 184.217C128.093 183.912 128.785 183.861 129.418 184.075C130.689 184.456 131.443 185.762 131.136 187.053C130.816 188.398 129.466 189.229 128.121 188.909C127.383 188.751 126.756 188.27 126.411 187.6Z" fill="white"/>
<path d="M129.71 134.831C121.664 133.581 119.78 128.205 119.78 128.205C124.007 125.455 124.664 115.753 124.565 110.331L128.104 114.801L132.924 120.893C132.588 121.638 132.297 122.403 132.052 123.183C131.066 126.279 131.276 129.346 135.707 131.436C135.707 131.436 136.573 135.869 129.71 134.831Z" fill="#F7978D"/>
<path d="M118.279 127.265L120.92 126.88C123.027 130.098 125.853 132.782 129.176 134.719C127.419 135.429 125.912 136.645 124.848 138.213C116.988 133.545 118.279 127.265 118.279 127.265Z" fill="white"/>
<path d="M135.774 130.987L133.589 130.024C133.589 130.024 131.661 134.583 129.169 134.754C132.936 137.213 133.185 139.382 133.185 139.382C139.491 138.725 135.774 130.987 135.774 130.987Z" fill="white"/>
<path opacity="0.2" d="M132.309 122.454L127.691 116.652C127.485 117.385 127.357 118.135 127.309 118.891C127.16 121.19 129.549 124.098 131.634 125.019L132.309 122.454Z" fill="black"/>
<path d="M137.378 111.858C137.378 111.858 137.626 115.461 141.383 114.085C141.544 110.247 142.804 110.542 144.101 108.295C145.822 105.764 146.014 102.493 144.601 99.779L142.212 98.574C132.888 95.684 137.378 111.858 137.378 111.858Z" fill="#263238"/>
<path opacity="0.6" d="M137.378 111.858C137.378 111.858 137.626 115.461 141.383 114.085C141.544 110.247 142.804 110.542 144.101 108.295C145.822 105.764 146.014 102.493 144.601 99.779L142.212 98.574C132.888 95.684 137.378 111.858 137.378 111.858Z" fill="white"/>
<path d="M127.636 97.301C131.11 93.405 137.085 93.064 140.98 96.538C146.792 101.47 144.748 111.973 141.477 117.655C140.563 119.314 139.166 120.655 137.472 121.501C132.861 123.803 127.257 121.932 124.955 117.321C122.552 112.657 123.835 108.651 125.439 101.653C125.778 100.035 126.535 98.535 127.636 97.301Z" fill="#F7978D"/>
<path d="M124.299 108.02C124.299 108.02 125.236 111.133 128.639 109.469C128.048 106.106 129.332 106.196 130.169 104.071C131.368 101.635 130.926 98.74 129.017 96.532L126.447 95.781C114.228 94.611 124.299 108.02 124.299 108.02Z" fill="#263238"/>
<path opacity="0.6" d="M124.299 108.02C124.299 108.02 125.236 111.133 128.639 109.469C128.048 106.106 129.332 106.196 130.169 104.071C131.368 101.635 130.926 98.74 129.017 96.532L126.447 95.781C114.228 94.611 124.299 108.02 124.299 108.02Z" fill="white"/>
<path d="M136.432 88.81C135.182 88.335 133.68 88.603 132.67 89.48C132.002 90.061 131.346 90.951 130.478 90.776C130.037 90.687 129.708 90.334 129.341 90.074C127.934 89.076 125.901 89.499 124.54 90.557C123.179 91.615 122.316 93.171 121.419 94.643C120.521 96.115 119.487 97.606 117.95 98.388C120.711 99.723 124.051 99.805 126.874 98.606C126.08 99.573 124.965 100.272 123.749 100.565C126.54 101.378 129.627 101.128 132.251 99.878C133.74 99.168 135.12 98.138 136.746 97.859C138.372 97.58 140.383 98.459 140.533 100.102C140.76 99.238 141.942 98.948 142.748 99.332C143.554 99.715 144.054 100.529 144.489 101.309C144.923 102.089 145.373 102.918 146.138 103.379C146.902 103.84 148.084 103.739 148.477 102.937C147.289 102.883 146.233 101.823 146.184 100.634C147.053 101.122 148.096 101.291 149.074 101.101C147.768 101.015 145.22 96.372 144.825 95.124C144.43 93.877 143.834 92.616 142.754 91.876C141.539 91.043 140.311 92.496 139.16 91.88C138.072 91.298 137.731 89.303 136.432 88.81Z" fill="#263238"/>
<path d="M134.81 114.065C133.882 113.301 133.279 112.154 133.175 110.956C133.853 111.223 134.531 111.489 135.21 111.756C136.057 112.089 138.501 113.116 137.958 114.462C137.448 115.726 135.463 114.603 134.81 114.065Z" fill="#263238"/>
<path d="M140.551 116.267C141.753 116.247 142.94 115.725 143.767 114.853C143.07 114.639 142.374 114.425 141.677 114.212C140.807 113.945 138.256 113.226 137.842 114.617C137.453 115.923 139.705 116.281 140.551 116.267Z" fill="#263238"/>
<path d="M137.784 113.955C138.604 114.477 139.612 114.611 140.539 114.321C139.872 112.501 139.456 110.598 139.3 108.666L137.784 113.955Z" fill="#FF5652"/>
<path d="M124.701 103.178C126.401 103.755 127.065 106.597 126.989 108.384C126.898 110.376 125.588 111.61 124.117 110.354C122.984 109.288 122.254 107.862 122.053 106.319C121.794 104.375 123 102.6 124.701 103.178Z" fill="#F7978D"/>
<path d="M135.996 106.343C136.357 106.467 136.502 107.073 136.348 107.579C136.194 108.085 135.769 108.439 135.407 108.324C135.044 108.209 134.932 107.666 135.053 107.097C135.218 106.537 135.635 106.219 135.996 106.343Z" fill="#263238"/>
<path d="M142.315 108.077C142.676 108.201 142.835 108.744 142.669 109.304C142.503 109.864 142.077 110.227 141.716 110.103C141.355 109.979 141.198 109.427 141.364 108.867C141.527 108.317 141.954 107.954 142.315 108.077Z" fill="#263238"/>
<path d="M137.149 117.089C137.243 117.104 137.332 117.041 137.35 116.947C137.36 116.854 137.299 116.768 137.208 116.747C135.735 116.546 134.438 115.673 133.697 114.384C133.656 114.3 133.555 114.264 133.471 114.305C133.387 114.346 133.351 114.447 133.392 114.531C134.051 115.728 135.172 116.601 136.494 116.947C136.702 117.003 136.932 117.028 137.149 117.089Z" fill="#263238"/>
<path d="M142.087 105.672C142.115 105.782 142.193 105.873 142.298 105.917C143.145 106.179 143.826 106.815 144.146 107.642C144.192 107.82 144.373 107.927 144.551 107.882C144.556 107.881 144.562 107.879 144.567 107.877C144.745 107.821 144.848 107.636 144.802 107.456C144.427 106.411 143.583 105.602 142.523 105.273C142.343 105.216 142.151 105.312 142.087 105.489C142.074 105.549 142.074 105.611 142.087 105.672Z" fill="#263238"/>
<path d="M134.802 103.889C134.892 103.959 135.009 103.983 135.119 103.953C135.948 103.639 136.876 103.721 137.637 104.177C137.782 104.289 137.991 104.262 138.104 104.117C138.107 104.112 138.111 104.108 138.114 104.103C138.22 103.95 138.187 103.741 138.04 103.626C137.102 103.033 135.939 102.914 134.9 103.306C134.724 103.372 134.631 103.565 134.689 103.744C134.717 103.8 134.755 103.849 134.802 103.889Z" fill="#263238"/>
<path d="M80.7468 190.903L79.4498 190.757C76.3908 192.23 79.7128 197.889 79.7128 197.889L88.7158 196.791L86.1058 193.736C84.7388 192.151 82.8258 191.139 80.7468 190.903Z" fill="#F7978D"/>
<path d="M88.9877 200.669L88.6907 196.777L79.6877 197.875L80.1917 202.489C80.1987 202.557 80.2117 202.623 80.2287 202.689C80.4197 203.42 81.1667 203.857 81.8977 203.666L87.9617 202.077C88.5967 201.915 89.0277 201.324 88.9877 200.669Z" fill="#F7978D"/>
<path d="M133.18 174.59C133.18 174.59 130.05 182.12 128.67 181.08C127.29 180.04 124.11 174.28 124.1 174.16C124.1 173.96 128.01 139.7 128.01 139.7L129.88 139.86C129.11 143.71 133.18 174.59 133.18 174.59Z" fill="#FF9228"/>
<path d="M81.636 155.973C77.901 161.324 77.005 186.422 77.981 192.874C79.495 191.05 82.47 190.677 84.387 192.071C84.475 187.653 88.062 171.861 89.601 165.271C90.035 163.413 91.125 161.786 92.67 160.665C99.267 155.879 111.217 146.421 112.534 142.7C114.666 136.677 112.835 124.397 107.536 128.181C102.539 131.749 84.614 151.708 81.636 155.973Z" fill="#263238"/>
<path d="M380.851 29.453C380.851 29.453 380.012 29.279 378.761 28.774C377.504 28.283 375.885 27.452 374.202 26.639C372.526 25.833 370.925 25.416 369.737 25.301C368.55 25.168 367.743 25.272 367.629 24.989C367.518 24.75 368.216 24.098 369.666 23.832C371.1 23.55 373.162 23.823 375.098 24.762C377.024 25.699 378.369 26.989 379.326 27.901C380.275 28.83 380.851 29.453 380.851 29.453Z" fill="#FF9228"/>
<path d="M388.192 23.544C388.192 23.544 387.598 23.776 386.679 24.134C385.778 24.501 384.642 25.017 383.375 25.573C380.848 26.685 378.693 27.845 378.341 27.343C378.177 27.111 378.511 26.544 379.236 25.838C379.96 25.137 381.096 24.288 382.555 23.661C384.013 23.02 385.531 22.953 386.56 23.1C387.081 23.179 387.489 23.282 387.767 23.384C388.045 23.48 388.192 23.544 388.192 23.544Z" fill="#FF9228"/>
<path d="M367.232 33.8591C367.232 33.8591 367.082 33.7681 366.817 33.6081C366.559 33.4411 366.173 33.2211 365.705 32.9661C364.766 32.4511 363.467 31.8681 362.003 31.3581C359.061 30.3041 356.428 30.5351 356.347 30.0891C356.31 29.8901 356.951 29.5511 358.089 29.3901C359.219 29.2271 360.846 29.3081 362.513 29.8831C364.184 30.4651 365.456 31.5011 366.194 32.3581C366.568 32.7871 366.831 33.1611 366.989 33.4351C367.144 33.7071 367.232 33.8591 367.232 33.8591Z" fill="#FF9228"/>
<path d="M370.116 27.777C370.116 27.777 369.695 28.029 369.062 28.385C368.437 28.736 367.61 29.199 366.712 29.703C364.937 30.674 363.57 31.814 363.232 31.508C363.078 31.363 363.232 30.894 363.685 30.276C364.135 29.662 364.919 28.907 365.964 28.334C367.014 27.763 368.109 27.61 368.875 27.627C369.647 27.64 370.116 27.777 370.116 27.777Z" fill="#FF9228"/>
<path d="M364.795 24.316C364.795 24.316 363.799 23.966 362.273 23.321C360.742 22.686 358.698 21.772 356.455 21.031C354.217 20.293 352.088 20.108 350.555 20.214C349.017 20.302 348.038 20.596 347.897 20.321C347.765 20.096 348.571 19.28 350.292 18.767C351.992 18.24 354.549 18.207 357.1 19.054C359.646 19.901 361.547 21.354 362.818 22.436C364.092 23.536 364.795 24.316 364.795 24.316Z" fill="#FF9228"/>
<path d="M371.552 15.73C371.552 15.73 371.348 15.788 370.985 15.891C370.624 15.981 370.109 16.138 369.496 16.332C368.262 16.719 366.666 17.341 364.973 18.114C361.554 19.643 359.354 21.914 358.876 21.548C358.661 21.381 358.945 20.548 359.815 19.466C360.675 18.388 362.171 17.114 364.105 16.223C366.048 15.335 368.022 15.173 369.384 15.298C370.07 15.357 370.614 15.461 370.983 15.566C371.348 15.671 371.552 15.73 371.552 15.73Z" fill="#FF9228"/>
<path d="M139.926 54.706C139.926 54.706 139.087 54.532 137.836 54.027C136.579 53.536 134.96 52.705 133.277 51.892C131.601 51.086 130 50.669 128.812 50.554C127.625 50.421 126.818 50.525 126.704 50.242C126.593 50.003 127.291 49.352 128.741 49.085C130.175 48.803 132.237 49.076 134.173 50.015C136.099 50.952 137.444 52.242 138.401 53.154C139.35 54.083 139.926 54.706 139.926 54.706Z" fill="#FF9228"/>
<path d="M147.267 48.797C147.267 48.797 146.673 49.029 145.754 49.387C144.853 49.754 143.717 50.27 142.45 50.826C139.923 51.938 137.768 53.098 137.416 52.596C137.252 52.364 137.586 51.797 138.311 51.091C139.035 50.39 140.171 49.541 141.63 48.914C143.087 48.273 144.606 48.206 145.635 48.353C146.156 48.432 146.564 48.535 146.842 48.637C147.12 48.733 147.267 48.797 147.267 48.797Z" fill="#FF9228"/>
<path d="M126.307 59.112C126.307 59.112 126.157 59.021 125.892 58.861C125.634 58.694 125.248 58.474 124.78 58.219C123.842 57.704 122.542 57.122 121.078 56.611C118.136 55.557 115.503 55.788 115.422 55.342C115.385 55.143 116.026 54.804 117.164 54.643C118.294 54.48 119.921 54.561 121.588 55.136C123.259 55.718 124.531 56.754 125.269 57.611C125.643 58.04 125.906 58.414 126.064 58.688C126.219 58.96 126.307 59.112 126.307 59.112Z" fill="#FF9228"/>
<path d="M129.192 53.03C129.192 53.03 128.771 53.282 128.138 53.638C127.513 53.989 126.686 54.452 125.788 54.956C124.013 55.927 122.646 57.067 122.308 56.761C122.153 56.616 122.308 56.147 122.761 55.529C123.211 54.915 123.995 54.16 125.04 53.587C126.09 53.016 127.185 52.863 127.951 52.88C128.723 52.893 129.192 53.03 129.192 53.03Z" fill="#FF9228"/>
</svg>
