<svg width="441" height="311" viewBox="0 0 441 311" fill="none" xmlns="http://www.w3.org/2000/svg">
<path d="M54.883 309.213H398.571C409.515 292.49 461.728 209.343 429.98 191.637C394.639 171.928 401.575 166.854 402.381 76.1008C403.258 -22.5452 344.878 -9.04616 248.371 26.2938C151.864 61.6348 156.422 18.6658 82.328 40.1488C8.55603 61.5378 75.894 144.742 19.485 206.589C-27.751 258.377 33.657 297.768 54.883 309.213Z" fill="#EBEDFF"/>
<path d="M141.132 21.6058C141.132 21.6058 174.289 46.1798 233.295 22.1228C292.301 -1.93417 117.867 0.334827 141.132 21.6058Z" fill="#EBEDFF"/>
<path d="M196.161 245.469H125.237V309.213H196.161V245.469Z" fill="#FFC184"/>
<path d="M190.844 265.959V250.786H130.555V265.959H190.844Z" fill="#FFD3A8"/>
<path d="M190.844 285.072V269.899H130.555V285.072H190.844Z" fill="#FFD3A8"/>
<path d="M190.844 304.959V289.786H130.555V304.959H190.844Z" fill="#FFD3A8"/>
<path d="M160.699 261.821C162.363 261.821 163.712 260.472 163.712 258.808C163.712 257.144 162.363 255.795 160.699 255.795C159.035 255.795 157.686 257.144 157.686 258.808C157.686 260.472 159.035 261.821 160.699 261.821Z" fill="#EBEDFF"/>
<path d="M163.712 277.833C163.712 279.497 162.363 280.846 160.699 280.846C159.035 280.846 157.686 279.497 157.686 277.833C157.686 276.169 159.035 274.82 160.699 274.82C162.363 274.82 163.712 276.169 163.712 277.833Z" fill="#EBEDFF"/>
<path d="M163.712 298.866C163.712 300.53 162.363 301.879 160.699 301.879C159.035 301.879 157.686 300.53 157.686 298.866C157.686 297.202 159.035 295.853 160.699 295.853C162.363 295.853 163.712 297.202 163.712 298.866Z" fill="#EBEDFF"/>
<path d="M196.896 59.9058H79.6739C75.8859 59.9058 72.8159 62.9758 72.8159 66.7638V142.303C72.8159 146.091 75.8859 149.161 79.6739 149.161H196.896C200.684 149.161 203.754 146.091 203.754 142.303V66.7638C203.754 62.9758 200.683 59.9058 196.896 59.9058Z" fill="white"/>
<path d="M79.674 144.04C78.716 144.04 77.937 143.261 77.937 142.303V66.7638C77.937 65.8058 78.716 65.0268 79.674 65.0268H196.895C197.853 65.0268 198.633 65.8058 198.633 66.7638V142.303C198.633 143.261 197.853 144.04 196.895 144.04H79.674Z" fill="#EBEDFF"/>
<path d="M196.895 65.0258H162.811C164.651 73.8878 171.598 102.96 186.083 117.446H198.633V66.7638C198.634 65.8048 197.854 65.0258 196.895 65.0258Z" fill="#FFD3A8"/>
<path d="M186.084 117.446V125.148H198.43L198.634 117.446H186.084Z" fill="#FFC184"/>
<path d="M198.634 142.303V125.265L198.431 125.148H186.085C186.085 125.148 180.195 140.382 179.855 143.95L180.059 144.04H196.896C197.854 144.04 198.634 143.261 198.634 142.303Z" fill="#FFD3A8"/>
<path d="M79.9389 65.0258H114.023C112.183 73.8878 105.236 102.96 90.7499 117.446H78.2009V66.7638C78.1999 65.8048 78.9809 65.0258 79.9389 65.0258Z" fill="#FFD3A8"/>
<path d="M90.75 117.446V125.148H78.404L78.2 117.446H90.75Z" fill="#FFC184"/>
<path d="M78.2 142.303V125.265L78.403 125.148H90.749C90.749 125.148 96.639 140.382 96.979 143.95L96.775 144.04H79.938C78.981 144.04 78.2 143.261 78.2 142.303Z" fill="#FFD3A8"/>
<path d="M307.318 63.9619H249.333C247.46 63.9619 245.941 65.4809 245.941 67.3539V104.72C245.941 106.594 247.46 108.112 249.333 108.112H307.318C309.192 108.112 310.71 106.593 310.71 104.72V67.3539C310.71 65.4799 309.191 63.9619 307.318 63.9619Z" fill="#FFC184"/>
<path d="M310.71 70.3819V67.3539C310.71 65.4799 309.191 63.9619 307.318 63.9619H249.333C247.46 63.9619 245.941 65.4809 245.941 67.3539V70.3819H310.71Z" fill="#FFD3A8"/>
<path d="M259.466 76.5649H250.558C250.113 76.5649 249.752 76.9259 249.752 77.3709V86.2469C249.752 86.6919 250.113 87.0529 250.558 87.0529H259.466C259.911 87.0529 260.272 86.6919 260.272 86.2469V77.3709C260.272 76.9259 259.911 76.5649 259.466 76.5649Z" fill="#EBEDFF"/>
<path d="M275.062 76.5649H266.154C265.709 76.5649 265.348 76.9259 265.348 77.3709V86.2469C265.348 86.6919 265.709 87.0529 266.154 87.0529H275.062C275.507 87.0529 275.868 86.6919 275.868 86.2469V77.3709C275.868 76.9259 275.507 76.5649 275.062 76.5649Z" fill="white"/>
<path d="M290.572 76.5649H281.664C281.219 76.5649 280.858 76.9259 280.858 77.3709V86.2469C280.858 86.6919 281.219 87.0529 281.664 87.0529H290.572C291.017 87.0529 291.378 86.6919 291.378 86.2469V77.3709C291.378 76.9259 291.017 76.5649 290.572 76.5649Z" fill="#FFD3A8"/>
<path d="M305.565 76.5649H296.657C296.212 76.5649 295.851 76.9259 295.851 77.3709V86.2469C295.851 86.6919 296.212 87.0529 296.657 87.0529H305.565C306.01 87.0529 306.371 86.6919 306.371 86.2469V77.3709C306.371 76.9259 306.01 76.5649 305.565 76.5649Z" fill="#EBEDFF"/>
<path d="M259.466 91.1968H250.558C250.113 91.1968 249.752 91.5578 249.752 92.0028V100.879C249.752 101.324 250.113 101.685 250.558 101.685H259.466C259.911 101.685 260.272 101.324 260.272 100.879V92.0028C260.272 91.5578 259.911 91.1968 259.466 91.1968Z" fill="#FFD3A8"/>
<path d="M275.062 91.1968H266.154C265.709 91.1968 265.348 91.5578 265.348 92.0028V100.879C265.348 101.324 265.709 101.685 266.154 101.685H275.062C275.507 101.685 275.868 101.324 275.868 100.879V92.0028C275.868 91.5578 275.507 91.1968 275.062 91.1968Z" fill="#EBEDFF"/>
<path d="M290.572 91.1968H281.664C281.219 91.1968 280.858 91.5578 280.858 92.0028V100.879C280.858 101.324 281.219 101.685 281.664 101.685H290.572C291.017 101.685 291.378 101.324 291.378 100.879V92.0028C291.378 91.5578 291.017 91.1968 290.572 91.1968Z" fill="white"/>
<path d="M305.565 91.1968H296.657C296.212 91.1968 295.851 91.5578 295.851 92.0028V100.879C295.851 101.324 296.212 101.685 296.657 101.685H305.565C306.01 101.685 306.371 101.324 306.371 100.879V92.0028C306.371 91.5578 306.01 91.1968 305.565 91.1968Z" fill="#EBEDFF"/>
<path d="M405.766 198.487H199.718V206.009H405.766V198.487Z" fill="#FFC184"/>
<path d="M389.111 206.009H212.255V309.584H389.111V206.009Z" fill="#FFC184"/>
<path d="M389.111 206.009H212.255V217.056H389.111V206.009Z" fill="#FFD3A8"/>
<path d="M373.996 78.027C383.06 68.9627 383.06 54.2664 373.996 45.202C364.931 36.1377 350.235 36.1377 341.171 45.202C332.106 54.2664 332.106 68.9627 341.171 78.027C350.235 87.0914 364.931 87.0914 373.996 78.027Z" fill="#FFC184"/>
<path d="M357.587 78.7078C367.028 78.7078 374.682 71.0541 374.682 61.6128C374.682 52.1715 367.028 44.5178 357.587 44.5178C348.146 44.5178 340.492 52.1715 340.492 61.6128C340.492 71.0541 348.146 78.7078 357.587 78.7078Z" fill="#EBEDFF"/>
<path d="M352.211 69.0868C351.997 69.0868 351.785 68.9978 351.634 68.8228C351.359 68.5038 351.394 68.0228 351.713 67.7468L357.014 63.1688V51.1218C357.014 50.7008 357.355 50.3598 357.776 50.3598C358.198 50.3598 358.539 50.7008 358.539 51.1218V63.5178C358.539 63.7388 358.443 63.9498 358.275 64.0948L352.71 68.9018C352.565 69.0258 352.388 69.0868 352.211 69.0868Z" fill="#FFC184"/>
<path d="M290.932 180.113H223.772C220.404 180.113 217.674 177.383 217.674 174.015V136.987C217.674 133.619 220.404 130.889 223.772 130.889H290.932C294.3 130.889 297.03 133.619 297.03 136.987V174.015C297.03 177.382 294.3 180.113 290.932 180.113Z" fill="#FFC184"/>
<path d="M293.003 131.256C290.656 132.105 288.976 134.346 288.976 136.986V174.014C288.976 176.654 290.657 178.895 293.003 179.744C295.35 178.895 297.031 176.654 297.031 174.014V136.986C297.03 134.346 295.35 132.105 293.003 131.256Z" fill="#FFD3A8"/>
<path d="M270.972 192.929H262.126V159.528H244.524V192.929V198.089H270.972C272.397 198.089 273.552 196.934 273.552 195.509C273.552 194.084 272.396 192.929 270.972 192.929Z" fill="#FFD3A8"/>
<path d="M270.826 192.929H262.126V159.528H244.524V192.929C244.524 195.779 246.834 198.089 249.684 198.089H270.972C272.443 198.089 273.626 196.858 273.548 195.37C273.475 193.975 272.223 192.929 270.826 192.929Z" fill="#FFD3A8"/>
<path d="M273.552 195.509C273.552 194.084 272.397 192.929 270.972 192.929H262.126V159.528H256.159V192.929C256.159 195.779 258.469 198.089 261.319 198.089H270.973C272.396 198.089 273.552 196.934 273.552 195.509Z" fill="#FF9228"/>
<path d="M273.891 134.583H234.745C233.8 134.583 233.034 135.349 233.034 136.294C233.034 137.239 233.8 138.005 234.745 138.005H273.891C274.836 138.005 275.602 137.239 275.602 136.294C275.602 135.349 274.836 134.583 273.891 134.583Z" fill="#FFD3A8"/>
<path d="M380.878 182.792H314.961V198.599H380.878V182.792Z" fill="#FFD3A8"/>
<path d="M376.588 171.747H308.624V182.792H376.588V171.747Z" fill="#FFC184"/>
<path d="M380.393 157.897H315.244V171.732H380.393V157.897Z" fill="#FFC184"/>
<path d="M380.393 166.884H315.244V171.731H380.393V166.884Z" fill="#FFD3A8"/>
<path d="M58.4989 258.566L59.6449 258.807C60.9919 255.193 62.2119 249.619 60.2319 243.764C56.8559 233.781 55.2349 221.207 48.7759 211.769C39.9509 198.873 37.8329 170.829 37.8329 170.829C37.8329 170.829 27.0899 193.076 34.4119 214.045C41.7339 235.015 50.3949 240.509 54.7759 244.603C59.4539 248.976 59.3599 254.648 58.4989 258.566Z" fill="#FFD3A8"/>
<path d="M58.743 258.617L59.645 258.807C60.992 255.193 62.212 249.619 60.232 243.764C56.856 233.781 55.235 221.207 48.776 211.769C39.951 198.873 37.833 170.829 37.833 170.829C37.833 170.829 31.894 200.81 38.773 211.37C45.653 221.93 45.966 219.358 50.909 229.391C55.852 239.424 57.414 242.27 58.918 248.102C59.879 251.835 59.292 256.049 58.743 258.617Z" fill="#FF9228"/>
<path d="M64.195 266.758C64.195 266.758 66.391 263.482 65.103 251.254C63.815 239.026 60.298 227.331 62.269 213.995C64.24 200.66 78.784 166.837 78.86 164.606C78.936 162.375 82.711 203.524 75.204 219.92C67.697 236.316 66.746 241.969 66.96 250.505C67.174 259.041 66.686 265.929 65.86 267.932L64.195 266.758Z" fill="#FFD3A8"/>
<path d="M65.849 242.076C66.627 247.527 66.963 261.227 65.564 264.537C65.433 264.846 65.253 264.675 65.035 264.114C65.477 261.839 65.8 257.861 65.104 251.254C63.816 239.026 60.299 227.331 62.27 213.995C64.241 200.66 78.785 166.837 78.861 164.606C78.861 164.606 76.374 192.586 68.965 211.963C63.66 225.836 65.071 236.626 65.849 242.076Z" fill="#FF9228"/>
<path d="M72.0709 264.167C72.0709 264.167 65.7 246.617 76.343 231.484C86.986 216.351 104.024 196.932 104.338 189.215C104.338 189.215 108.86 225.879 94.9749 236.2C81.0889 246.521 71.332 248.138 73.801 264.108L72.0709 264.167Z" fill="#FFD3A8"/>
<path d="M86.975 228.801C71.496 241.309 70.276 255.78 72.708 262.504C72.897 263.027 73.253 263.347 73.722 263.519C71.588 248.105 81.265 246.389 94.975 236.199C108.86 225.878 104.338 189.214 104.338 189.214C104.338 189.214 102.455 216.293 86.975 228.801Z" fill="#FF9228"/>
<path d="M53.035 268.437L49.533 255.773C36.495 209.526 0 207.987 0 207.987C3.814 208.747 23.618 223.846 26.685 237.281C28.126 243.591 34.572 248.071 40.265 251.038C44.371 253.178 47.406 256.954 48.676 261.407C49.763 265.217 50.336 268.596 50.336 268.596L53.035 268.437Z" fill="#FFD3A8"/>
<path d="M33.192 237.92C37.458 246.104 42.953 249.431 47.881 250.554C33.674 209.431 0 207.987 0 207.987C0.754 208.137 2.147 208.865 3.897 210.012C10.916 213.931 25.656 223.465 33.192 237.92Z" fill="#FF9228"/>
<path d="M80.5599 257.334H42.4169C37.8629 257.334 34.4149 261.448 35.2099 265.932L42.0589 304.555C42.5409 307.274 44.9039 309.254 47.6649 309.254H75.3129C78.0739 309.254 80.4369 307.273 80.9189 304.555L87.7679 265.932C88.5629 261.448 85.1139 257.334 80.5599 257.334Z" fill="#FFC184"/>
<path d="M87.6058 262.664C86.7468 259.632 83.9628 257.335 80.5608 257.335H42.4168C39.0148 257.335 36.2308 259.632 35.3718 262.664H87.6058Z" fill="#FFD3A8"/>
<path d="M80.5608 257.334H70.8298C75.3838 257.334 78.8318 261.448 78.0368 265.932L71.1878 304.555C70.7058 307.274 68.3428 309.254 65.5818 309.254H75.3128C78.0738 309.254 80.4368 307.273 80.9188 304.555L87.7678 265.932C88.5628 261.448 85.1138 257.334 80.5608 257.334Z" fill="#FFD3A8"/>
<path d="M337.635 129.474C340.919 130.036 356.543 132.709 359.597 134.834C362.221 136.66 374.934 173.845 372.253 175.781C369.573 177.717 353.641 179.503 353.641 179.503L355.428 192.927L337.195 197.076C332.819 198.072 328.286 198.17 323.87 197.364L308.525 194.565L311.652 155.828L291.231 167.557C289.744 168.333 287.911 167.778 287.104 166.308L265.349 128.691L271.499 125.787L290.211 148.235L308.228 133.941C308.228 133.941 312.285 131.112 327.213 129.846L337.635 129.474Z" fill="#FFBD7D"/>
<path d="M271.042 126.184C271.042 126.184 267.881 119.703 266.75 119.382C265.619 119.06 266.651 121.996 266.651 121.996C266.651 121.996 262.712 118.977 259.601 119.406C256.49 119.834 265.344 125.438 266.22 128.454C266.22 128.454 271.234 126.205 271.042 126.184Z" fill="#FFA683"/>
<path d="M288.191 174.669H320.62C322.368 174.669 323.785 173.252 323.785 171.504V152.23C323.785 150.482 322.368 149.065 320.62 149.065H288.191C286.443 149.065 285.026 150.482 285.026 152.23V171.504C285.026 173.252 286.443 174.669 288.191 174.669Z" fill="white"/>
<path d="M305.647 174.669H333.087C334.566 174.669 335.765 173.47 335.765 171.991V172.284C335.765 170.805 334.566 169.606 333.087 169.606H305.647C304.168 169.606 302.969 170.805 302.969 172.284V171.991C302.969 173.47 304.168 174.669 305.647 174.669Z" fill="white"/>
<path d="M326.918 169.605V171.503C326.918 173.244 325.512 174.656 323.774 174.669H320.642C322.38 174.657 323.784 173.244 323.784 171.503V169.605H326.918Z" fill="#E6E1EF"/>
<path d="M298.456 163.435C298.456 160.992 300.436 159.012 302.879 159.012C305.322 159.012 307.302 160.992 307.302 163.435C307.302 165.878 305.322 167.858 302.879 167.858C300.436 167.858 298.456 165.877 298.456 163.435Z" fill="#E6E1EF"/>
<path opacity="0.42" d="M352.932 162.404L349.232 146.459L356.347 165.042C356.996 166.651 356.007 168.45 354.302 168.764L335.693 172.982L350.253 167.293C352.296 166.625 353.469 164.485 352.932 162.404Z" fill="#572B00"/>
<path d="M353.386 179.589L331.635 181.481L331.336 174.007L354.301 168.765L353.386 179.589Z" fill="#FFBD7D"/>
<path opacity="0.42" d="M344.961 182.805C345.47 183.036 346.079 189.292 346.53 194.979L355.173 193.012L353.386 179.588L331.635 181.48C331.635 181.48 344.021 182.378 344.961 182.805Z" fill="#572B00"/>
<path d="M331.582 179.666C331.582 179.666 327.76 180.908 322.99 176.121C322.481 175.611 322.84 174.734 323.56 174.729L331.281 174.668L331.582 179.666Z" fill="#FFA683"/>
<path d="M353.663 299.428L342.896 299.266C340.842 291.836 330.569 213.535 330.569 213.535L317.169 242.12L323.742 299.235L313.686 299.297C313.686 299.297 297.891 249.928 297.891 239.656C297.891 231.825 305.784 206.499 309.538 194.883L309.839 194.806L323.873 197.362C328.283 198.173 332.817 198.073 337.196 197.076L353.609 193.346L353.64 193.361C355.27 214.801 353.663 299.428 353.663 299.428Z" fill="#572B00"/>
<path opacity="0.35" d="M353.663 299.426C353.663 299.426 354.439 260.777 354.393 229.455C354.393 229.429 354.393 229.403 354.393 229.377C354.392 228.692 354.391 228.011 354.389 227.333C354.388 227.049 354.387 226.768 354.386 226.486C354.385 226.071 354.384 225.654 354.382 225.242C354.331 211.654 354.123 199.744 353.636 193.362L346.529 194.979V194.98L349.882 299.266L353.527 299.416L353.663 299.426Z" fill="#572B00"/>
<path d="M320.99 299.33L323.744 299.234L317.17 242.119L330.57 213.535L310.963 241.447L320.99 299.33Z" fill="#572B00"/>
<path d="M314.509 299.247C312.1 304.074 300.831 306.425 300.831 306.425C300.831 306.425 300.007 307.849 301.275 309.669C302.543 311.489 314.39 310.485 315.877 310.168C317.364 309.851 318.395 308.657 318.395 308.657C318.395 308.657 319.382 309.748 319.935 310.02C320.489 310.292 323.516 309.713 323.516 309.713C324.244 307.791 323.599 300.423 323.405 299.247H314.509Z" fill="#572B00"/>
<path d="M343.566 299.247C341.157 304.074 329.888 306.425 329.888 306.425C329.888 306.425 329.064 307.849 330.332 309.669C331.6 311.489 343.447 310.485 344.934 310.168C346.421 309.851 347.452 308.657 347.452 308.657C347.452 308.657 348.439 309.748 348.993 310.02C349.547 310.292 352.574 309.713 352.574 309.713C353.302 307.791 352.657 300.423 352.463 299.247H343.566Z" fill="#572B00"/>
<path d="M336.324 120.358V129.379L331.01 133.179L327.426 129.727L327.511 126.027C327.959 126.12 328.422 126.166 328.893 126.166C332.353 126.166 335.265 123.694 336.099 120.342C336.177 120.358 336.247 120.358 336.324 120.358Z" fill="#FFA683"/>
<path d="M338.47 114.537C337.42 113.415 336.202 114.322 336.202 114.322C336.202 114.322 336.185 114.34 336.155 114.374C333.039 113.635 328.694 110.327 328.694 110.327C325.761 112.098 321.443 113.693 321.443 113.693V118.371C321.443 122.677 324.777 126.168 328.89 126.168C332.353 126.168 335.263 123.693 336.097 120.341C338.661 120.695 339.506 115.644 338.47 114.537Z" fill="#FFA683"/>
<path d="M336.339 123.88L336.323 123.872V120.358C338.71 120.404 339.474 115.616 338.47 114.534C337.42 113.414 336.199 114.318 336.199 114.318C336.199 114.318 336.183 114.341 336.153 114.372C333.04 113.631 328.715 111.928 328.715 111.928C324.955 114.144 321.44 113.693 321.44 113.693C320.351 113.43 316.111 112.017 316.281 106.526C316.451 100.981 331.365 94.5159 339.614 103.56C342.842 107.089 344.742 122.413 336.339 123.88Z" fill="#572B00"/>
<path d="M328.894 126.166C328.419 126.166 327.96 126.104 327.51 126.014L327.427 129.726L329.736 131.953V127.602C335.691 127.602 336.1 120.342 336.1 120.342C335.266 123.695 332.354 126.166 328.894 126.166Z" fill="#F48260"/>
<path d="M336.2 114.319C336.2 114.319 336.184 114.342 336.154 114.373C335.729 114.273 335.274 114.118 334.81 113.933C334.956 115.819 335.019 120.529 332.482 123.071C331.872 122.286 330.445 120.623 329.115 120.364C327.863 120.12 325.977 120.296 325.004 120.416C324.603 120.466 324.229 120.64 323.935 120.918L322.638 122.143C322.314 121.711 322.013 121.216 321.757 120.63C322.684 123.835 325.526 126.168 328.893 126.168C332.353 126.168 335.265 123.696 336.099 120.344C336.315 120.375 336.524 120.352 336.717 120.305V120.297L336.2 114.319ZM330.183 123.246C327.092 124.687 324.95 123.529 324.376 122.807C324.243 122.64 324.258 122.4 324.403 122.243L324.928 121.672C325.523 121.019 327.444 121.259 328.246 121.259C329.095 121.259 329.734 121.982 330.202 122.478C330.393 122.683 330.422 123.134 330.183 123.246Z" fill="#572B00"/>
<path d="M245.174 299.236C243.843 259.766 238.633 187.478 238.633 187.478H199.274C199.274 187.478 194.063 259.766 192.733 299.236H203.931C203.931 299.236 216.648 214.334 219.115 206.563C221.582 214.334 233.977 299.236 233.977 299.236H245.174Z" fill="#572B00"/>
<path d="M245.175 299.236H241.668L230.23 187.477H238.633C238.633 187.477 243.846 259.769 245.175 299.236Z" fill="#572B00"/>
<path opacity="0.35" d="M245.175 299.236H241.668L230.23 187.477H238.633C238.633 187.477 243.846 259.769 245.175 299.236Z" fill="#572B00"/>
<path d="M193.984 299.247C191.575 304.074 180.306 306.425 180.306 306.425C180.306 306.425 179.482 307.849 180.75 309.669C182.019 311.489 193.865 310.485 195.352 310.168C196.839 309.851 197.87 308.657 197.87 308.657C197.87 308.657 198.856 309.748 199.41 310.02C199.964 310.292 202.991 309.713 202.991 309.713C203.719 307.791 203.074 300.423 202.88 299.247H193.984Z" fill="#572B00"/>
<path d="M243.752 299.247C246.161 304.074 257.43 306.425 257.43 306.425C257.43 306.425 258.254 307.849 256.986 309.669C255.718 311.489 243.871 310.485 242.385 310.168C240.898 309.851 239.867 308.657 239.867 308.657C239.867 308.657 238.88 309.748 238.326 310.02C237.772 310.292 234.745 309.713 234.745 309.713C234.017 307.791 234.662 300.423 234.856 299.247H243.752Z" fill="#572B00"/>
<path d="M227.223 124.947L224.553 124.171H220.413H219.277H215.137L212.467 124.947L205.815 187.256H219.277H220.413H233.875L227.223 124.947Z" fill="white"/>
<path d="M212.467 124.947C212.467 124.947 195.947 129.548 193.286 133.373C190.797 136.95 181.267 156.507 181.905 168.151C181.974 169.414 183.096 170.355 184.35 170.189L196.945 167.411L192.399 192.523C192.399 192.523 205.371 195.128 212.688 194.685L212.467 124.947Z" fill="#572B00"/>
<path d="M227.223 124.947C227.223 124.947 243.743 129.548 246.404 133.373C248.892 136.95 258.677 155.726 258.04 167.37C257.971 168.633 256.849 169.574 255.595 169.408L242.745 167.411L247.291 192.523C247.291 192.523 234.421 195.461 227.103 195.017L227.223 124.947Z" fill="#572B00"/>
<path d="M224.517 130.626L219.896 128.051L215.608 130.626L218.344 134.407C218.344 134.407 215.728 173.041 215.628 177.166C215.613 177.786 217.245 179.806 218.734 181.515C219.145 181.988 219.546 182.437 219.897 182.825C220.248 182.436 220.649 181.988 221.06 181.515C222.549 179.806 224.181 177.786 224.166 177.166C224.064 173.041 221.745 134.555 221.745 134.555L224.517 130.626Z" fill="#FFBD7D"/>
<path d="M196.945 167.41L235.861 160.869L233.754 151.833L189.351 156.157L196.945 167.41Z" fill="#572B00"/>
<path d="M235.27 159.908C235.27 159.908 240.961 158.06 242.883 158.356C244.805 158.652 243.918 152.036 233.755 151.833L235.27 159.908Z" fill="#FFA683"/>
<path d="M210.127 154.016C210.127 154.016 206.856 150.634 201.756 151.078C198.939 151.323 196.822 155.291 196.822 155.291L210.127 154.016Z" fill="#FFA683"/>
<path opacity="0.35" d="M195.227 176.901L212.537 164.803L196.945 167.41L195.227 176.901Z" fill="#572B00"/>
<path opacity="0.35" d="M196.823 155.291L193.703 155.211L200.024 145.558L196.823 155.291Z" fill="#572B00"/>
<path opacity="0.35" d="M243.007 158.388C243.007 158.388 246.237 158.452 246.579 157.939C246.921 157.427 242.522 146.626 242.522 146.626C242.522 146.626 245.762 157.464 243.007 158.388Z" fill="#572B00"/>
<path opacity="0.35" d="M247.29 192.523L244.715 178.298L242.744 167.41L227.154 164.695L227.152 165.573L238.6 173.867L241.987 193.582C245.087 193.025 247.29 192.523 247.29 192.523Z" fill="#572B00"/>
<path d="M219.03 206.549C216.851 208.369 215.389 210.903 214.901 213.699L199.999 299.236H203.93C203.93 299.236 214.417 227.819 219.03 206.549Z" fill="#572B00"/>
<path d="M223.991 123.814L220.055 126.209L215.863 123.814V115.958H223.991V123.814Z" fill="#FFA683"/>
<path d="M209.581 109.635C209.581 109.635 207.952 103.552 209.629 100.486C211.306 97.4209 214.154 94.0159 216.932 95.9319C216.932 95.9319 218.603 93.7389 224.495 95.1759C230.387 96.6129 233.292 96.6539 235.399 95.5529C237.507 94.4509 235.894 105.277 231.535 105.899C231.535 105.899 231.184 108.725 230.321 109.731C229.459 110.737 218.921 111.264 218.921 111.264L209.581 109.635Z" fill="#572B00"/>
<path d="M218.058 101.733C217.753 101.393 217.156 102.869 215.744 104.095C214.078 105.543 211.845 106.484 211.845 106.484V112.349C211.845 112.349 213.062 120.317 220.237 120.317C226.154 120.317 228.274 112.381 228.274 112.381V107.344V105.516C228.274 105.516 221.22 105.26 218.058 101.733Z" fill="#FFA683"/>
<path d="M223.991 119.075V120.689C222.96 121.434 221.718 121.93 220.237 121.93C218.425 121.93 216.993 121.422 215.864 120.661V119.048C216.992 119.809 218.424 120.317 220.237 120.317C221.716 120.317 222.96 119.82 223.991 119.075Z" fill="#F48260"/>
<path d="M215.247 110.344C215.247 108.762 213.964 107.479 212.382 107.479C210.8 107.479 209.518 108.761 209.518 110.344C209.518 111.926 211.254 113.683 212.836 113.683C214.418 113.683 215.247 111.926 215.247 110.344Z" fill="#FFA683"/>
<path d="M225.541 110.344C225.541 108.762 226.824 107.479 228.406 107.479C229.988 107.479 231.271 108.761 231.271 110.344C231.271 111.926 229.535 113.683 227.953 113.683C226.371 113.683 225.541 111.926 225.541 110.344Z" fill="#FFA683"/>
<path d="M107.048 301.268V307.734C107.048 309.389 105.841 310.731 104.352 310.731H84.7879C83.7359 310.731 83.3279 309.209 84.2119 308.574C86.7969 306.718 95.3519 304.053 98.0629 302.203L107.048 301.268Z" fill="#572B00"/>
<path d="M112.434 236.784C111.144 254.069 107.699 299.244 106.811 301.777C105.714 304.913 97.064 303.237 97.612 302.333C97.797 302.016 99.442 301.831 100.586 299.344C100.941 298.579 100.818 293.814 100.756 292.98C100.208 285.318 97.412 245.921 96.624 234.05C100.741 235.224 106.286 236.429 112.434 236.784Z" fill="#FFA683"/>
<path d="M120.444 301.268V307.734C120.444 309.389 121.651 310.731 123.14 310.731H142.704C143.756 310.731 144.164 309.209 143.28 308.574C140.695 306.718 132.14 304.053 129.429 302.203L120.444 301.268Z" fill="#572B00"/>
<path d="M129.882 302.334C130.423 303.238 121.78 304.914 120.683 301.778C119.802 299.252 116.366 254.224 115.068 236.878C120.142 236.947 125.533 236.391 130.824 234.723C129.974 247.335 127.263 285.459 126.73 292.981C126.676 293.815 126.552 298.581 126.9 299.345C128.044 301.832 129.689 302.017 129.882 302.334Z" fill="#FFA683"/>
<path d="M92.9941 182.087L93.1411 182.303L92.2451 184.195C92.5001 183.43 92.7551 182.727 92.9941 182.087Z" fill="#FFBD7D"/>
<path d="M138.254 231.548C116.589 243.55 89.326 231.548 89.326 231.548C85.263 210.301 89.156 193.263 92.23 184.226L92.245 184.195C92.5 183.43 92.755 182.728 92.994 182.087C94.052 179.26 94.894 177.569 95.087 177.206H95.102C96.276 177.978 110.788 187.069 130.568 177.206H130.946C130.946 177.206 130.938 177.19 130.923 177.167C130.908 177.136 130.892 177.105 130.869 177.051C130.861 177.043 130.861 177.028 130.853 177.02H130.984C141.127 202.739 138.254 231.548 138.254 231.548Z" fill="#572B00"/>
<path opacity="0.35" d="M138.254 231.548C134.338 233.711 130.245 235.085 126.159 235.904C131.442 221.708 126.622 189.895 124.854 179.6C126.7 178.974 128.608 178.187 130.569 177.206H130.947C130.947 177.206 130.939 177.19 130.924 177.167C130.909 177.136 130.893 177.105 130.87 177.051C130.862 177.043 130.862 177.028 130.854 177.02H130.985C141.127 202.739 138.254 231.548 138.254 231.548Z" fill="#572B00"/>
<path d="M112.434 236.784C111.144 254.061 107.699 299.244 106.811 301.777C106.517 302.611 105.691 303.106 104.641 303.36C108.086 291.891 107.774 238.239 107.774 238.239C104.182 238.355 99.711 236.548 96.675 235.204C96.59 233.914 96.685 235.007 96.616 234.049C100.733 235.224 106.279 236.429 112.434 236.784Z" fill="#F48260"/>
<path d="M126.9 299.345C126.553 298.58 126.676 293.815 126.73 292.981C127.271 285.458 129.974 247.327 130.824 234.723C130.187 234.922 129.549 235.097 128.91 235.266C128.57 235.356 128.229 235.439 127.888 235.521C127.516 235.61 127.145 235.694 126.774 235.773C122.811 236.62 118.852 236.929 115.069 236.878C115.1 237.287 115.132 237.717 115.165 238.156C117.36 238.148 122.73 238.075 126.071 237.58C125.556 247.405 123.047 297.247 124.777 300.596C125.271 301.569 126.793 302.395 128.755 303.091C129.551 302.851 130.022 302.566 129.883 302.334C129.689 302.017 128.044 301.832 126.9 299.345Z" fill="#F48260"/>
<path d="M163.036 129.202C163.036 129.202 166.432 123.853 167.451 123.683C168.47 123.513 167.281 125.975 167.281 125.975C167.281 125.975 171.017 123.725 173.691 124.404C176.365 125.083 168.085 129.108 167.024 131.655C167.024 131.655 162.867 129.202 163.036 129.202Z" fill="#FFA683"/>
<path d="M97.3959 186.945C97.3959 186.51 93.2859 183.098 93.0029 182.925C92.9639 182.871 92.9299 182.812 92.8899 182.759L90.2739 188.223C90.2739 188.223 96.5979 193.533 97.2249 193.01C97.6519 192.654 96.1419 190.277 95.0459 187.061C96.1369 186.924 97.3959 187.253 97.3959 186.945Z" fill="#FFA683"/>
<path d="M132.337 152.406C133.065 153.926 133.651 155.785 133.497 157.683C133.376 159.229 132.764 160.8 131.337 162.227C131.075 162.489 130.838 162.756 130.623 163.035C130.571 163.099 130.521 163.165 130.474 163.231C126.676 168.411 130.278 175.909 130.866 177.053C130.892 177.103 130.911 177.138 130.925 177.164C130.937 177.19 130.944 177.202 130.944 177.202H130.568C110.788 187.068 96.274 177.977 95.099 177.202H95.021C95.021 177.202 95.028 177.19 95.04 177.164C95.366 176.554 99.452 168.633 95.491 163.231C95.238 162.883 94.952 162.55 94.629 162.227C91.455 159.051 92.342 153.955 93.663 151.197L82.686 166.67L93.141 182.299L90.109 188.676C90.109 188.676 69.2 168.865 69.514 167.402C69.828 165.937 86.24 136.875 91.678 133.006C97.113 129.138 107.986 128.615 107.986 128.615H115.931C115.931 128.615 124.034 128.196 130.699 132.901L144.505 146.669L162.529 128.901L167.316 131.803C167.316 131.803 151.034 153.855 145.242 160.459C144.278 161.558 142.607 161.659 141.521 160.681L132.337 152.406Z" fill="#FFBD7D"/>
<path d="M144.463 158.927C141.058 161.551 126.653 143.252 128.959 147.267C131.265 151.282 127.165 156.492 123.492 165.462C120.319 173.21 123.646 178.405 124.611 179.677C126.536 179.032 128.522 178.224 130.569 177.203H130.945C130.945 177.203 130.938 177.191 130.926 177.165C130.912 177.139 130.893 177.104 130.867 177.054C130.278 175.91 126.677 168.412 130.475 163.232C130.522 163.166 130.572 163.1 130.624 163.036C130.839 162.757 131.075 162.49 131.338 162.228C132.765 160.801 133.377 159.229 133.498 157.684C133.651 155.786 133.065 153.927 132.338 152.407L141.522 160.682C142.608 161.661 144.279 161.559 145.243 160.46C151.035 153.856 167.317 131.804 167.317 131.804C167.266 131.523 148.276 155.988 144.463 158.927Z" fill="#B95B00"/>
<path d="M93.6639 151.197C93.6639 151.197 95.6869 144.875 97.0119 143.38C97.0119 143.38 80.6109 164.351 79.8419 166.743C79.0729 169.135 93.1409 182.299 93.1409 182.299L82.6859 166.67L93.6639 151.197Z" fill="#B95B00"/>
<path d="M93.6639 151.197C93.3009 151.955 92.9749 152.893 92.7529 153.916L93.6639 151.197Z" fill="#B95B00"/>
<g opacity="0.25">
<path d="M119.908 128.857H105.285C103.652 129.046 101.453 129.374 99.1912 129.927H124.643C122.916 129.37 121.283 129.044 119.908 128.857Z" fill="white"/>
<path d="M162.529 128.901L161.489 129.926H164.22L162.529 128.901Z" fill="white"/>
<path d="M165.403 134.383H156.968L155.883 135.453H164.607C164.892 135.07 165.156 134.716 165.403 134.383Z" fill="white"/>
<path d="M132.185 134.383H90.192C89.892 134.706 89.579 135.057 89.248 135.453H133.258L132.185 134.383Z" fill="white"/>
<path d="M161.273 139.91H151.362L150.277 140.98H160.47C160.742 140.617 161.01 140.261 161.273 139.91Z" fill="white"/>
<path d="M137.727 139.91H85.8931C85.6491 140.259 85.4021 140.615 85.1531 140.98H138.799L137.727 139.91Z" fill="white"/>
<path d="M143.27 145.437H82.2101C81.9831 145.791 81.7561 146.148 81.5281 146.507H144.343L143.27 145.437Z" fill="white"/>
<path d="M157.1 145.437H145.755L144.67 146.507H156.287C156.559 146.149 156.83 145.793 157.1 145.437Z" fill="white"/>
<path d="M93.664 151.197C93.541 151.455 93.423 151.739 93.31 152.034H152.04C152.314 151.681 152.591 151.324 152.869 150.964H78.762C78.544 151.322 78.329 151.678 78.114 152.034H93.07L93.664 151.197Z" fill="white"/>
<path d="M89.9082 156.49H75.4682C75.2572 156.852 75.0502 157.207 74.8462 157.56H89.1492L89.9082 156.49Z" fill="white"/>
<path d="M138.057 157.56H147.668C147.947 157.216 148.234 156.861 148.531 156.49H136.87L138.057 157.56Z" fill="white"/>
<path d="M92.5211 157.56H133.501C133.524 157.201 133.52 156.844 133.495 156.49H92.4631C92.4631 156.846 92.4841 157.203 92.5211 157.56Z" fill="white"/>
<path d="M85.987 162.017H72.31C72.103 162.388 71.905 162.745 71.718 163.087H85.229L85.987 162.017Z" fill="white"/>
<path d="M94.6301 162.227C94.9081 162.505 95.1531 162.792 95.3781 163.087H130.584C130.597 163.07 130.609 163.052 130.623 163.036C130.838 162.757 131.074 162.49 131.337 162.228C131.406 162.159 131.465 162.088 131.53 162.018H94.4431C94.5071 162.086 94.5621 162.16 94.6301 162.227Z" fill="white"/>
<path d="M83.2711 167.544H69.5381C69.5991 167.759 69.8351 168.125 70.2151 168.614H83.9861L83.2711 167.544Z" fill="white"/>
<path d="M97.2041 168.613H128.765C128.773 168.257 128.799 167.901 128.84 167.543H97.1301C97.1721 167.901 97.1951 168.258 97.2041 168.613Z" fill="white"/>
<path d="M96.2971 174.14H129.672C129.561 173.803 129.456 173.445 129.355 173.07H96.6171C96.5161 173.445 96.4081 173.802 96.2971 174.14Z" fill="white"/>
<path d="M86.9681 173.071H74.2341C74.5681 173.419 74.9161 173.777 75.2711 174.141H87.6841L86.9681 173.071Z" fill="white"/>
<path d="M100.231 179.667H124.64C125.575 179.353 126.526 178.996 127.491 178.597H97.656C98.376 178.937 99.242 179.305 100.231 179.667Z" fill="white"/>
<path d="M90.6651 178.597H79.7031C80.0651 178.955 80.4271 179.312 80.7871 179.667H91.3801L90.6651 178.597Z" fill="white"/>
<path d="M92.2741 184.124H85.3601C85.7471 184.498 86.1151 184.853 86.4691 185.194H91.7661L92.2741 184.124Z" fill="white"/>
</g>
<path d="M115.346 129.007L111.686 131.234L107.788 129.007V121.701H115.346V129.007Z" fill="#FFA683"/>
<path d="M115.346 124.599V129.007L114.44 129.557C114.473 129.368 114.505 129.184 114.538 129.004C114.895 126.996 115.201 125.423 115.346 124.599Z" fill="#FFA683"/>
<path d="M119.329 112.843V118.375C119.329 118.375 118.22 122.523 115.346 124.599C115.76 122.254 118.841 115.354 119.329 112.843Z" fill="#FFA683"/>
<path d="M115.346 124.6V126.101C114.387 126.794 113.232 127.255 111.855 127.255C110.17 127.255 108.838 126.782 107.789 126.075V124.575C108.838 125.283 110.17 125.755 111.855 125.755C113.23 125.755 114.387 125.293 115.346 124.6Z" fill="#F48260"/>
<path d="M119.451 113.817C119.409 113.817 119.37 113.827 119.328 113.829V113.69V111.99C119.328 111.99 108.773 112.653 106.861 108.413C106.687 108.026 104.051 112.89 104.051 112.89V113.867C102.819 114.102 101.887 115.181 101.887 116.48C101.887 117.736 103.065 119.102 104.325 119.477C104.947 121.551 106.828 125.754 111.855 125.754C115.956 125.754 118.094 121.657 118.918 119.569C118.957 119.571 118.991 119.585 119.03 119.585C120.501 119.585 122.115 117.952 122.115 116.48C122.115 115.01 120.923 113.817 119.451 113.817Z" fill="#FFA683"/>
<path d="M118.896 119.623C118.904 119.608 118.988 119.585 119.026 119.585C120.5 119.585 122.112 117.95 122.112 116.483C122.112 115.009 120.922 113.819 119.448 113.819C119.41 113.819 119.371 113.827 119.325 113.827V111.992C119.325 111.992 108.77 112.652 106.858 108.415C106.689 108.023 104.048 112.891 104.048 112.891V113.866C102.82 114.104 101.883 115.179 101.883 116.484C101.883 117.735 103.065 119.102 104.324 119.478C104.739 120.86 105.706 123.17 107.786 124.575V127.661C95.0869 120.018 96.5549 103.382 102.903 100.243C105.751 98.8459 107.131 99.9869 107.131 99.9869C117.083 91.2309 125.158 101.526 127.589 105.454C130.92 110.836 144.374 146.072 130.408 150.813C104.846 159.49 112.891 127.13 115.338 124.609C117.443 122.443 118.673 120.539 118.896 119.623Z" fill="#572B00"/>
</svg>
