<svg width="520" height="458" viewBox="0 0 520 458" fill="none" xmlns="http://www.w3.org/2000/svg">
<path d="M504.945 329.06C496.44 309.716 480.108 293.574 460.489 285.629C440.053 277.353 416.589 280.366 395.065 277.594C376.371 275.186 362.883 266.841 351.72 252.003C341.025 237.786 331.435 222.041 313.948 215.465C300.131 210.269 284.422 211.709 270.689 217.124C245.383 227.101 226.27 248.316 210.174 269.451C195.477 288.748 183.49 309.878 156.306 310.567C129.105 311.257 103.209 295.741 75.8204 299.852C39.6227 305.286 9.47762 335.419 3.16038 371.293C-2.75989 404.915 12.0962 437.523 37.6181 456.683H476.3C508.46 422.567 525.335 375.438 504.945 329.06Z" fill="#FFE9C0"/>
<path d="M108.383 456.683H109.59C117.971 447.472 124.536 436.294 128.709 423.887C135.464 403.805 135.179 382.73 127.907 364.544C124.232 355.353 118.925 346.787 113.793 338.503C108.588 330.102 103.207 321.415 99.5541 312.106C98.0439 308.256 96.9282 304.123 96.257 299.907C95.9546 299.867 95.6519 299.835 95.3491 299.798C96.0234 304.165 97.1706 308.446 98.733 312.428C102.414 321.812 107.818 330.533 113.043 338.968C118.155 347.219 123.441 355.752 127.087 364.871C134.281 382.863 134.56 403.722 127.872 423.606C123.648 436.167 116.945 447.449 108.383 456.683Z" fill="white"/>
<path d="M474.18 418.425C483.219 420.351 491.929 422.078 500.353 423.165C500.497 422.887 500.637 422.607 500.78 422.328C492.286 421.248 483.495 419.507 474.365 417.562C460.462 414.6 445.415 411.394 430.491 411.394C421.251 411.394 412.058 412.624 403.214 415.901C399.864 417.142 396.635 418.717 393.561 420.593C385.577 417.19 377.55 413.475 369.598 409.396C375.368 405.049 381.198 400.793 387.092 396.677C430.839 366.13 471.212 348.812 510.217 343.896C510.139 343.611 510.057 343.325 509.976 343.039C470.867 347.995 430.405 365.357 386.587 395.954C380.569 400.157 374.615 404.506 368.727 408.947C359.784 404.327 350.949 399.25 342.397 393.647C326.887 383.484 308.438 368.978 292.326 349.703C354.763 342.699 418.332 333.873 470.244 299.178C472.215 297.86 474.399 296.307 476.661 294.545C476.411 294.367 476.158 294.192 475.906 294.017C473.738 295.696 471.647 297.179 469.754 298.444C417.855 333.13 354.169 341.888 291.65 348.892C280.265 335.121 270.092 318.944 263.023 300.218C252.011 271.048 252.592 242.422 264.618 221.68C265.14 220.779 265.692 219.892 266.26 219.014C265.758 219.245 265.26 219.484 264.763 219.723C264.453 220.225 264.15 220.729 263.855 221.237C251.695 242.21 251.091 271.11 262.197 300.529C269.229 319.154 279.31 335.267 290.603 349.008C286.984 349.413 283.365 349.812 279.756 350.211C266.737 351.647 253.274 353.134 240.202 354.816C235.431 355.43 230.579 356.147 225.75 357.045C215.4 335.2 204.031 313.889 189.334 295.613C189.124 295.823 188.91 296.026 188.698 296.232C203.269 314.37 214.567 335.522 224.854 357.213C203.795 361.23 183.347 368.779 172.428 386.353C162.231 402.764 162.241 425.449 172.456 453.779C172.809 454.758 173.173 455.724 173.542 456.683H174.487C174.083 455.634 173.68 454.574 173.286 453.479C163.167 425.416 163.131 402.989 173.178 386.818C183.967 369.454 204.303 362.005 225.245 358.037C228.899 365.766 232.428 373.559 235.936 381.304L236.318 382.146C248.501 409.041 261.102 434.996 277.601 456.684H278.701C262.053 434.955 249.381 408.845 237.122 381.783L236.741 380.94C233.262 373.261 229.762 365.534 226.141 357.87C230.876 356.995 235.635 356.293 240.316 355.692C253.38 354.01 266.838 352.524 279.853 351.088C283.654 350.668 287.463 350.248 291.276 349.821C307.541 369.398 326.226 384.105 341.913 394.385C350.372 399.927 359.107 404.957 367.947 409.538C352.941 420.888 338.344 432.829 324.093 444.49C319.158 448.527 314.166 452.606 309.135 456.684H310.534C315.28 452.834 319.992 448.984 324.651 445.172C339.003 433.431 353.703 421.404 368.816 409.987C376.724 414.055 384.706 417.764 392.648 421.162C381.783 428.072 372.928 438.772 367.574 451.766C366.904 453.393 366.318 455.035 365.776 456.684H366.705C367.217 455.148 367.765 453.618 368.39 452.102C373.759 439.073 382.688 428.383 393.636 421.583C415.837 431.015 437.656 438.017 456.405 443.564L457.111 443.772C465.011 446.108 473.092 448.502 480.24 452.348C480.44 452.12 480.641 451.893 480.839 451.664C473.575 447.723 465.375 445.296 457.361 442.926L456.655 442.717C438.097 437.226 416.529 430.311 394.565 421.019C397.427 419.316 400.422 417.877 403.522 416.728C426.408 408.246 451.789 413.655 474.18 418.425Z" fill="white"/>
<path d="M39.8295 361.284C43.7257 377.232 41.9876 394.456 35.0599 408.539C30.5225 417.764 23.9699 426.115 15.8989 433.287C16.0595 433.536 16.2236 433.784 16.3866 434.032C24.5884 426.766 31.2455 418.293 35.8517 408.929C42.8694 394.663 44.6315 377.22 40.6862 361.075C37.604 348.459 31.4078 337.774 22.8471 330.043C22.6562 330.267 22.4667 330.493 22.2783 330.719C30.6964 338.331 36.7928 348.855 39.8295 361.284Z" fill="white"/>
<path d="M239.485 159.251C247.169 167.104 250.614 180.334 246.377 192.531C242.274 204.341 233.28 214.124 222.474 220.413C213.78 225.473 202.439 228.264 193.889 222.965C187.499 219.006 184.186 211.237 184.002 203.722C183.817 196.207 186.345 188.884 189.468 182.046C193.871 172.408 199.797 163.062 208.624 157.201C220.792 149.122 232.098 151.703 239.485 159.251Z" fill="#FFE9C0"/>
<path d="M499.685 79.0436C495.565 65.3425 488.317 52.7634 477.943 41.263C467.547 29.7626 453.369 20.269 435.409 12.7605C417.449 5.25163 394.629 1.49756 366.95 1.49756C344.87 1.49756 322.367 4.47498 299.441 10.4302C276.494 16.4069 256.591 24.908 239.708 35.9553L261.683 96.2868L249.905 105.828L266.986 110.848C283.847 102.023 299.209 95.6146 313.07 91.6227C326.909 87.6527 341.615 85.6675 357.209 85.6675C372.781 85.6675 384.572 89.4219 392.58 96.9304C400.588 104.461 404.581 113.501 404.581 124.117C404.581 136.933 400.461 148.304 392.262 158.251C384.022 168.198 374.936 178.252 364.984 188.415C358.075 195.471 351.356 202.763 344.869 210.272C338.383 217.802 332.635 225.851 327.67 234.481C322.683 243.09 318.69 252.368 315.668 262.315C312.626 272.262 311.126 283.417 311.126 295.78C311.126 299.772 311.21 304.519 311.442 310.043C311.481 311.062 311.535 312.055 311.596 313.035H295.448L313.07 324.952H398.75C398.306 322.298 398.095 319.213 398.095 315.674C398.095 312.135 398.095 309.481 398.095 307.712C398.095 300.203 399.616 292.803 402.638 285.51C405.659 278.217 409.463 271.27 414.006 264.624C418.548 258 423.62 251.699 429.261 245.745C434.881 239.768 440.291 234.136 445.489 228.828C452.398 221.773 459.54 214.264 466.893 206.303C474.246 198.341 480.754 189.969 486.374 181.123C491.994 172.277 496.643 162.675 500.319 152.275C503.996 141.897 505.856 130.526 505.856 118.141C505.855 105.777 503.784 92.7448 499.685 79.0436Z" fill="#FF9228"/>
<path d="M339.07 81.4589C323.659 81.4589 309.126 83.3799 295.448 87.2222C281.75 91.0853 266.569 97.2871 249.905 105.828L222.947 33.348C239.632 22.6567 259.302 14.4295 281.98 8.64505C304.636 2.8818 326.875 0 348.696 0C376.051 0 398.603 3.6334 416.352 10.9002C434.102 18.167 448.113 27.3547 458.387 38.4846C468.64 49.6145 475.802 61.7885 479.874 75.0482C483.925 88.3079 485.971 100.921 485.971 112.886C485.971 124.872 484.134 135.876 480.5 145.92C476.867 155.985 472.273 165.277 466.719 173.839C461.164 182.4 454.733 190.502 447.466 198.208C440.199 205.913 433.141 213.18 426.313 220.008C421.176 225.145 415.83 230.595 410.276 236.379C404.7 242.142 399.689 248.24 395.199 254.651C390.71 261.082 386.951 267.806 383.965 274.864C380.979 281.922 379.475 289.084 379.475 296.351C379.475 298.063 379.475 300.632 379.475 304.056C379.475 307.481 379.684 310.467 380.123 313.035H295.448C294.571 308.755 294.049 303.952 293.84 298.606C293.61 293.26 293.527 288.667 293.527 284.804C293.527 272.838 295.01 262.043 298.016 252.416C301.002 242.79 304.949 233.811 309.877 225.479C314.784 217.127 320.464 209.338 326.875 202.05C333.285 194.783 339.925 187.725 346.754 180.897C356.589 171.062 365.568 161.331 373.712 151.705C381.814 142.078 385.886 131.074 385.886 118.67C385.886 108.396 381.939 99.6471 374.025 92.3595C366.111 85.0923 354.459 81.4589 339.07 81.4589Z" fill="#FBC343"/>
<path d="M404.613 408.119C404.613 423.567 399.612 435.486 389.611 443.895C379.61 452.321 368.307 456.516 355.685 456.516C343.046 456.516 331.743 452.321 321.742 443.895C311.758 435.486 306.757 423.567 306.757 408.119C306.757 392.689 311.758 380.769 321.742 372.343C337.137 359.351 359.913 356.456 377.938 365.575C393.932 373.666 404.613 390.098 404.613 408.119Z" fill="#FF9228"/>
<path d="M386.856 408.397C386.856 423.845 381.856 435.764 371.854 444.173C361.853 452.599 350.55 456.795 337.928 456.795C325.289 456.795 313.986 452.599 303.985 444.173C294.001 435.764 289 423.845 289 408.397C289 392.967 294.001 381.048 303.985 372.622C313.986 364.213 325.289 360 337.928 360C350.55 360 361.853 364.213 371.854 372.622C381.856 381.048 386.856 392.967 386.856 408.397Z" fill="#FBC343"/>
<path d="M134.2 189.115C135.139 184.106 131.84 179.284 126.831 178.345C121.822 177.407 117 180.706 116.061 185.715C115.123 190.724 118.422 195.546 123.431 196.484C128.44 197.423 133.262 194.124 134.2 189.115Z" fill="#FFB688"/>
<path d="M138.614 206.461C139.142 203.643 137.27 200.929 134.433 200.397C131.596 199.865 128.868 201.718 128.34 204.535C127.812 207.353 129.684 210.067 132.521 210.599C135.358 211.131 138.086 209.278 138.614 206.461Z" fill="#FFB688"/>
<path d="M128.048 166.656C142.236 152.468 142.236 129.465 128.048 115.277C113.86 101.09 90.8573 101.09 76.6694 115.277C62.4815 129.465 62.4815 152.468 76.6694 166.656C90.8573 180.844 113.86 180.844 128.048 166.656Z" fill="#FFB688"/>
<path d="M88.4118 145.545C90.9397 145.545 92.9891 143.496 92.9891 140.968C92.9891 138.44 90.9397 136.39 88.4118 136.39C85.8838 136.39 83.8345 138.44 83.8345 140.968C83.8345 143.496 85.8838 145.545 88.4118 145.545Z" fill="white"/>
<path d="M102.362 145.545C104.89 145.545 106.939 143.496 106.939 140.968C106.939 138.44 104.89 136.39 102.362 136.39C99.834 136.39 97.7847 138.44 97.7847 140.968C97.7847 143.496 99.834 145.545 102.362 145.545Z" fill="white"/>
<path d="M116.312 145.545C118.84 145.545 120.889 143.496 120.889 140.968C120.889 138.44 118.84 136.39 116.312 136.39C113.784 136.39 111.734 138.44 111.734 140.968C111.734 143.496 113.784 145.545 116.312 145.545Z" fill="white"/>
<path d="M76.336 438.329L79.7305 451.416C80.6158 454.829 83.9154 457.135 87.5661 456.886C98.6963 456.13 121.822 453.403 135.095 443.62L131.322 424.76C113.073 423.729 96.0058 424.744 81.228 429.719C77.528 430.965 75.3879 434.674 76.336 438.329Z" fill="#102048"/>
<path d="M97.606 448.746C97.413 448.746 97.2359 448.619 97.1812 448.424L92.6233 432.104C92.5577 431.869 92.695 431.626 92.9296 431.561C93.1657 431.496 93.4077 431.632 93.4734 431.867L98.0312 448.187C98.0965 448.421 97.9596 448.665 97.725 448.73C97.6851 448.741 97.6449 448.746 97.606 448.746Z" fill="white"/>
<path d="M107.456 446.541C107.263 446.541 107.086 446.414 107.031 446.218L102.473 429.899C102.408 429.664 102.545 429.421 102.78 429.355C103.016 429.289 103.258 429.427 103.323 429.662L107.881 445.981C107.947 446.216 107.81 446.459 107.575 446.525C107.535 446.536 107.495 446.541 107.456 446.541Z" fill="white"/>
<path d="M118.897 367.589L76.4819 380.177L107.981 423.336L153.203 426.933L215.578 400.558L191.875 364.891L118.897 367.589Z" fill="#FBC343"/>
<path d="M171.187 373.583C264.334 346.009 279.303 428.332 133.971 443.318C128.837 437.541 122.838 427.518 120.456 419.14L197.204 383.674L171.187 373.583Z" fill="#FBC343"/>
<path d="M175.144 432.583C170.788 431.188 166.613 428.432 166.613 428.432L151.643 433.127L155.074 449.412L170.625 452.572C175.362 443.907 175.639 436.792 175.144 432.583Z" fill="#F9B384"/>
<path d="M120.788 419.712L120.124 418.568C136.135 409.263 177.147 386.908 212.088 380.315L212.334 381.616C177.593 388.171 136.74 410.441 120.788 419.712Z" fill="#FF9228"/>
<path d="M118.897 367.589C32.1961 351.104 9.74119 434.426 155.074 449.412C160.208 443.636 164.231 436.81 166.614 428.432C144.289 413.494 119.328 399.296 91.9718 385.772L118.897 367.589Z" fill="#FBC343"/>
<path d="M166.258 428.99C162.134 426.365 157.836 423.59 153.286 420.652C130.447 405.906 104.56 389.192 82.5664 379.661L83.0925 378.447C105.186 388.021 131.122 404.766 154.004 419.541C158.552 422.477 162.847 425.251 166.968 427.873L166.258 428.99Z" fill="#FF9228"/>
<path d="M55.285 408.902L54.127 408.262C57.3814 402.37 62.5942 398.396 69.6203 396.451L69.9735 397.725C63.2088 399.599 58.4043 403.255 55.285 408.902Z" fill="#FF9228"/>
<path d="M236.243 403.886C233.123 398.239 228.319 394.584 221.554 392.71L221.907 391.435C228.934 393.381 234.146 397.355 237.401 403.246L236.243 403.886Z" fill="#FF9228"/>
<path d="M146.955 448.68L145.988 447.777C152.924 440.349 157.183 432.508 159.011 423.805L160.306 424.076C158.428 433.023 154.061 441.071 146.955 448.68Z" fill="#FF9228"/>
<path d="M218.385 427.732C207.277 420.87 185.742 432.728 180.336 433.327C178.76 433.502 176.937 433.157 175.144 432.583C175.639 436.792 175.363 443.907 170.625 452.572L173.267 453.109C173.267 453.109 191.528 459.802 210.9 455.906C228.78 452.309 227.117 433.127 218.385 427.732Z" fill="#102048"/>
<path d="M203.243 450.18C203.199 450.18 203.154 450.173 203.11 450.159C202.878 450.086 202.749 449.838 202.822 449.606C204.142 445.427 204.718 437.206 200.895 431.685C200.757 431.485 200.807 431.21 201.007 431.072C201.207 430.932 201.482 430.983 201.62 431.183C205.623 436.965 205.035 445.527 203.663 449.871C203.604 450.059 203.43 450.18 203.243 450.18Z" fill="white"/>
<path d="M194.532 451.834C194.488 451.834 194.443 451.827 194.399 451.814C194.167 451.74 194.038 451.492 194.111 451.26C195.431 447.081 196.007 438.86 192.184 433.34C192.046 433.139 192.096 432.864 192.296 432.726C192.496 432.587 192.771 432.637 192.91 432.837C196.912 438.619 196.324 447.181 194.952 451.526C194.893 451.714 194.719 451.834 194.532 451.834Z" fill="white"/>
<path d="M103.558 260.156C103.558 260.156 125.393 241.589 124.585 238.06C124.007 235.539 117.822 239.236 117.822 239.236C117.822 239.236 126.496 228.944 126.055 227.695C125.267 225.462 119.267 229.624 119.267 229.624C119.267 229.624 123.322 223.788 121.384 222.837C119.445 221.886 115.219 225.483 115.219 225.483C115.219 225.483 117.688 222.242 116.528 221.392C115.368 220.541 110.363 224.038 110.363 224.038C110.363 224.038 112.159 219.952 108.343 221.501C104.528 223.05 77.7739 247.602 77.7739 247.602L103.558 260.156Z" fill="#F9B384"/>
<path d="M112.492 238.134C112.386 238.134 112.279 238.096 112.194 238.018C108.446 234.594 106.794 233.762 102.659 232.49C102.426 232.419 102.295 232.172 102.367 231.939C102.438 231.706 102.685 231.575 102.918 231.647C107.203 232.965 108.914 233.826 112.79 237.367C112.97 237.531 112.982 237.81 112.818 237.99C112.731 238.085 112.611 238.134 112.492 238.134Z" fill="#E28B6D"/>
<path d="M105.913 248.205C105.893 248.205 105.872 248.204 105.852 248.201C105.61 248.167 105.442 247.944 105.476 247.703C105.905 244.633 106.872 242.714 108.431 241.837C109.764 241.087 111.498 241.165 113.586 242.066C113.809 242.162 113.913 242.422 113.816 242.646C113.72 242.869 113.46 242.973 113.236 242.876C111.415 242.089 109.944 241.999 108.863 242.606C107.578 243.328 106.733 245.084 106.35 247.825C106.319 248.045 106.13 248.205 105.913 248.205Z" fill="#E28B6D"/>
<path d="M104.884 229.643C104.766 229.643 104.649 229.596 104.563 229.504C104.395 229.327 104.404 229.048 104.581 228.881L110.06 223.717C110.237 223.549 110.516 223.558 110.684 223.735C110.851 223.912 110.842 224.192 110.665 224.358L105.186 229.523C105.101 229.603 104.992 229.643 104.884 229.643Z" fill="#E28B6D"/>
<path d="M109.956 231.407C109.846 231.407 109.736 231.367 109.65 231.284C109.475 231.115 109.469 230.836 109.638 230.66L114.9 225.177C115.069 225.001 115.348 224.995 115.524 225.164C115.7 225.333 115.706 225.612 115.537 225.788L110.274 231.271C110.187 231.362 110.072 231.407 109.956 231.407Z" fill="#E28B6D"/>
<path d="M115.138 234.495C115.031 234.495 114.923 234.455 114.838 234.376C114.659 234.21 114.65 233.931 114.816 233.753L118.945 229.323C119.111 229.146 119.39 229.135 119.568 229.301C119.747 229.467 119.756 229.747 119.59 229.925L115.461 234.354C115.374 234.447 115.256 234.495 115.138 234.495Z" fill="#E28B6D"/>
<path d="M186.041 384.347L106.207 387.435L97.3853 314.657C97.3853 314.657 124.112 289.307 134.395 279.972L151.753 279.082C205.611 303.563 196.792 334.138 186.041 384.347Z" fill="#FF9228"/>
<path d="M151.753 279.082C151.753 279.082 213.37 284.351 232.795 326.566C251.802 367.874 173.691 382.583 173.691 382.583L151.753 279.082Z" fill="#FF9228"/>
<path d="M81.3216 288.128L106.784 257.143L82.9733 242.713C73.041 249.619 53.8342 265.261 37.5571 282.975C33.9643 286.885 31.1581 291.452 29.7445 296.48C28.5384 300.771 28.3193 305.01 28.9971 309.16C30.7639 319.977 39.2727 328.324 50.6309 329.654C60.3314 330.79 97.3848 327.89 127.378 319.069L136.199 285.021C131.666 282.449 97.9765 282.002 81.3216 288.128Z" fill="#FF9228"/>
<g opacity="0.8">
<path d="M203.174 295.835C203.307 295.805 203.44 295.774 203.572 295.744C203.294 295.579 203.015 295.419 202.735 295.257C198.22 296.296 193.561 297.359 188.968 297.913C186.208 298.245 176.987 298.854 174.291 292.71C172.951 289.653 173.965 286.254 175.482 283.868C175.26 283.804 175.041 283.741 174.821 283.679C173.268 286.206 172.271 289.752 173.686 292.975C176.563 299.538 186.173 298.916 189.048 298.569C193.773 298 198.552 296.9 203.174 295.835Z" fill="white"/>
<path d="M231.93 343.447C228.986 342.31 225.945 341.134 222.748 341.435C217.14 341.965 212.342 347.51 212.051 353.797C211.852 358.083 213.489 362.575 216.611 366.526C216.799 366.408 216.987 366.29 217.173 366.171C214.121 362.332 212.52 357.973 212.712 353.828C212.988 347.858 217.518 342.594 222.81 342.094C225.85 341.812 228.687 342.904 231.691 344.064C232.763 344.478 233.853 344.895 234.961 345.25C235.018 345.037 235.074 344.823 235.125 344.608C234.046 344.261 232.979 343.852 231.93 343.447Z" fill="white"/>
<path d="M76.4075 322.406C72.5606 319.224 66.5832 318.374 60.0112 320.073C54.1541 321.588 49.1286 324.589 45.6763 328.56C45.9032 328.633 46.1248 328.716 46.3548 328.783C49.7137 325.016 54.5517 322.168 60.1763 320.714C66.5401 319.066 72.3037 319.871 75.9862 322.915C77.7363 324.362 78.9738 326.241 79.8733 328.269C80.1005 328.244 80.3284 328.217 80.5571 328.191C79.6157 326.009 78.3034 323.973 76.4075 322.406Z" fill="white"/>
<path d="M41.6309 278.648C48.8391 276.857 55.873 274.341 62.3606 270.604C64.8119 269.192 67.5801 267.392 69.5268 264.749C71.5978 261.936 72.2858 258.587 71.3677 255.792C71.0074 254.696 70.3698 253.733 69.5727 252.961C69.404 253.099 69.2336 253.239 69.0639 253.379C69.8081 254.087 70.4044 254.979 70.7389 255.999C71.5904 258.591 70.9383 261.716 68.9944 264.356C67.1203 266.901 64.4227 268.653 62.0307 270.031C55.9114 273.556 49.2925 275.994 42.4936 277.755C42.2053 278.051 41.9181 278.349 41.6309 278.648Z" fill="white"/>
</g>
<path d="M157.392 262.902L157.381 264.031L157.202 281.579L157.18 283.48C157.146 286.455 155.927 289.15 153.959 291.107C152.002 293.053 149.307 294.272 146.32 294.295C140.303 294.328 135.382 289.497 135.327 283.469L135.114 261.783L157.392 262.902Z" fill="#F9B384"/>
<path d="M157.381 264.031L157.202 281.579C147.449 277.609 143.435 267.051 143.435 267.051L157.381 264.031Z" fill="#102048"/>
<path d="M161.24 233.41C164.735 237.604 174.94 261.37 164.595 269.478C152.954 278.602 135.237 263.607 135.237 263.607L132.86 235.926L148.238 231.872L161.24 233.41Z" fill="#F9B384"/>
<path d="M125.025 231.885C125.025 231.885 90.9156 249.675 118.728 300.956C122.3 307.542 130.212 310.417 136.981 307.204C144.241 303.756 146.991 294.886 143.048 287.882C138.499 279.8 134.108 269.393 135.982 261.649L125.025 231.885Z" fill="#102048"/>
<path d="M134.767 246.829C138.37 243.226 138.37 237.384 134.767 233.781C131.164 230.177 125.321 230.177 121.718 233.781C118.115 237.384 118.115 243.226 121.718 246.829C125.322 250.433 131.164 250.433 134.767 246.829Z" fill="#FBC343"/>
<path d="M139.598 251.393C138.601 245.636 137.993 241.689 143.811 238.722C143.811 238.722 164.315 242.45 168.23 234.714C172.144 226.978 166.179 214.769 153.691 223.25C121.723 217.006 117.436 246.923 127.128 256.896L136.695 255.428C138.62 255.132 139.93 253.312 139.598 251.393Z" fill="#102048"/>
<path d="M155.473 252.772C156.226 252.772 156.836 252.162 156.836 251.409C156.836 250.656 156.226 250.046 155.473 250.046C154.72 250.046 154.11 250.656 154.11 251.409C154.11 252.162 154.72 252.772 155.473 252.772Z" fill="#102048"/>
<path d="M164.7 248.228C165.453 248.228 166.063 247.618 166.063 246.865C166.063 246.112 165.453 245.502 164.7 245.502C163.947 245.502 163.337 246.112 163.337 246.865C163.337 247.618 163.947 248.228 164.7 248.228Z" fill="#102048"/>
<path d="M163.756 255.604C163.661 255.604 163.565 255.569 163.491 255.498C163.336 255.351 163.33 255.107 163.477 254.952C164.023 254.377 164.622 253.568 164.371 252.981C164.109 252.372 163.004 252.109 162.498 252.109C161.411 252.109 160.889 250.174 160.795 249.786C160.745 249.579 160.872 249.371 161.079 249.321C161.286 249.27 161.495 249.398 161.545 249.605C161.744 250.423 162.193 251.337 162.498 251.337C163.019 251.337 164.611 251.583 165.08 252.677C165.415 253.458 165.064 254.402 164.036 255.484C163.96 255.564 163.858 255.604 163.756 255.604Z" fill="#102048"/>
<path d="M163.826 260.777C163.751 260.777 163.676 260.755 163.61 260.71C161.044 258.978 158.452 260.431 158.426 260.446C158.242 260.552 158.006 260.489 157.899 260.303C157.793 260.119 157.856 259.883 158.041 259.777C158.164 259.706 161.08 258.072 164.042 260.071C164.218 260.19 164.265 260.43 164.146 260.607C164.071 260.717 163.95 260.777 163.826 260.777Z" fill="#102048"/>
<path d="M154.876 245.505C155.652 246.965 154.3 247.258 152.717 248.099C151.134 248.94 149.513 249.248 149.143 248.552C148.773 247.856 149.756 246.609 151.34 245.768C152.923 244.927 154.276 244.375 154.876 245.505Z" fill="#102048"/>
<path d="M160.65 242.871C160.991 244.174 161.962 243.603 163.375 243.233C164.788 242.863 165.93 242.153 165.767 241.532C165.605 240.911 164.327 240.707 162.914 241.077C161.501 241.446 160.386 241.862 160.65 242.871Z" fill="#102048"/>
<path opacity="0.4" d="M151.921 260.723C153.553 259.218 153.656 256.675 152.151 255.043C150.646 253.411 148.103 253.308 146.471 254.813C144.839 256.318 144.736 258.861 146.241 260.493C147.746 262.125 150.289 262.228 151.921 260.723Z" fill="#EB5D60"/>
<path d="M138.816 261.541C140.652 259.161 139.949 255.54 137.244 253.453C134.539 251.366 130.858 251.603 129.021 253.983C127.185 256.364 127.888 259.985 130.593 262.072C133.298 264.159 136.979 263.921 138.816 261.541Z" fill="#F9B384"/>
<path d="M136.31 259.801C136.097 259.801 135.924 259.629 135.924 259.415C135.924 258.276 135.368 257.223 134.438 256.598C133.643 256.062 132.694 255.937 131.902 256.26C131.704 256.339 131.479 256.246 131.399 256.048C131.318 255.851 131.413 255.626 131.611 255.545C132.641 255.125 133.86 255.278 134.869 255.957C136.013 256.725 136.696 258.018 136.696 259.415C136.696 259.629 136.523 259.801 136.31 259.801Z" fill="#102048"/>
<path d="M80.9924 287.816L67.0654 302.882L67.7132 303.481L81.6401 288.415L80.9924 287.816Z" fill="#102048"/>
<path d="M179.112 352.573L178.855 351.729C188.994 348.639 198.833 344.942 207.75 333.792L208.439 334.342C199.365 345.69 189.389 349.441 179.112 352.573Z" fill="#102048"/>
<path d="M185.277 318.412H99.0316C95.93 318.412 93.4155 321.132 93.4155 324.487V386.064C93.4155 389.419 95.93 392.139 99.0316 392.139H185.277C188.379 392.139 190.893 389.419 190.893 386.064V324.487C190.893 321.132 188.378 318.412 185.277 318.412Z" fill="#FFB688"/>
<path d="M146.707 351.384C147.035 351.384 147.3 351.671 147.3 352.025V358.526C147.3 358.881 147.035 359.168 146.707 359.168H137.601C137.274 359.168 137.008 358.881 137.008 358.526V352.025C137.008 351.671 137.274 351.384 137.601 351.384H146.707ZM146.707 349.619H137.601C136.302 349.619 135.244 350.698 135.244 352.025V358.526C135.244 359.853 136.302 360.932 137.601 360.932H146.707C148.007 360.932 149.064 359.853 149.064 358.526V352.025C149.064 350.698 148.007 349.619 146.707 349.619Z" fill="#1F3C88"/>
<path d="M520 455.801H0V457.565H520V455.801Z" fill="#102048"/>
</svg>
